<?xml version="1.0" encoding="utf-8" standalone="no"?>
<!DOCTYPE svg PUBLIC "-//W3C//DTD SVG 1.1//EN"
  "http://www.w3.org/Graphics/SVG/1.1/DTD/svg11.dtd">
<!-- Created with matplotlib (https://matplotlib.org/) -->
<svg height="288pt" version="1.1" viewBox="0 0 720 288" width="720pt" xmlns="http://www.w3.org/2000/svg" xmlns:xlink="http://www.w3.org/1999/xlink">
 <defs>
  <style type="text/css">
*{stroke-linecap:butt;stroke-linejoin:round;}
  </style>
 </defs>
 <g id="figure_1">
  <g id="patch_1">
   <path d="M 0 288 
L 720 288 
L 720 0 
L 0 0 
z
" style="fill:#ffffff;"/>
  </g>
  <g id="axes_1">
   <g id="patch_2">
    <path d="M 90 252 
L 648 252 
L 648 34.56 
L 90 34.56 
z
" style="fill:#ffffff;"/>
   </g>
   <g id="matplotlib.axis_1">
    <g id="xtick_1">
     <g id="line2d_1">
      <defs>
       <path d="M 0 0 
L 0 3.5 
" id="m6585a0a96a" style="stroke:#000000;stroke-width:0.8;"/>
      </defs>
      <g>
       <use style="stroke:#000000;stroke-width:0.8;" x="118.956219" xlink:href="#m6585a0a96a" y="252"/>
      </g>
     </g>
     <g id="text_1">
      <!-- 2017-01 -->
      <defs>
       <path d="M 19.1875 8.296875 
L 53.609375 8.296875 
L 53.609375 0 
L 7.328125 0 
L 7.328125 8.296875 
Q 12.9375 14.109375 22.625 23.890625 
Q 32.328125 33.6875 34.8125 36.53125 
Q 39.546875 41.84375 41.421875 45.53125 
Q 43.3125 49.21875 43.3125 52.78125 
Q 43.3125 58.59375 39.234375 62.25 
Q 35.15625 65.921875 28.609375 65.921875 
Q 23.96875 65.921875 18.8125 64.3125 
Q 13.671875 62.703125 7.8125 59.421875 
L 7.8125 69.390625 
Q 13.765625 71.78125 18.9375 73 
Q 24.125 74.21875 28.421875 74.21875 
Q 39.75 74.21875 46.484375 68.546875 
Q 53.21875 62.890625 53.21875 53.421875 
Q 53.21875 48.921875 51.53125 44.890625 
Q 49.859375 40.875 45.40625 35.40625 
Q 44.1875 33.984375 37.640625 27.21875 
Q 31.109375 20.453125 19.1875 8.296875 
z
" id="DejaVuSans-50"/>
       <path d="M 31.78125 66.40625 
Q 24.171875 66.40625 20.328125 58.90625 
Q 16.5 51.421875 16.5 36.375 
Q 16.5 21.390625 20.328125 13.890625 
Q 24.171875 6.390625 31.78125 6.390625 
Q 39.453125 6.390625 43.28125 13.890625 
Q 47.125 21.390625 47.125 36.375 
Q 47.125 51.421875 43.28125 58.90625 
Q 39.453125 66.40625 31.78125 66.40625 
z
M 31.78125 74.21875 
Q 44.046875 74.21875 50.515625 64.515625 
Q 56.984375 54.828125 56.984375 36.375 
Q 56.984375 17.96875 50.515625 8.265625 
Q 44.046875 -1.421875 31.78125 -1.421875 
Q 19.53125 -1.421875 13.0625 8.265625 
Q 6.59375 17.96875 6.59375 36.375 
Q 6.59375 54.828125 13.0625 64.515625 
Q 19.53125 74.21875 31.78125 74.21875 
z
" id="DejaVuSans-48"/>
       <path d="M 12.40625 8.296875 
L 28.515625 8.296875 
L 28.515625 63.921875 
L 10.984375 60.40625 
L 10.984375 69.390625 
L 28.421875 72.90625 
L 38.28125 72.90625 
L 38.28125 8.296875 
L 54.390625 8.296875 
L 54.390625 0 
L 12.40625 0 
z
" id="DejaVuSans-49"/>
       <path d="M 8.203125 72.90625 
L 55.078125 72.90625 
L 55.078125 68.703125 
L 28.609375 0 
L 18.3125 0 
L 43.21875 64.59375 
L 8.203125 64.59375 
z
" id="DejaVuSans-55"/>
       <path d="M 4.890625 31.390625 
L 31.203125 31.390625 
L 31.203125 23.390625 
L 4.890625 23.390625 
z
" id="DejaVuSans-45"/>
      </defs>
      <g transform="translate(98.064813 266.598437)scale(0.1 -0.1)">
       <use xlink:href="#DejaVuSans-50"/>
       <use x="63.623047" xlink:href="#DejaVuSans-48"/>
       <use x="127.246094" xlink:href="#DejaVuSans-49"/>
       <use x="190.869141" xlink:href="#DejaVuSans-55"/>
       <use x="254.492188" xlink:href="#DejaVuSans-45"/>
       <use x="290.576172" xlink:href="#DejaVuSans-48"/>
       <use x="354.199219" xlink:href="#DejaVuSans-49"/>
      </g>
     </g>
    </g>
    <g id="xtick_2">
     <g id="line2d_2">
      <g>
       <use style="stroke:#000000;stroke-width:0.8;" x="183.622714" xlink:href="#m6585a0a96a" y="252"/>
      </g>
     </g>
     <g id="text_2">
      <!-- 2017-04 -->
      <defs>
       <path d="M 37.796875 64.3125 
L 12.890625 25.390625 
L 37.796875 25.390625 
z
M 35.203125 72.90625 
L 47.609375 72.90625 
L 47.609375 25.390625 
L 58.015625 25.390625 
L 58.015625 17.1875 
L 47.609375 17.1875 
L 47.609375 0 
L 37.796875 0 
L 37.796875 17.1875 
L 4.890625 17.1875 
L 4.890625 26.703125 
z
" id="DejaVuSans-52"/>
      </defs>
      <g transform="translate(162.731308 266.598437)scale(0.1 -0.1)">
       <use xlink:href="#DejaVuSans-50"/>
       <use x="63.623047" xlink:href="#DejaVuSans-48"/>
       <use x="127.246094" xlink:href="#DejaVuSans-49"/>
       <use x="190.869141" xlink:href="#DejaVuSans-55"/>
       <use x="254.492188" xlink:href="#DejaVuSans-45"/>
       <use x="290.576172" xlink:href="#DejaVuSans-48"/>
       <use x="354.199219" xlink:href="#DejaVuSans-52"/>
      </g>
     </g>
    </g>
    <g id="xtick_3">
     <g id="line2d_3">
      <g>
       <use style="stroke:#000000;stroke-width:0.8;" x="249.007726" xlink:href="#m6585a0a96a" y="252"/>
      </g>
     </g>
     <g id="text_3">
      <!-- 2017-07 -->
      <g transform="translate(228.11632 266.598437)scale(0.1 -0.1)">
       <use xlink:href="#DejaVuSans-50"/>
       <use x="63.623047" xlink:href="#DejaVuSans-48"/>
       <use x="127.246094" xlink:href="#DejaVuSans-49"/>
       <use x="190.869141" xlink:href="#DejaVuSans-55"/>
       <use x="254.492188" xlink:href="#DejaVuSans-45"/>
       <use x="290.576172" xlink:href="#DejaVuSans-48"/>
       <use x="354.199219" xlink:href="#DejaVuSans-55"/>
      </g>
     </g>
    </g>
    <g id="xtick_4">
     <g id="line2d_4">
      <g>
       <use style="stroke:#000000;stroke-width:0.8;" x="315.111254" xlink:href="#m6585a0a96a" y="252"/>
      </g>
     </g>
     <g id="text_4">
      <!-- 2017-10 -->
      <g transform="translate(294.219848 266.598437)scale(0.1 -0.1)">
       <use xlink:href="#DejaVuSans-50"/>
       <use x="63.623047" xlink:href="#DejaVuSans-48"/>
       <use x="127.246094" xlink:href="#DejaVuSans-49"/>
       <use x="190.869141" xlink:href="#DejaVuSans-55"/>
       <use x="254.492188" xlink:href="#DejaVuSans-45"/>
       <use x="290.576172" xlink:href="#DejaVuSans-49"/>
       <use x="354.199219" xlink:href="#DejaVuSans-48"/>
      </g>
     </g>
    </g>
    <g id="xtick_5">
     <g id="line2d_5">
      <g>
       <use style="stroke:#000000;stroke-width:0.8;" x="381.214782" xlink:href="#m6585a0a96a" y="252"/>
      </g>
     </g>
     <g id="text_5">
      <!-- 2018-01 -->
      <defs>
       <path d="M 31.78125 34.625 
Q 24.75 34.625 20.71875 30.859375 
Q 16.703125 27.09375 16.703125 20.515625 
Q 16.703125 13.921875 20.71875 10.15625 
Q 24.75 6.390625 31.78125 6.390625 
Q 38.8125 6.390625 42.859375 10.171875 
Q 46.921875 13.96875 46.921875 20.515625 
Q 46.921875 27.09375 42.890625 30.859375 
Q 38.875 34.625 31.78125 34.625 
z
M 21.921875 38.8125 
Q 15.578125 40.375 12.03125 44.71875 
Q 8.5 49.078125 8.5 55.328125 
Q 8.5 64.0625 14.71875 69.140625 
Q 20.953125 74.21875 31.78125 74.21875 
Q 42.671875 74.21875 48.875 69.140625 
Q 55.078125 64.0625 55.078125 55.328125 
Q 55.078125 49.078125 51.53125 44.71875 
Q 48 40.375 41.703125 38.8125 
Q 48.828125 37.15625 52.796875 32.3125 
Q 56.78125 27.484375 56.78125 20.515625 
Q 56.78125 9.90625 50.3125 4.234375 
Q 43.84375 -1.421875 31.78125 -1.421875 
Q 19.734375 -1.421875 13.25 4.234375 
Q 6.78125 9.90625 6.78125 20.515625 
Q 6.78125 27.484375 10.78125 32.3125 
Q 14.796875 37.15625 21.921875 38.8125 
z
M 18.3125 54.390625 
Q 18.3125 48.734375 21.84375 45.5625 
Q 25.390625 42.390625 31.78125 42.390625 
Q 38.140625 42.390625 41.71875 45.5625 
Q 45.3125 48.734375 45.3125 54.390625 
Q 45.3125 60.0625 41.71875 63.234375 
Q 38.140625 66.40625 31.78125 66.40625 
Q 25.390625 66.40625 21.84375 63.234375 
Q 18.3125 60.0625 18.3125 54.390625 
z
" id="DejaVuSans-56"/>
      </defs>
      <g transform="translate(360.323376 266.598437)scale(0.1 -0.1)">
       <use xlink:href="#DejaVuSans-50"/>
       <use x="63.623047" xlink:href="#DejaVuSans-48"/>
       <use x="127.246094" xlink:href="#DejaVuSans-49"/>
       <use x="190.869141" xlink:href="#DejaVuSans-56"/>
       <use x="254.492188" xlink:href="#DejaVuSans-45"/>
       <use x="290.576172" xlink:href="#DejaVuSans-48"/>
       <use x="354.199219" xlink:href="#DejaVuSans-49"/>
      </g>
     </g>
    </g>
    <g id="xtick_6">
     <g id="line2d_6">
      <g>
       <use style="stroke:#000000;stroke-width:0.8;" x="445.881277" xlink:href="#m6585a0a96a" y="252"/>
      </g>
     </g>
     <g id="text_6">
      <!-- 2018-04 -->
      <g transform="translate(424.989871 266.598437)scale(0.1 -0.1)">
       <use xlink:href="#DejaVuSans-50"/>
       <use x="63.623047" xlink:href="#DejaVuSans-48"/>
       <use x="127.246094" xlink:href="#DejaVuSans-49"/>
       <use x="190.869141" xlink:href="#DejaVuSans-56"/>
       <use x="254.492188" xlink:href="#DejaVuSans-45"/>
       <use x="290.576172" xlink:href="#DejaVuSans-48"/>
       <use x="354.199219" xlink:href="#DejaVuSans-52"/>
      </g>
     </g>
    </g>
    <g id="xtick_7">
     <g id="line2d_7">
      <g>
       <use style="stroke:#000000;stroke-width:0.8;" x="511.266289" xlink:href="#m6585a0a96a" y="252"/>
      </g>
     </g>
     <g id="text_7">
      <!-- 2018-07 -->
      <g transform="translate(490.374883 266.598437)scale(0.1 -0.1)">
       <use xlink:href="#DejaVuSans-50"/>
       <use x="63.623047" xlink:href="#DejaVuSans-48"/>
       <use x="127.246094" xlink:href="#DejaVuSans-49"/>
       <use x="190.869141" xlink:href="#DejaVuSans-56"/>
       <use x="254.492188" xlink:href="#DejaVuSans-45"/>
       <use x="290.576172" xlink:href="#DejaVuSans-48"/>
       <use x="354.199219" xlink:href="#DejaVuSans-55"/>
      </g>
     </g>
    </g>
    <g id="xtick_8">
     <g id="line2d_8">
      <g>
       <use style="stroke:#000000;stroke-width:0.8;" x="577.369817" xlink:href="#m6585a0a96a" y="252"/>
      </g>
     </g>
     <g id="text_8">
      <!-- 2018-10 -->
      <g transform="translate(556.478411 266.598437)scale(0.1 -0.1)">
       <use xlink:href="#DejaVuSans-50"/>
       <use x="63.623047" xlink:href="#DejaVuSans-48"/>
       <use x="127.246094" xlink:href="#DejaVuSans-49"/>
       <use x="190.869141" xlink:href="#DejaVuSans-56"/>
       <use x="254.492188" xlink:href="#DejaVuSans-45"/>
       <use x="290.576172" xlink:href="#DejaVuSans-49"/>
       <use x="354.199219" xlink:href="#DejaVuSans-48"/>
      </g>
     </g>
    </g>
    <g id="xtick_9">
     <g id="line2d_9">
      <g>
       <use style="stroke:#000000;stroke-width:0.8;" x="643.473345" xlink:href="#m6585a0a96a" y="252"/>
      </g>
     </g>
     <g id="text_9">
      <!-- 2019-01 -->
      <defs>
       <path d="M 10.984375 1.515625 
L 10.984375 10.5 
Q 14.703125 8.734375 18.5 7.8125 
Q 22.3125 6.890625 25.984375 6.890625 
Q 35.75 6.890625 40.890625 13.453125 
Q 46.046875 20.015625 46.78125 33.40625 
Q 43.953125 29.203125 39.59375 26.953125 
Q 35.25 24.703125 29.984375 24.703125 
Q 19.046875 24.703125 12.671875 31.3125 
Q 6.296875 37.9375 6.296875 49.421875 
Q 6.296875 60.640625 12.9375 67.421875 
Q 19.578125 74.21875 30.609375 74.21875 
Q 43.265625 74.21875 49.921875 64.515625 
Q 56.59375 54.828125 56.59375 36.375 
Q 56.59375 19.140625 48.40625 8.859375 
Q 40.234375 -1.421875 26.421875 -1.421875 
Q 22.703125 -1.421875 18.890625 -0.6875 
Q 15.09375 0.046875 10.984375 1.515625 
z
M 30.609375 32.421875 
Q 37.25 32.421875 41.125 36.953125 
Q 45.015625 41.5 45.015625 49.421875 
Q 45.015625 57.28125 41.125 61.84375 
Q 37.25 66.40625 30.609375 66.40625 
Q 23.96875 66.40625 20.09375 61.84375 
Q 16.21875 57.28125 16.21875 49.421875 
Q 16.21875 41.5 20.09375 36.953125 
Q 23.96875 32.421875 30.609375 32.421875 
z
" id="DejaVuSans-57"/>
      </defs>
      <g transform="translate(622.581939 266.598437)scale(0.1 -0.1)">
       <use xlink:href="#DejaVuSans-50"/>
       <use x="63.623047" xlink:href="#DejaVuSans-48"/>
       <use x="127.246094" xlink:href="#DejaVuSans-49"/>
       <use x="190.869141" xlink:href="#DejaVuSans-57"/>
       <use x="254.492188" xlink:href="#DejaVuSans-45"/>
       <use x="290.576172" xlink:href="#DejaVuSans-48"/>
       <use x="354.199219" xlink:href="#DejaVuSans-49"/>
      </g>
     </g>
    </g>
   </g>
   <g id="matplotlib.axis_2">
    <g id="ytick_1">
     <g id="line2d_10">
      <defs>
       <path d="M 0 0 
L -3.5 0 
" id="mb42ebf0924" style="stroke:#000000;stroke-width:0.8;"/>
      </defs>
      <g>
       <use style="stroke:#000000;stroke-width:0.8;" x="90" xlink:href="#mb42ebf0924" y="231.552615"/>
      </g>
     </g>
     <g id="text_10">
      <!-- 1510.0 -->
      <defs>
       <path d="M 10.796875 72.90625 
L 49.515625 72.90625 
L 49.515625 64.59375 
L 19.828125 64.59375 
L 19.828125 46.734375 
Q 21.96875 47.46875 24.109375 47.828125 
Q 26.265625 48.1875 28.421875 48.1875 
Q 40.625 48.1875 47.75 41.5 
Q 54.890625 34.8125 54.890625 23.390625 
Q 54.890625 11.625 47.5625 5.09375 
Q 40.234375 -1.421875 26.90625 -1.421875 
Q 22.3125 -1.421875 17.546875 -0.640625 
Q 12.796875 0.140625 7.71875 1.703125 
L 7.71875 11.625 
Q 12.109375 9.234375 16.796875 8.0625 
Q 21.484375 6.890625 26.703125 6.890625 
Q 35.15625 6.890625 40.078125 11.328125 
Q 45.015625 15.765625 45.015625 23.390625 
Q 45.015625 31 40.078125 35.4375 
Q 35.15625 39.890625 26.703125 39.890625 
Q 22.75 39.890625 18.8125 39.015625 
Q 14.890625 38.140625 10.796875 36.28125 
z
" id="DejaVuSans-53"/>
       <path d="M 10.6875 12.40625 
L 21 12.40625 
L 21 0 
L 10.6875 0 
z
" id="DejaVuSans-46"/>
      </defs>
      <g transform="translate(48.009375 235.351834)scale(0.1 -0.1)">
       <use xlink:href="#DejaVuSans-49"/>
       <use x="63.623047" xlink:href="#DejaVuSans-53"/>
       <use x="127.246094" xlink:href="#DejaVuSans-49"/>
       <use x="190.869141" xlink:href="#DejaVuSans-48"/>
       <use x="254.492188" xlink:href="#DejaVuSans-46"/>
       <use x="286.279297" xlink:href="#DejaVuSans-48"/>
      </g>
     </g>
    </g>
    <g id="ytick_2">
     <g id="line2d_11">
      <g>
       <use style="stroke:#000000;stroke-width:0.8;" x="90" xlink:href="#mb42ebf0924" y="205.995158"/>
      </g>
     </g>
     <g id="text_11">
      <!-- 1512.5 -->
      <g transform="translate(48.009375 209.794377)scale(0.1 -0.1)">
       <use xlink:href="#DejaVuSans-49"/>
       <use x="63.623047" xlink:href="#DejaVuSans-53"/>
       <use x="127.246094" xlink:href="#DejaVuSans-49"/>
       <use x="190.869141" xlink:href="#DejaVuSans-50"/>
       <use x="254.492188" xlink:href="#DejaVuSans-46"/>
       <use x="286.279297" xlink:href="#DejaVuSans-53"/>
      </g>
     </g>
    </g>
    <g id="ytick_3">
     <g id="line2d_12">
      <g>
       <use style="stroke:#000000;stroke-width:0.8;" x="90" xlink:href="#mb42ebf0924" y="180.437702"/>
      </g>
     </g>
     <g id="text_12">
      <!-- 1515.0 -->
      <g transform="translate(48.009375 184.236921)scale(0.1 -0.1)">
       <use xlink:href="#DejaVuSans-49"/>
       <use x="63.623047" xlink:href="#DejaVuSans-53"/>
       <use x="127.246094" xlink:href="#DejaVuSans-49"/>
       <use x="190.869141" xlink:href="#DejaVuSans-53"/>
       <use x="254.492188" xlink:href="#DejaVuSans-46"/>
       <use x="286.279297" xlink:href="#DejaVuSans-48"/>
      </g>
     </g>
    </g>
    <g id="ytick_4">
     <g id="line2d_13">
      <g>
       <use style="stroke:#000000;stroke-width:0.8;" x="90" xlink:href="#mb42ebf0924" y="154.880246"/>
      </g>
     </g>
     <g id="text_13">
      <!-- 1517.5 -->
      <g transform="translate(48.009375 158.679464)scale(0.1 -0.1)">
       <use xlink:href="#DejaVuSans-49"/>
       <use x="63.623047" xlink:href="#DejaVuSans-53"/>
       <use x="127.246094" xlink:href="#DejaVuSans-49"/>
       <use x="190.869141" xlink:href="#DejaVuSans-55"/>
       <use x="254.492188" xlink:href="#DejaVuSans-46"/>
       <use x="286.279297" xlink:href="#DejaVuSans-53"/>
      </g>
     </g>
    </g>
    <g id="ytick_5">
     <g id="line2d_14">
      <g>
       <use style="stroke:#000000;stroke-width:0.8;" x="90" xlink:href="#mb42ebf0924" y="129.322789"/>
      </g>
     </g>
     <g id="text_14">
      <!-- 1520.0 -->
      <g transform="translate(48.009375 133.122008)scale(0.1 -0.1)">
       <use xlink:href="#DejaVuSans-49"/>
       <use x="63.623047" xlink:href="#DejaVuSans-53"/>
       <use x="127.246094" xlink:href="#DejaVuSans-50"/>
       <use x="190.869141" xlink:href="#DejaVuSans-48"/>
       <use x="254.492188" xlink:href="#DejaVuSans-46"/>
       <use x="286.279297" xlink:href="#DejaVuSans-48"/>
      </g>
     </g>
    </g>
    <g id="ytick_6">
     <g id="line2d_15">
      <g>
       <use style="stroke:#000000;stroke-width:0.8;" x="90" xlink:href="#mb42ebf0924" y="103.765333"/>
      </g>
     </g>
     <g id="text_15">
      <!-- 1522.5 -->
      <g transform="translate(48.009375 107.564551)scale(0.1 -0.1)">
       <use xlink:href="#DejaVuSans-49"/>
       <use x="63.623047" xlink:href="#DejaVuSans-53"/>
       <use x="127.246094" xlink:href="#DejaVuSans-50"/>
       <use x="190.869141" xlink:href="#DejaVuSans-50"/>
       <use x="254.492188" xlink:href="#DejaVuSans-46"/>
       <use x="286.279297" xlink:href="#DejaVuSans-53"/>
      </g>
     </g>
    </g>
    <g id="ytick_7">
     <g id="line2d_16">
      <g>
       <use style="stroke:#000000;stroke-width:0.8;" x="90" xlink:href="#mb42ebf0924" y="78.207876"/>
      </g>
     </g>
     <g id="text_16">
      <!-- 1525.0 -->
      <g transform="translate(48.009375 82.007095)scale(0.1 -0.1)">
       <use xlink:href="#DejaVuSans-49"/>
       <use x="63.623047" xlink:href="#DejaVuSans-53"/>
       <use x="127.246094" xlink:href="#DejaVuSans-50"/>
       <use x="190.869141" xlink:href="#DejaVuSans-53"/>
       <use x="254.492188" xlink:href="#DejaVuSans-46"/>
       <use x="286.279297" xlink:href="#DejaVuSans-48"/>
      </g>
     </g>
    </g>
    <g id="ytick_8">
     <g id="line2d_17">
      <g>
       <use style="stroke:#000000;stroke-width:0.8;" x="90" xlink:href="#mb42ebf0924" y="52.65042"/>
      </g>
     </g>
     <g id="text_17">
      <!-- 1527.5 -->
      <g transform="translate(48.009375 56.449638)scale(0.1 -0.1)">
       <use xlink:href="#DejaVuSans-49"/>
       <use x="63.623047" xlink:href="#DejaVuSans-53"/>
       <use x="127.246094" xlink:href="#DejaVuSans-50"/>
       <use x="190.869141" xlink:href="#DejaVuSans-55"/>
       <use x="254.492188" xlink:href="#DejaVuSans-46"/>
       <use x="286.279297" xlink:href="#DejaVuSans-53"/>
      </g>
     </g>
    </g>
   </g>
   <g id="line2d_18">
    <path clip-path="url(#p27fe59294c)" d="M 115.363636 171.833358 
L 116.082153 174.474295 
L 116.80067 177.654779 
L 117.519186 175.411402 
L 118.237703 174.758267 
L 118.956219 175.496594 
L 119.674736 167.99974 
L 120.393253 175.752168 
L 121.111769 177.512793 
L 121.830286 178.307914 
L 122.548802 175.297814 
L 123.267319 174.900253 
L 123.985836 172.912451 
L 124.704352 176.575686 
L 125.422869 176.94485 
L 126.141386 175.439799 
L 126.859902 175.865757 
L 127.578419 174.502693 
L 128.296935 180.15373 
L 129.015452 181.971149 
L 129.733969 190.035947 
L 130.452485 191.540997 
L 131.171002 191.796572 
L 132.608035 201.650391 
L 133.326552 202.275129 
L 134.763585 211.986962 
L 135.482101 212.952466 
L 136.200618 213.463615 
L 136.919135 219.710993 
L 137.637651 218.887475 
L 139.074685 225.390428 
L 139.793201 223.828584 
L 140.511718 225.021265 
L 141.230234 224.538513 
L 141.948751 225.362031 
L 142.667268 230.729097 
L 143.385784 228.911678 
L 144.104301 231.495821 
L 144.822817 226.895478 
L 145.541334 234.591113 
L 146.978367 242.116364 
L 147.696884 229.422827 
L 148.4154 228.542515 
L 149.133917 225.787989 
L 149.852434 221.698796 
L 150.57095 220.44932 
L 151.289467 218.631901 
L 152.007984 215.252637 
L 152.7265 219.256639 
L 153.445017 219.824582 
L 154.163533 220.023362 
L 154.88205 217.950369 
L 155.600567 216.615702 
L 157.0376 211.986962 
L 157.756116 211.70299 
L 158.474633 209.573202 
L 159.19315 209.431217 
L 159.911666 213.91797 
L 161.348699 201.820774 
L 162.067216 198.583496 
L 162.785733 197.220432 
L 163.504249 199.804575 
L 164.222766 197.617992 
L 164.941283 196.964857 
L 165.659799 194.72148 
L 166.378316 195.743779 
L 167.096832 193.954757 
L 168.533866 182.198327 
L 169.252382 180.182127 
L 170.689415 172.656876 
L 171.407932 169.419599 
L 172.126449 173.281614 
L 172.844965 171.20862 
L 173.563482 169.930748 
L 174.281998 166.69347 
L 175.000515 166.551484 
L 176.437548 163.768561 
L 177.156065 152.693663 
L 177.874582 151.41579 
L 178.593098 151.614571 
L 179.311615 151.444187 
L 180.030131 147.383392 
L 180.748648 147.951335 
L 181.467165 156.726062 
L 182.185681 161.809156 
L 182.904198 162.377099 
L 183.622714 162.178319 
L 184.341231 158.713864 
L 185.059748 155.987735 
L 185.778264 154.397494 
L 187.215297 149.144016 
L 187.933814 151.699762 
L 188.652331 149.115619 
L 189.370847 147.127817 
L 190.089364 147.354994 
L 190.807881 149.002031 
L 191.526397 144.231305 
L 192.244914 137.387586 
L 192.96343 136.620863 
L 193.681947 139.914935 
L 194.400464 139.432183 
L 195.11898 138.551871 
L 195.837497 132.190904 
L 196.556013 127.789342 
L 197.27453 126.909029 
L 197.993047 117.225593 
L 199.43008 109.728739 
L 200.867113 92.576846 
L 201.58563 88.885213 
L 202.304146 86.073893 
L 203.022663 90.163086 
L 203.74118 91.071796 
L 204.459696 83.29097 
L 205.896729 75.424953 
L 206.615246 75.368159 
L 207.333763 79.485749 
L 208.052279 89.651937 
L 208.770796 88.260476 
L 209.489312 88.11849 
L 210.207829 91.810122 
L 211.644862 90.844618 
L 212.363379 90.674235 
L 213.081895 96.410465 
L 213.800412 93.428761 
L 214.518929 92.775626 
L 215.237445 94.365868 
L 216.674478 85.70473 
L 217.392995 83.858914 
L 218.111512 80.820416 
L 218.830028 80.593239 
L 219.548545 81.274771 
L 220.267062 78.662231 
L 220.985578 78.548642 
L 221.704095 73.891506 
L 222.422611 71.193774 
L 223.141128 69.262766 
L 223.859645 72.187675 
L 224.578161 62.021487 
L 225.296678 70.767817 
L 226.015194 74.459449 
L 226.733711 76.930003 
L 227.452228 73.493945 
L 228.170744 69.149178 
L 228.889261 69.915901 
L 229.607777 68.467645 
L 230.326294 76.36206 
L 231.044811 75.339762 
L 231.763327 75.339762 
L 232.481844 76.844812 
L 233.200361 77.412755 
L 233.918877 76.276868 
L 234.637394 71.988895 
L 235.35591 70.597433 
L 236.074427 70.086284 
L 236.792944 73.238371 
L 237.51146 77.185578 
L 238.229977 76.134882 
L 238.948493 81.558743 
L 239.66701 79.485749 
L 240.385527 79.230174 
L 241.104043 86.159085 
L 241.82256 90.276675 
L 242.541076 88.629639 
L 243.259593 93.968308 
L 243.97811 96.836422 
L 244.696626 96.808025 
L 245.415143 108.166895 
L 246.13366 116.061309 
L 246.852176 117.566359 
L 247.570693 122.365481 
L 248.289209 122.422276 
L 249.007726 118.475069 
L 249.726243 110.807832 
L 250.444759 112.369676 
L 251.163276 119.270189 
L 251.881792 122.393879 
L 252.600309 120.349282 
L 253.318826 121.769141 
L 254.037342 122.195098 
L 255.474375 117.282387 
L 256.192892 111.035009 
L 256.911409 116.913224 
L 257.629925 109.132398 
L 259.066959 114.101904 
L 259.785475 124.097709 
L 260.503992 124.921227 
L 261.222508 130.146307 
L 261.941025 129.407981 
L 262.659542 134.03672 
L 263.378058 137.04682 
L 264.096575 142.2719 
L 264.815091 139.630963 
L 265.533608 150.308301 
L 266.252125 152.636869 
L 267.689158 170.157925 
L 268.407674 173.906352 
L 269.126191 179.472198 
L 269.844708 187.39501 
L 270.563224 189.212429 
L 271.281741 195.459807 
L 272.000258 196.652488 
L 272.718774 196.794474 
L 273.437291 197.419212 
L 274.155807 197.674787 
L 274.874324 199.293425 
L 275.592841 203.780179 
L 277.029874 206.705088 
L 277.74839 206.676691 
L 278.466907 204.916066 
L 279.185424 207.840975 
L 279.90394 209.374422 
L 281.340973 211.532607 
L 282.778007 205.313626 
L 283.496523 205.256832 
L 284.21504 205.455612 
L 284.933557 202.899867 
L 285.652073 209.289231 
L 286.37059 211.078253 
L 287.089106 213.350027 
L 287.807623 213.804381 
L 288.52614 210.851075 
L 289.244656 209.118848 
L 289.963173 207.982961 
L 290.681689 213.321629 
L 291.400206 214.968665 
L 292.118723 214.684694 
L 292.837239 210.709089 
L 293.555756 212.526508 
L 294.274272 208.49411 
L 294.992789 210.425118 
L 295.711306 210.19794 
L 296.429822 208.89167 
L 297.866856 218.177546 
L 298.585372 217.496014 
L 299.303889 216.161347 
L 300.022405 207.102648 
L 300.740922 202.843072 
L 301.459439 203.524604 
L 302.177955 204.603697 
L 302.896472 206.051953 
L 303.614988 205.597598 
L 304.333505 206.534705 
L 305.052022 205.484009 
L 305.770538 203.66659 
L 306.489055 196.340119 
L 307.207571 197.447609 
L 307.926088 196.567297 
L 308.644605 196.766077 
L 309.363121 198.214333 
L 310.081638 193.21643 
L 310.800155 191.086642 
L 311.518671 189.609989 
L 312.237188 186.713477 
L 312.955704 188.814868 
L 313.674221 181.346412 
L 314.392738 176.802864 
L 315.829771 173.366806 
L 316.548287 179.415404 
L 317.266804 180.380908 
L 317.985321 181.715575 
L 318.703837 182.425504 
L 319.422354 183.87376 
L 320.14087 181.857561 
L 320.859387 183.958952 
L 321.577904 178.080737 
L 322.29642 176.092934 
L 323.014937 177.484396 
L 323.733454 176.405303 
L 324.45197 174.72987 
L 325.889003 161.46839 
L 327.326037 170.61228 
L 328.044553 163.938944 
L 328.76307 165.983541 
L 329.481586 166.636676 
L 330.200103 166.863853 
L 330.91862 166.69347 
L 331.637136 166.381101 
L 332.355653 168.880052 
L 333.074169 168.170123 
L 333.792686 165.273611 
L 334.511203 171.549387 
L 335.229719 175.411402 
L 335.948236 172.827259 
L 336.666753 173.62238 
L 337.385269 169.334407 
L 338.822302 176.4337 
L 339.540819 185.946754 
L 340.259336 187.650584 
L 340.977852 185.151633 
L 341.696369 185.918357 
L 342.414885 185.464002 
L 343.851919 175.610182 
L 344.570435 172.798862 
L 345.288952 173.537189 
L 346.007468 167.346605 
L 347.444502 161.951142 
L 348.163018 167.062633 
L 348.881535 167.971343 
L 349.600052 170.697471 
L 351.037085 168.255314 
L 352.474118 160.928844 
L 353.192635 159.991737 
L 353.911151 159.310205 
L 354.629668 158.997836 
L 355.348184 158.912644 
L 356.066701 161.837553 
L 356.785218 163.030234 
L 358.222251 159.168219 
L 358.940767 160.275709 
L 359.659284 162.348702 
L 360.377801 165.245214 
L 361.096317 174.871856 
L 361.814834 176.149729 
L 363.251867 177.484396 
L 363.970384 182.113135 
L 364.6889 178.620283 
L 365.407417 173.508792 
L 366.125934 169.788762 
L 366.84445 170.4135 
L 367.562967 163.541384 
L 368.281483 161.638773 
L 369 160.417694 
L 369.718517 158.316304 
L 371.15555 152.068925 
L 371.874066 148.632867 
L 372.592583 155.249409 
L 373.3111 155.533381 
L 374.029616 153.914742 
L 374.748133 151.273804 
L 376.185166 145.282001 
L 376.903683 137.898736 
L 377.622199 134.349089 
L 378.340716 136.336891 
L 379.059233 132.332889 
L 379.777749 129.493172 
L 381.214782 126.738646 
L 381.933299 122.47907 
L 382.651816 123.870532 
L 389.836982 118.986218 
L 390.555498 117.367579 
L 391.274015 124.552064 
L 391.992532 119.752941 
L 392.711048 118.673849 
L 393.429565 114.357478 
L 394.148081 115.010613 
L 394.866598 112.170896 
L 395.585115 110.296683 
L 396.303631 112.170896 
L 397.022148 110.381874 
L 397.740664 109.075604 
L 398.459181 108.82003 
L 399.177698 105.866723 
L 399.896214 103.424566 
L 400.614731 105.923518 
L 401.333247 105.440766 
L 402.051764 94.536251 
L 402.770281 87.692532 
L 404.207314 78.037493 
L 404.925831 75.197776 
L 412.110997 75.680528 
L 413.54803 70.9382 
L 414.266546 66.621829 
L 414.985063 68.666426 
L 415.70358 68.694823 
L 416.422096 69.688724 
L 417.140613 66.678623 
L 417.85913 65.031587 
L 418.577646 66.082283 
L 420.014679 86.386262 
L 420.733196 84.057694 
L 421.451713 84.938006 
L 422.170229 81.019196 
L 422.888746 79.599338 
L 423.607262 77.725124 
L 424.325779 67.61573 
L 425.044296 67.871305 
L 432.229462 67.672525 
L 432.947978 63.157374 
L 433.666495 63.270963 
L 434.385012 61.567132 
L 435.103528 64.690821 
L 435.822045 61.680721 
L 436.540561 60.800409 
L 437.259078 61.226366 
L 437.977595 61.99309 
L 438.696111 64.264864 
L 440.133144 72.102484 
L 440.851661 74.998995 
L 441.570178 74.090286 
L 442.288694 76.390457 
L 443.007211 79.542543 
L 444.444244 88.232078 
L 445.162761 90.219881 
L 445.881277 93.74113 
L 446.599794 92.662038 
L 447.318311 89.765526 
L 467.436776 88.601242 
L 468.155292 83.461353 
L 468.873809 81.615537 
L 489.710791 75.907705 
L 490.429307 68.865206 
L 491.147824 66.849007 
L 511.266289 60.743614 
L 512.703322 57.761911 
L 533.540304 61.027586 
L 534.25882 65.145176 
L 534.977337 66.053886 
L 555.814319 68.439248 
L 557.251352 61.368352 
L 577.369817 59.749713 
L 578.088334 55.120974 
L 578.80685 51.94049 
L 599.643832 49.043979 
L 600.362349 46.11907 
L 601.080865 44.443636 
L 621.19933 46.630219 
L 621.917847 49.839099 
L 622.636364 49.895894 
L 622.636364 49.895894 
" style="fill:none;stroke:#1f77b4;stroke-linecap:square;stroke-width:1.5;"/>
   </g>
   <g id="patch_3">
    <path d="M 90 252 
L 90 34.56 
" style="fill:none;stroke:#000000;stroke-linecap:square;stroke-linejoin:miter;stroke-width:0.8;"/>
   </g>
   <g id="patch_4">
    <path d="M 648 252 
L 648 34.56 
" style="fill:none;stroke:#000000;stroke-linecap:square;stroke-linejoin:miter;stroke-width:0.8;"/>
   </g>
   <g id="patch_5">
    <path d="M 90 252 
L 648 252 
" style="fill:none;stroke:#000000;stroke-linecap:square;stroke-linejoin:miter;stroke-width:0.8;"/>
   </g>
   <g id="patch_6">
    <path d="M 90 34.56 
L 648 34.56 
" style="fill:none;stroke:#000000;stroke-linecap:square;stroke-linejoin:miter;stroke-width:0.8;"/>
   </g>
   <g id="text_18">
    <!-- MA360 of Midnight Travel Time -->
    <defs>
     <path d="M 9.8125 72.90625 
L 24.515625 72.90625 
L 43.109375 23.296875 
L 61.8125 72.90625 
L 76.515625 72.90625 
L 76.515625 0 
L 66.890625 0 
L 66.890625 64.015625 
L 48.09375 14.015625 
L 38.1875 14.015625 
L 19.390625 64.015625 
L 19.390625 0 
L 9.8125 0 
z
" id="DejaVuSans-77"/>
     <path d="M 34.1875 63.1875 
L 20.796875 26.90625 
L 47.609375 26.90625 
z
M 28.609375 72.90625 
L 39.796875 72.90625 
L 67.578125 0 
L 57.328125 0 
L 50.6875 18.703125 
L 17.828125 18.703125 
L 11.1875 0 
L 0.78125 0 
z
" id="DejaVuSans-65"/>
     <path d="M 40.578125 39.3125 
Q 47.65625 37.796875 51.625 33 
Q 55.609375 28.21875 55.609375 21.1875 
Q 55.609375 10.40625 48.1875 4.484375 
Q 40.765625 -1.421875 27.09375 -1.421875 
Q 22.515625 -1.421875 17.65625 -0.515625 
Q 12.796875 0.390625 7.625 2.203125 
L 7.625 11.71875 
Q 11.71875 9.328125 16.59375 8.109375 
Q 21.484375 6.890625 26.8125 6.890625 
Q 36.078125 6.890625 40.9375 10.546875 
Q 45.796875 14.203125 45.796875 21.1875 
Q 45.796875 27.640625 41.28125 31.265625 
Q 36.765625 34.90625 28.71875 34.90625 
L 20.21875 34.90625 
L 20.21875 43.015625 
L 29.109375 43.015625 
Q 36.375 43.015625 40.234375 45.921875 
Q 44.09375 48.828125 44.09375 54.296875 
Q 44.09375 59.90625 40.109375 62.90625 
Q 36.140625 65.921875 28.71875 65.921875 
Q 24.65625 65.921875 20.015625 65.03125 
Q 15.375 64.15625 9.8125 62.3125 
L 9.8125 71.09375 
Q 15.4375 72.65625 20.34375 73.4375 
Q 25.25 74.21875 29.59375 74.21875 
Q 40.828125 74.21875 47.359375 69.109375 
Q 53.90625 64.015625 53.90625 55.328125 
Q 53.90625 49.265625 50.4375 45.09375 
Q 46.96875 40.921875 40.578125 39.3125 
z
" id="DejaVuSans-51"/>
     <path d="M 33.015625 40.375 
Q 26.375 40.375 22.484375 35.828125 
Q 18.609375 31.296875 18.609375 23.390625 
Q 18.609375 15.53125 22.484375 10.953125 
Q 26.375 6.390625 33.015625 6.390625 
Q 39.65625 6.390625 43.53125 10.953125 
Q 47.40625 15.53125 47.40625 23.390625 
Q 47.40625 31.296875 43.53125 35.828125 
Q 39.65625 40.375 33.015625 40.375 
z
M 52.59375 71.296875 
L 52.59375 62.3125 
Q 48.875 64.0625 45.09375 64.984375 
Q 41.3125 65.921875 37.59375 65.921875 
Q 27.828125 65.921875 22.671875 59.328125 
Q 17.53125 52.734375 16.796875 39.40625 
Q 19.671875 43.65625 24.015625 45.921875 
Q 28.375 48.1875 33.59375 48.1875 
Q 44.578125 48.1875 50.953125 41.515625 
Q 57.328125 34.859375 57.328125 23.390625 
Q 57.328125 12.15625 50.6875 5.359375 
Q 44.046875 -1.421875 33.015625 -1.421875 
Q 20.359375 -1.421875 13.671875 8.265625 
Q 6.984375 17.96875 6.984375 36.375 
Q 6.984375 53.65625 15.1875 63.9375 
Q 23.390625 74.21875 37.203125 74.21875 
Q 40.921875 74.21875 44.703125 73.484375 
Q 48.484375 72.75 52.59375 71.296875 
z
" id="DejaVuSans-54"/>
     <path id="DejaVuSans-32"/>
     <path d="M 30.609375 48.390625 
Q 23.390625 48.390625 19.1875 42.75 
Q 14.984375 37.109375 14.984375 27.296875 
Q 14.984375 17.484375 19.15625 11.84375 
Q 23.34375 6.203125 30.609375 6.203125 
Q 37.796875 6.203125 41.984375 11.859375 
Q 46.1875 17.53125 46.1875 27.296875 
Q 46.1875 37.015625 41.984375 42.703125 
Q 37.796875 48.390625 30.609375 48.390625 
z
M 30.609375 56 
Q 42.328125 56 49.015625 48.375 
Q 55.71875 40.765625 55.71875 27.296875 
Q 55.71875 13.875 49.015625 6.21875 
Q 42.328125 -1.421875 30.609375 -1.421875 
Q 18.84375 -1.421875 12.171875 6.21875 
Q 5.515625 13.875 5.515625 27.296875 
Q 5.515625 40.765625 12.171875 48.375 
Q 18.84375 56 30.609375 56 
z
" id="DejaVuSans-111"/>
     <path d="M 37.109375 75.984375 
L 37.109375 68.5 
L 28.515625 68.5 
Q 23.6875 68.5 21.796875 66.546875 
Q 19.921875 64.59375 19.921875 59.515625 
L 19.921875 54.6875 
L 34.71875 54.6875 
L 34.71875 47.703125 
L 19.921875 47.703125 
L 19.921875 0 
L 10.890625 0 
L 10.890625 47.703125 
L 2.296875 47.703125 
L 2.296875 54.6875 
L 10.890625 54.6875 
L 10.890625 58.5 
Q 10.890625 67.625 15.140625 71.796875 
Q 19.390625 75.984375 28.609375 75.984375 
z
" id="DejaVuSans-102"/>
     <path d="M 9.421875 54.6875 
L 18.40625 54.6875 
L 18.40625 0 
L 9.421875 0 
z
M 9.421875 75.984375 
L 18.40625 75.984375 
L 18.40625 64.59375 
L 9.421875 64.59375 
z
" id="DejaVuSans-105"/>
     <path d="M 45.40625 46.390625 
L 45.40625 75.984375 
L 54.390625 75.984375 
L 54.390625 0 
L 45.40625 0 
L 45.40625 8.203125 
Q 42.578125 3.328125 38.25 0.953125 
Q 33.9375 -1.421875 27.875 -1.421875 
Q 17.96875 -1.421875 11.734375 6.484375 
Q 5.515625 14.40625 5.515625 27.296875 
Q 5.515625 40.1875 11.734375 48.09375 
Q 17.96875 56 27.875 56 
Q 33.9375 56 38.25 53.625 
Q 42.578125 51.265625 45.40625 46.390625 
z
M 14.796875 27.296875 
Q 14.796875 17.390625 18.875 11.75 
Q 22.953125 6.109375 30.078125 6.109375 
Q 37.203125 6.109375 41.296875 11.75 
Q 45.40625 17.390625 45.40625 27.296875 
Q 45.40625 37.203125 41.296875 42.84375 
Q 37.203125 48.484375 30.078125 48.484375 
Q 22.953125 48.484375 18.875 42.84375 
Q 14.796875 37.203125 14.796875 27.296875 
z
" id="DejaVuSans-100"/>
     <path d="M 54.890625 33.015625 
L 54.890625 0 
L 45.90625 0 
L 45.90625 32.71875 
Q 45.90625 40.484375 42.875 44.328125 
Q 39.84375 48.1875 33.796875 48.1875 
Q 26.515625 48.1875 22.3125 43.546875 
Q 18.109375 38.921875 18.109375 30.90625 
L 18.109375 0 
L 9.078125 0 
L 9.078125 54.6875 
L 18.109375 54.6875 
L 18.109375 46.1875 
Q 21.34375 51.125 25.703125 53.5625 
Q 30.078125 56 35.796875 56 
Q 45.21875 56 50.046875 50.171875 
Q 54.890625 44.34375 54.890625 33.015625 
z
" id="DejaVuSans-110"/>
     <path d="M 45.40625 27.984375 
Q 45.40625 37.75 41.375 43.109375 
Q 37.359375 48.484375 30.078125 48.484375 
Q 22.859375 48.484375 18.828125 43.109375 
Q 14.796875 37.75 14.796875 27.984375 
Q 14.796875 18.265625 18.828125 12.890625 
Q 22.859375 7.515625 30.078125 7.515625 
Q 37.359375 7.515625 41.375 12.890625 
Q 45.40625 18.265625 45.40625 27.984375 
z
M 54.390625 6.78125 
Q 54.390625 -7.171875 48.1875 -13.984375 
Q 42 -20.796875 29.203125 -20.796875 
Q 24.46875 -20.796875 20.265625 -20.09375 
Q 16.0625 -19.390625 12.109375 -17.921875 
L 12.109375 -9.1875 
Q 16.0625 -11.328125 19.921875 -12.34375 
Q 23.78125 -13.375 27.78125 -13.375 
Q 36.625 -13.375 41.015625 -8.765625 
Q 45.40625 -4.15625 45.40625 5.171875 
L 45.40625 9.625 
Q 42.625 4.78125 38.28125 2.390625 
Q 33.9375 0 27.875 0 
Q 17.828125 0 11.671875 7.65625 
Q 5.515625 15.328125 5.515625 27.984375 
Q 5.515625 40.671875 11.671875 48.328125 
Q 17.828125 56 27.875 56 
Q 33.9375 56 38.28125 53.609375 
Q 42.625 51.21875 45.40625 46.390625 
L 45.40625 54.6875 
L 54.390625 54.6875 
z
" id="DejaVuSans-103"/>
     <path d="M 54.890625 33.015625 
L 54.890625 0 
L 45.90625 0 
L 45.90625 32.71875 
Q 45.90625 40.484375 42.875 44.328125 
Q 39.84375 48.1875 33.796875 48.1875 
Q 26.515625 48.1875 22.3125 43.546875 
Q 18.109375 38.921875 18.109375 30.90625 
L 18.109375 0 
L 9.078125 0 
L 9.078125 75.984375 
L 18.109375 75.984375 
L 18.109375 46.1875 
Q 21.34375 51.125 25.703125 53.5625 
Q 30.078125 56 35.796875 56 
Q 45.21875 56 50.046875 50.171875 
Q 54.890625 44.34375 54.890625 33.015625 
z
" id="DejaVuSans-104"/>
     <path d="M 18.3125 70.21875 
L 18.3125 54.6875 
L 36.8125 54.6875 
L 36.8125 47.703125 
L 18.3125 47.703125 
L 18.3125 18.015625 
Q 18.3125 11.328125 20.140625 9.421875 
Q 21.96875 7.515625 27.59375 7.515625 
L 36.8125 7.515625 
L 36.8125 0 
L 27.59375 0 
Q 17.1875 0 13.234375 3.875 
Q 9.28125 7.765625 9.28125 18.015625 
L 9.28125 47.703125 
L 2.6875 47.703125 
L 2.6875 54.6875 
L 9.28125 54.6875 
L 9.28125 70.21875 
z
" id="DejaVuSans-116"/>
     <path d="M -0.296875 72.90625 
L 61.375 72.90625 
L 61.375 64.59375 
L 35.5 64.59375 
L 35.5 0 
L 25.59375 0 
L 25.59375 64.59375 
L -0.296875 64.59375 
z
" id="DejaVuSans-84"/>
     <path d="M 41.109375 46.296875 
Q 39.59375 47.171875 37.8125 47.578125 
Q 36.03125 48 33.890625 48 
Q 26.265625 48 22.1875 43.046875 
Q 18.109375 38.09375 18.109375 28.8125 
L 18.109375 0 
L 9.078125 0 
L 9.078125 54.6875 
L 18.109375 54.6875 
L 18.109375 46.1875 
Q 20.953125 51.171875 25.484375 53.578125 
Q 30.03125 56 36.53125 56 
Q 37.453125 56 38.578125 55.875 
Q 39.703125 55.765625 41.0625 55.515625 
z
" id="DejaVuSans-114"/>
     <path d="M 34.28125 27.484375 
Q 23.390625 27.484375 19.1875 25 
Q 14.984375 22.515625 14.984375 16.5 
Q 14.984375 11.71875 18.140625 8.90625 
Q 21.296875 6.109375 26.703125 6.109375 
Q 34.1875 6.109375 38.703125 11.40625 
Q 43.21875 16.703125 43.21875 25.484375 
L 43.21875 27.484375 
z
M 52.203125 31.203125 
L 52.203125 0 
L 43.21875 0 
L 43.21875 8.296875 
Q 40.140625 3.328125 35.546875 0.953125 
Q 30.953125 -1.421875 24.3125 -1.421875 
Q 15.921875 -1.421875 10.953125 3.296875 
Q 6 8.015625 6 15.921875 
Q 6 25.140625 12.171875 29.828125 
Q 18.359375 34.515625 30.609375 34.515625 
L 43.21875 34.515625 
L 43.21875 35.40625 
Q 43.21875 41.609375 39.140625 45 
Q 35.0625 48.390625 27.6875 48.390625 
Q 23 48.390625 18.546875 47.265625 
Q 14.109375 46.140625 10.015625 43.890625 
L 10.015625 52.203125 
Q 14.9375 54.109375 19.578125 55.046875 
Q 24.21875 56 28.609375 56 
Q 40.484375 56 46.34375 49.84375 
Q 52.203125 43.703125 52.203125 31.203125 
z
" id="DejaVuSans-97"/>
     <path d="M 2.984375 54.6875 
L 12.5 54.6875 
L 29.59375 8.796875 
L 46.6875 54.6875 
L 56.203125 54.6875 
L 35.6875 0 
L 23.484375 0 
z
" id="DejaVuSans-118"/>
     <path d="M 56.203125 29.59375 
L 56.203125 25.203125 
L 14.890625 25.203125 
Q 15.484375 15.921875 20.484375 11.0625 
Q 25.484375 6.203125 34.421875 6.203125 
Q 39.59375 6.203125 44.453125 7.46875 
Q 49.3125 8.734375 54.109375 11.28125 
L 54.109375 2.78125 
Q 49.265625 0.734375 44.1875 -0.34375 
Q 39.109375 -1.421875 33.890625 -1.421875 
Q 20.796875 -1.421875 13.15625 6.1875 
Q 5.515625 13.8125 5.515625 26.8125 
Q 5.515625 40.234375 12.765625 48.109375 
Q 20.015625 56 32.328125 56 
Q 43.359375 56 49.78125 48.890625 
Q 56.203125 41.796875 56.203125 29.59375 
z
M 47.21875 32.234375 
Q 47.125 39.59375 43.09375 43.984375 
Q 39.0625 48.390625 32.421875 48.390625 
Q 24.90625 48.390625 20.390625 44.140625 
Q 15.875 39.890625 15.1875 32.171875 
z
" id="DejaVuSans-101"/>
     <path d="M 9.421875 75.984375 
L 18.40625 75.984375 
L 18.40625 0 
L 9.421875 0 
z
" id="DejaVuSans-108"/>
     <path d="M 52 44.1875 
Q 55.375 50.25 60.0625 53.125 
Q 64.75 56 71.09375 56 
Q 79.640625 56 84.28125 50.015625 
Q 88.921875 44.046875 88.921875 33.015625 
L 88.921875 0 
L 79.890625 0 
L 79.890625 32.71875 
Q 79.890625 40.578125 77.09375 44.375 
Q 74.3125 48.1875 68.609375 48.1875 
Q 61.625 48.1875 57.5625 43.546875 
Q 53.515625 38.921875 53.515625 30.90625 
L 53.515625 0 
L 44.484375 0 
L 44.484375 32.71875 
Q 44.484375 40.625 41.703125 44.40625 
Q 38.921875 48.1875 33.109375 48.1875 
Q 26.21875 48.1875 22.15625 43.53125 
Q 18.109375 38.875 18.109375 30.90625 
L 18.109375 0 
L 9.078125 0 
L 9.078125 54.6875 
L 18.109375 54.6875 
L 18.109375 46.1875 
Q 21.1875 51.21875 25.484375 53.609375 
Q 29.78125 56 35.6875 56 
Q 41.65625 56 45.828125 52.96875 
Q 50 49.953125 52 44.1875 
z
" id="DejaVuSans-109"/>
    </defs>
    <g transform="translate(275.199375 28.56)scale(0.12 -0.12)">
     <use xlink:href="#DejaVuSans-77"/>
     <use x="86.279297" xlink:href="#DejaVuSans-65"/>
     <use x="154.6875" xlink:href="#DejaVuSans-51"/>
     <use x="218.310547" xlink:href="#DejaVuSans-54"/>
     <use x="281.933594" xlink:href="#DejaVuSans-48"/>
     <use x="345.556641" xlink:href="#DejaVuSans-32"/>
     <use x="377.34375" xlink:href="#DejaVuSans-111"/>
     <use x="438.525391" xlink:href="#DejaVuSans-102"/>
     <use x="473.730469" xlink:href="#DejaVuSans-32"/>
     <use x="505.517578" xlink:href="#DejaVuSans-77"/>
     <use x="591.796875" xlink:href="#DejaVuSans-105"/>
     <use x="619.580078" xlink:href="#DejaVuSans-100"/>
     <use x="683.056641" xlink:href="#DejaVuSans-110"/>
     <use x="746.435547" xlink:href="#DejaVuSans-105"/>
     <use x="774.21875" xlink:href="#DejaVuSans-103"/>
     <use x="837.695312" xlink:href="#DejaVuSans-104"/>
     <use x="901.074219" xlink:href="#DejaVuSans-116"/>
     <use x="940.283203" xlink:href="#DejaVuSans-32"/>
     <use x="972.070312" xlink:href="#DejaVuSans-84"/>
     <use x="1032.935547" xlink:href="#DejaVuSans-114"/>
     <use x="1074.048828" xlink:href="#DejaVuSans-97"/>
     <use x="1135.328125" xlink:href="#DejaVuSans-118"/>
     <use x="1194.507812" xlink:href="#DejaVuSans-101"/>
     <use x="1256.03125" xlink:href="#DejaVuSans-108"/>
     <use x="1283.814453" xlink:href="#DejaVuSans-32"/>
     <use x="1315.601562" xlink:href="#DejaVuSans-84"/>
     <use x="1376.638672" xlink:href="#DejaVuSans-105"/>
     <use x="1404.421875" xlink:href="#DejaVuSans-109"/>
     <use x="1501.833984" xlink:href="#DejaVuSans-101"/>
    </g>
   </g>
  </g>
 </g>
 <defs>
  <clipPath id="p27fe59294c">
   <rect height="217.44" width="558" x="90" y="34.56"/>
  </clipPath>
 </defs>
</svg>
