<?xml version="1.0" encoding="utf-8" standalone="no"?>
<!DOCTYPE svg PUBLIC "-//W3C//DTD SVG 1.1//EN"
  "http://www.w3.org/Graphics/SVG/1.1/DTD/svg11.dtd">
<!-- Created with matplotlib (https://matplotlib.org/) -->
<svg height="288pt" version="1.1" viewBox="0 0 720 288" width="720pt" xmlns="http://www.w3.org/2000/svg" xmlns:xlink="http://www.w3.org/1999/xlink">
 <defs>
  <style type="text/css">
*{stroke-linecap:butt;stroke-linejoin:round;}
  </style>
 </defs>
 <g id="figure_1">
  <g id="patch_1">
   <path d="M 0 288 
L 720 288 
L 720 0 
L 0 0 
z
" style="fill:#ffffff;"/>
  </g>
  <g id="axes_1">
   <g id="patch_2">
    <path d="M 90 252 
L 648 252 
L 648 34.56 
L 90 34.56 
z
" style="fill:#ffffff;"/>
   </g>
   <g id="matplotlib.axis_1">
    <g id="xtick_1">
     <g id="line2d_1">
      <defs>
       <path d="M 0 0 
L 0 3.5 
" id="mdd631ed78e" style="stroke:#000000;stroke-width:0.8;"/>
      </defs>
      <g>
       <use style="stroke:#000000;stroke-width:0.8;" x="118.956219" xlink:href="#mdd631ed78e" y="252"/>
      </g>
     </g>
     <g id="text_1">
      <!-- 2017-01 -->
      <defs>
       <path d="M 19.1875 8.296875 
L 53.609375 8.296875 
L 53.609375 0 
L 7.328125 0 
L 7.328125 8.296875 
Q 12.9375 14.109375 22.625 23.890625 
Q 32.328125 33.6875 34.8125 36.53125 
Q 39.546875 41.84375 41.421875 45.53125 
Q 43.3125 49.21875 43.3125 52.78125 
Q 43.3125 58.59375 39.234375 62.25 
Q 35.15625 65.921875 28.609375 65.921875 
Q 23.96875 65.921875 18.8125 64.3125 
Q 13.671875 62.703125 7.8125 59.421875 
L 7.8125 69.390625 
Q 13.765625 71.78125 18.9375 73 
Q 24.125 74.21875 28.421875 74.21875 
Q 39.75 74.21875 46.484375 68.546875 
Q 53.21875 62.890625 53.21875 53.421875 
Q 53.21875 48.921875 51.53125 44.890625 
Q 49.859375 40.875 45.40625 35.40625 
Q 44.1875 33.984375 37.640625 27.21875 
Q 31.109375 20.453125 19.1875 8.296875 
z
" id="DejaVuSans-50"/>
       <path d="M 31.78125 66.40625 
Q 24.171875 66.40625 20.328125 58.90625 
Q 16.5 51.421875 16.5 36.375 
Q 16.5 21.390625 20.328125 13.890625 
Q 24.171875 6.390625 31.78125 6.390625 
Q 39.453125 6.390625 43.28125 13.890625 
Q 47.125 21.390625 47.125 36.375 
Q 47.125 51.421875 43.28125 58.90625 
Q 39.453125 66.40625 31.78125 66.40625 
z
M 31.78125 74.21875 
Q 44.046875 74.21875 50.515625 64.515625 
Q 56.984375 54.828125 56.984375 36.375 
Q 56.984375 17.96875 50.515625 8.265625 
Q 44.046875 -1.421875 31.78125 -1.421875 
Q 19.53125 -1.421875 13.0625 8.265625 
Q 6.59375 17.96875 6.59375 36.375 
Q 6.59375 54.828125 13.0625 64.515625 
Q 19.53125 74.21875 31.78125 74.21875 
z
" id="DejaVuSans-48"/>
       <path d="M 12.40625 8.296875 
L 28.515625 8.296875 
L 28.515625 63.921875 
L 10.984375 60.40625 
L 10.984375 69.390625 
L 28.421875 72.90625 
L 38.28125 72.90625 
L 38.28125 8.296875 
L 54.390625 8.296875 
L 54.390625 0 
L 12.40625 0 
z
" id="DejaVuSans-49"/>
       <path d="M 8.203125 72.90625 
L 55.078125 72.90625 
L 55.078125 68.703125 
L 28.609375 0 
L 18.3125 0 
L 43.21875 64.59375 
L 8.203125 64.59375 
z
" id="DejaVuSans-55"/>
       <path d="M 4.890625 31.390625 
L 31.203125 31.390625 
L 31.203125 23.390625 
L 4.890625 23.390625 
z
" id="DejaVuSans-45"/>
      </defs>
      <g transform="translate(98.064813 266.598437)scale(0.1 -0.1)">
       <use xlink:href="#DejaVuSans-50"/>
       <use x="63.623047" xlink:href="#DejaVuSans-48"/>
       <use x="127.246094" xlink:href="#DejaVuSans-49"/>
       <use x="190.869141" xlink:href="#DejaVuSans-55"/>
       <use x="254.492188" xlink:href="#DejaVuSans-45"/>
       <use x="290.576172" xlink:href="#DejaVuSans-48"/>
       <use x="354.199219" xlink:href="#DejaVuSans-49"/>
      </g>
     </g>
    </g>
    <g id="xtick_2">
     <g id="line2d_2">
      <g>
       <use style="stroke:#000000;stroke-width:0.8;" x="183.622714" xlink:href="#mdd631ed78e" y="252"/>
      </g>
     </g>
     <g id="text_2">
      <!-- 2017-04 -->
      <defs>
       <path d="M 37.796875 64.3125 
L 12.890625 25.390625 
L 37.796875 25.390625 
z
M 35.203125 72.90625 
L 47.609375 72.90625 
L 47.609375 25.390625 
L 58.015625 25.390625 
L 58.015625 17.1875 
L 47.609375 17.1875 
L 47.609375 0 
L 37.796875 0 
L 37.796875 17.1875 
L 4.890625 17.1875 
L 4.890625 26.703125 
z
" id="DejaVuSans-52"/>
      </defs>
      <g transform="translate(162.731308 266.598437)scale(0.1 -0.1)">
       <use xlink:href="#DejaVuSans-50"/>
       <use x="63.623047" xlink:href="#DejaVuSans-48"/>
       <use x="127.246094" xlink:href="#DejaVuSans-49"/>
       <use x="190.869141" xlink:href="#DejaVuSans-55"/>
       <use x="254.492188" xlink:href="#DejaVuSans-45"/>
       <use x="290.576172" xlink:href="#DejaVuSans-48"/>
       <use x="354.199219" xlink:href="#DejaVuSans-52"/>
      </g>
     </g>
    </g>
    <g id="xtick_3">
     <g id="line2d_3">
      <g>
       <use style="stroke:#000000;stroke-width:0.8;" x="249.007726" xlink:href="#mdd631ed78e" y="252"/>
      </g>
     </g>
     <g id="text_3">
      <!-- 2017-07 -->
      <g transform="translate(228.11632 266.598437)scale(0.1 -0.1)">
       <use xlink:href="#DejaVuSans-50"/>
       <use x="63.623047" xlink:href="#DejaVuSans-48"/>
       <use x="127.246094" xlink:href="#DejaVuSans-49"/>
       <use x="190.869141" xlink:href="#DejaVuSans-55"/>
       <use x="254.492188" xlink:href="#DejaVuSans-45"/>
       <use x="290.576172" xlink:href="#DejaVuSans-48"/>
       <use x="354.199219" xlink:href="#DejaVuSans-55"/>
      </g>
     </g>
    </g>
    <g id="xtick_4">
     <g id="line2d_4">
      <g>
       <use style="stroke:#000000;stroke-width:0.8;" x="315.111254" xlink:href="#mdd631ed78e" y="252"/>
      </g>
     </g>
     <g id="text_4">
      <!-- 2017-10 -->
      <g transform="translate(294.219848 266.598437)scale(0.1 -0.1)">
       <use xlink:href="#DejaVuSans-50"/>
       <use x="63.623047" xlink:href="#DejaVuSans-48"/>
       <use x="127.246094" xlink:href="#DejaVuSans-49"/>
       <use x="190.869141" xlink:href="#DejaVuSans-55"/>
       <use x="254.492188" xlink:href="#DejaVuSans-45"/>
       <use x="290.576172" xlink:href="#DejaVuSans-49"/>
       <use x="354.199219" xlink:href="#DejaVuSans-48"/>
      </g>
     </g>
    </g>
    <g id="xtick_5">
     <g id="line2d_5">
      <g>
       <use style="stroke:#000000;stroke-width:0.8;" x="381.214782" xlink:href="#mdd631ed78e" y="252"/>
      </g>
     </g>
     <g id="text_5">
      <!-- 2018-01 -->
      <defs>
       <path d="M 31.78125 34.625 
Q 24.75 34.625 20.71875 30.859375 
Q 16.703125 27.09375 16.703125 20.515625 
Q 16.703125 13.921875 20.71875 10.15625 
Q 24.75 6.390625 31.78125 6.390625 
Q 38.8125 6.390625 42.859375 10.171875 
Q 46.921875 13.96875 46.921875 20.515625 
Q 46.921875 27.09375 42.890625 30.859375 
Q 38.875 34.625 31.78125 34.625 
z
M 21.921875 38.8125 
Q 15.578125 40.375 12.03125 44.71875 
Q 8.5 49.078125 8.5 55.328125 
Q 8.5 64.0625 14.71875 69.140625 
Q 20.953125 74.21875 31.78125 74.21875 
Q 42.671875 74.21875 48.875 69.140625 
Q 55.078125 64.0625 55.078125 55.328125 
Q 55.078125 49.078125 51.53125 44.71875 
Q 48 40.375 41.703125 38.8125 
Q 48.828125 37.15625 52.796875 32.3125 
Q 56.78125 27.484375 56.78125 20.515625 
Q 56.78125 9.90625 50.3125 4.234375 
Q 43.84375 -1.421875 31.78125 -1.421875 
Q 19.734375 -1.421875 13.25 4.234375 
Q 6.78125 9.90625 6.78125 20.515625 
Q 6.78125 27.484375 10.78125 32.3125 
Q 14.796875 37.15625 21.921875 38.8125 
z
M 18.3125 54.390625 
Q 18.3125 48.734375 21.84375 45.5625 
Q 25.390625 42.390625 31.78125 42.390625 
Q 38.140625 42.390625 41.71875 45.5625 
Q 45.3125 48.734375 45.3125 54.390625 
Q 45.3125 60.0625 41.71875 63.234375 
Q 38.140625 66.40625 31.78125 66.40625 
Q 25.390625 66.40625 21.84375 63.234375 
Q 18.3125 60.0625 18.3125 54.390625 
z
" id="DejaVuSans-56"/>
      </defs>
      <g transform="translate(360.323376 266.598437)scale(0.1 -0.1)">
       <use xlink:href="#DejaVuSans-50"/>
       <use x="63.623047" xlink:href="#DejaVuSans-48"/>
       <use x="127.246094" xlink:href="#DejaVuSans-49"/>
       <use x="190.869141" xlink:href="#DejaVuSans-56"/>
       <use x="254.492188" xlink:href="#DejaVuSans-45"/>
       <use x="290.576172" xlink:href="#DejaVuSans-48"/>
       <use x="354.199219" xlink:href="#DejaVuSans-49"/>
      </g>
     </g>
    </g>
    <g id="xtick_6">
     <g id="line2d_6">
      <g>
       <use style="stroke:#000000;stroke-width:0.8;" x="445.881277" xlink:href="#mdd631ed78e" y="252"/>
      </g>
     </g>
     <g id="text_6">
      <!-- 2018-04 -->
      <g transform="translate(424.989871 266.598437)scale(0.1 -0.1)">
       <use xlink:href="#DejaVuSans-50"/>
       <use x="63.623047" xlink:href="#DejaVuSans-48"/>
       <use x="127.246094" xlink:href="#DejaVuSans-49"/>
       <use x="190.869141" xlink:href="#DejaVuSans-56"/>
       <use x="254.492188" xlink:href="#DejaVuSans-45"/>
       <use x="290.576172" xlink:href="#DejaVuSans-48"/>
       <use x="354.199219" xlink:href="#DejaVuSans-52"/>
      </g>
     </g>
    </g>
    <g id="xtick_7">
     <g id="line2d_7">
      <g>
       <use style="stroke:#000000;stroke-width:0.8;" x="511.266289" xlink:href="#mdd631ed78e" y="252"/>
      </g>
     </g>
     <g id="text_7">
      <!-- 2018-07 -->
      <g transform="translate(490.374883 266.598437)scale(0.1 -0.1)">
       <use xlink:href="#DejaVuSans-50"/>
       <use x="63.623047" xlink:href="#DejaVuSans-48"/>
       <use x="127.246094" xlink:href="#DejaVuSans-49"/>
       <use x="190.869141" xlink:href="#DejaVuSans-56"/>
       <use x="254.492188" xlink:href="#DejaVuSans-45"/>
       <use x="290.576172" xlink:href="#DejaVuSans-48"/>
       <use x="354.199219" xlink:href="#DejaVuSans-55"/>
      </g>
     </g>
    </g>
    <g id="xtick_8">
     <g id="line2d_8">
      <g>
       <use style="stroke:#000000;stroke-width:0.8;" x="577.369817" xlink:href="#mdd631ed78e" y="252"/>
      </g>
     </g>
     <g id="text_8">
      <!-- 2018-10 -->
      <g transform="translate(556.478411 266.598437)scale(0.1 -0.1)">
       <use xlink:href="#DejaVuSans-50"/>
       <use x="63.623047" xlink:href="#DejaVuSans-48"/>
       <use x="127.246094" xlink:href="#DejaVuSans-49"/>
       <use x="190.869141" xlink:href="#DejaVuSans-56"/>
       <use x="254.492188" xlink:href="#DejaVuSans-45"/>
       <use x="290.576172" xlink:href="#DejaVuSans-49"/>
       <use x="354.199219" xlink:href="#DejaVuSans-48"/>
      </g>
     </g>
    </g>
    <g id="xtick_9">
     <g id="line2d_9">
      <g>
       <use style="stroke:#000000;stroke-width:0.8;" x="643.473345" xlink:href="#mdd631ed78e" y="252"/>
      </g>
     </g>
     <g id="text_9">
      <!-- 2019-01 -->
      <defs>
       <path d="M 10.984375 1.515625 
L 10.984375 10.5 
Q 14.703125 8.734375 18.5 7.8125 
Q 22.3125 6.890625 25.984375 6.890625 
Q 35.75 6.890625 40.890625 13.453125 
Q 46.046875 20.015625 46.78125 33.40625 
Q 43.953125 29.203125 39.59375 26.953125 
Q 35.25 24.703125 29.984375 24.703125 
Q 19.046875 24.703125 12.671875 31.3125 
Q 6.296875 37.9375 6.296875 49.421875 
Q 6.296875 60.640625 12.9375 67.421875 
Q 19.578125 74.21875 30.609375 74.21875 
Q 43.265625 74.21875 49.921875 64.515625 
Q 56.59375 54.828125 56.59375 36.375 
Q 56.59375 19.140625 48.40625 8.859375 
Q 40.234375 -1.421875 26.421875 -1.421875 
Q 22.703125 -1.421875 18.890625 -0.6875 
Q 15.09375 0.046875 10.984375 1.515625 
z
M 30.609375 32.421875 
Q 37.25 32.421875 41.125 36.953125 
Q 45.015625 41.5 45.015625 49.421875 
Q 45.015625 57.28125 41.125 61.84375 
Q 37.25 66.40625 30.609375 66.40625 
Q 23.96875 66.40625 20.09375 61.84375 
Q 16.21875 57.28125 16.21875 49.421875 
Q 16.21875 41.5 20.09375 36.953125 
Q 23.96875 32.421875 30.609375 32.421875 
z
" id="DejaVuSans-57"/>
      </defs>
      <g transform="translate(622.581939 266.598437)scale(0.1 -0.1)">
       <use xlink:href="#DejaVuSans-50"/>
       <use x="63.623047" xlink:href="#DejaVuSans-48"/>
       <use x="127.246094" xlink:href="#DejaVuSans-49"/>
       <use x="190.869141" xlink:href="#DejaVuSans-57"/>
       <use x="254.492188" xlink:href="#DejaVuSans-45"/>
       <use x="290.576172" xlink:href="#DejaVuSans-48"/>
       <use x="354.199219" xlink:href="#DejaVuSans-49"/>
      </g>
     </g>
    </g>
   </g>
   <g id="matplotlib.axis_2">
    <g id="ytick_1">
     <g id="line2d_10">
      <defs>
       <path d="M 0 0 
L -3.5 0 
" id="m58d58f2a01" style="stroke:#000000;stroke-width:0.8;"/>
      </defs>
      <g>
       <use style="stroke:#000000;stroke-width:0.8;" x="90" xlink:href="#m58d58f2a01" y="248.619232"/>
      </g>
     </g>
     <g id="text_10">
      <!-- 2640 -->
      <defs>
       <path d="M 33.015625 40.375 
Q 26.375 40.375 22.484375 35.828125 
Q 18.609375 31.296875 18.609375 23.390625 
Q 18.609375 15.53125 22.484375 10.953125 
Q 26.375 6.390625 33.015625 6.390625 
Q 39.65625 6.390625 43.53125 10.953125 
Q 47.40625 15.53125 47.40625 23.390625 
Q 47.40625 31.296875 43.53125 35.828125 
Q 39.65625 40.375 33.015625 40.375 
z
M 52.59375 71.296875 
L 52.59375 62.3125 
Q 48.875 64.0625 45.09375 64.984375 
Q 41.3125 65.921875 37.59375 65.921875 
Q 27.828125 65.921875 22.671875 59.328125 
Q 17.53125 52.734375 16.796875 39.40625 
Q 19.671875 43.65625 24.015625 45.921875 
Q 28.375 48.1875 33.59375 48.1875 
Q 44.578125 48.1875 50.953125 41.515625 
Q 57.328125 34.859375 57.328125 23.390625 
Q 57.328125 12.15625 50.6875 5.359375 
Q 44.046875 -1.421875 33.015625 -1.421875 
Q 20.359375 -1.421875 13.671875 8.265625 
Q 6.984375 17.96875 6.984375 36.375 
Q 6.984375 53.65625 15.1875 63.9375 
Q 23.390625 74.21875 37.203125 74.21875 
Q 40.921875 74.21875 44.703125 73.484375 
Q 48.484375 72.75 52.59375 71.296875 
z
" id="DejaVuSans-54"/>
      </defs>
      <g transform="translate(57.55 252.418451)scale(0.1 -0.1)">
       <use xlink:href="#DejaVuSans-50"/>
       <use x="63.623047" xlink:href="#DejaVuSans-54"/>
       <use x="127.246094" xlink:href="#DejaVuSans-52"/>
       <use x="190.869141" xlink:href="#DejaVuSans-48"/>
      </g>
     </g>
    </g>
    <g id="ytick_2">
     <g id="line2d_11">
      <g>
       <use style="stroke:#000000;stroke-width:0.8;" x="90" xlink:href="#m58d58f2a01" y="216.059669"/>
      </g>
     </g>
     <g id="text_11">
      <!-- 2650 -->
      <defs>
       <path d="M 10.796875 72.90625 
L 49.515625 72.90625 
L 49.515625 64.59375 
L 19.828125 64.59375 
L 19.828125 46.734375 
Q 21.96875 47.46875 24.109375 47.828125 
Q 26.265625 48.1875 28.421875 48.1875 
Q 40.625 48.1875 47.75 41.5 
Q 54.890625 34.8125 54.890625 23.390625 
Q 54.890625 11.625 47.5625 5.09375 
Q 40.234375 -1.421875 26.90625 -1.421875 
Q 22.3125 -1.421875 17.546875 -0.640625 
Q 12.796875 0.140625 7.71875 1.703125 
L 7.71875 11.625 
Q 12.109375 9.234375 16.796875 8.0625 
Q 21.484375 6.890625 26.703125 6.890625 
Q 35.15625 6.890625 40.078125 11.328125 
Q 45.015625 15.765625 45.015625 23.390625 
Q 45.015625 31 40.078125 35.4375 
Q 35.15625 39.890625 26.703125 39.890625 
Q 22.75 39.890625 18.8125 39.015625 
Q 14.890625 38.140625 10.796875 36.28125 
z
" id="DejaVuSans-53"/>
      </defs>
      <g transform="translate(57.55 219.858887)scale(0.1 -0.1)">
       <use xlink:href="#DejaVuSans-50"/>
       <use x="63.623047" xlink:href="#DejaVuSans-54"/>
       <use x="127.246094" xlink:href="#DejaVuSans-53"/>
       <use x="190.869141" xlink:href="#DejaVuSans-48"/>
      </g>
     </g>
    </g>
    <g id="ytick_3">
     <g id="line2d_12">
      <g>
       <use style="stroke:#000000;stroke-width:0.8;" x="90" xlink:href="#m58d58f2a01" y="183.500105"/>
      </g>
     </g>
     <g id="text_12">
      <!-- 2660 -->
      <g transform="translate(57.55 187.299324)scale(0.1 -0.1)">
       <use xlink:href="#DejaVuSans-50"/>
       <use x="63.623047" xlink:href="#DejaVuSans-54"/>
       <use x="127.246094" xlink:href="#DejaVuSans-54"/>
       <use x="190.869141" xlink:href="#DejaVuSans-48"/>
      </g>
     </g>
    </g>
    <g id="ytick_4">
     <g id="line2d_13">
      <g>
       <use style="stroke:#000000;stroke-width:0.8;" x="90" xlink:href="#m58d58f2a01" y="150.940542"/>
      </g>
     </g>
     <g id="text_13">
      <!-- 2670 -->
      <g transform="translate(57.55 154.73976)scale(0.1 -0.1)">
       <use xlink:href="#DejaVuSans-50"/>
       <use x="63.623047" xlink:href="#DejaVuSans-54"/>
       <use x="127.246094" xlink:href="#DejaVuSans-55"/>
       <use x="190.869141" xlink:href="#DejaVuSans-48"/>
      </g>
     </g>
    </g>
    <g id="ytick_5">
     <g id="line2d_14">
      <g>
       <use style="stroke:#000000;stroke-width:0.8;" x="90" xlink:href="#m58d58f2a01" y="118.380978"/>
      </g>
     </g>
     <g id="text_14">
      <!-- 2680 -->
      <g transform="translate(57.55 122.180197)scale(0.1 -0.1)">
       <use xlink:href="#DejaVuSans-50"/>
       <use x="63.623047" xlink:href="#DejaVuSans-54"/>
       <use x="127.246094" xlink:href="#DejaVuSans-56"/>
       <use x="190.869141" xlink:href="#DejaVuSans-48"/>
      </g>
     </g>
    </g>
    <g id="ytick_6">
     <g id="line2d_15">
      <g>
       <use style="stroke:#000000;stroke-width:0.8;" x="90" xlink:href="#m58d58f2a01" y="85.821415"/>
      </g>
     </g>
     <g id="text_15">
      <!-- 2690 -->
      <g transform="translate(57.55 89.620634)scale(0.1 -0.1)">
       <use xlink:href="#DejaVuSans-50"/>
       <use x="63.623047" xlink:href="#DejaVuSans-54"/>
       <use x="127.246094" xlink:href="#DejaVuSans-57"/>
       <use x="190.869141" xlink:href="#DejaVuSans-48"/>
      </g>
     </g>
    </g>
    <g id="ytick_7">
     <g id="line2d_16">
      <g>
       <use style="stroke:#000000;stroke-width:0.8;" x="90" xlink:href="#m58d58f2a01" y="53.261851"/>
      </g>
     </g>
     <g id="text_16">
      <!-- 2700 -->
      <g transform="translate(57.55 57.06107)scale(0.1 -0.1)">
       <use xlink:href="#DejaVuSans-50"/>
       <use x="63.623047" xlink:href="#DejaVuSans-55"/>
       <use x="127.246094" xlink:href="#DejaVuSans-48"/>
       <use x="190.869141" xlink:href="#DejaVuSans-48"/>
      </g>
     </g>
    </g>
   </g>
   <g id="line2d_17">
    <path clip-path="url(#pc12f3afa25)" d="M 115.363636 46.686629 
L 116.082153 44.443636 
L 117.519186 55.01645 
L 118.237703 59.312504 
L 118.956219 58.905509 
L 119.674736 68.230206 
L 120.393253 63.608557 
L 121.111769 68.429181 
L 121.830286 78.658311 
L 122.548802 80.919392 
L 123.267319 73.087008 
L 123.985836 83.55129 
L 124.704352 90.307399 
L 125.422869 92.577524 
L 126.141386 93.852774 
L 126.859902 95.571195 
L 127.578419 83.732176 
L 128.296935 85.468686 
L 129.015452 96.186209 
L 129.733969 110.1416 
L 130.452485 112.357459 
L 131.171002 111.172653 
L 132.608035 98.329714 
L 133.326552 96.339963 
L 134.045068 93.445779 
L 134.763585 102.001709 
L 135.482101 102.417748 
L 136.200618 100.617928 
L 136.919135 94.612497 
L 137.637651 95.625461 
L 138.356168 91.853978 
L 139.793201 100.409908 
L 140.511718 87.901609 
L 141.230234 83.460847 
L 141.948751 85.477731 
L 142.667268 78.459336 
L 143.385784 81.525361 
L 144.104301 78.757798 
L 144.822817 66.837381 
L 145.541334 72.083088 
L 146.259851 82.384572 
L 146.978367 79.282369 
L 147.696884 75.293823 
L 148.4154 92.17053 
L 149.133917 89.050238 
L 149.852434 98.944728 
L 150.57095 97.280572 
L 151.289467 96.909755 
L 152.007984 91.492206 
L 152.7265 81.136455 
L 153.445017 83.289004 
L 154.88205 98.221182 
L 155.600567 94.440655 
L 156.319083 93.852774 
L 157.0376 88.69751 
L 157.756116 81.08219 
L 158.474633 84.446678 
L 159.19315 84.509988 
L 159.911666 93.689976 
L 160.630183 94.494921 
L 161.348699 87.196152 
L 162.067216 83.397536 
L 162.785733 83.234738 
L 163.504249 75.221468 
L 164.222766 73.512091 
L 164.941283 68.212118 
L 165.659799 74.000484 
L 166.378316 77.319751 
L 167.096832 70.690262 
L 167.815349 69.125594 
L 168.533866 63.997463 
L 169.252382 68.32065 
L 169.970899 77.374017 
L 170.689415 82.040888 
L 171.407932 80.729461 
L 172.126449 74.027617 
L 172.844965 64.522034 
L 173.563482 67.235331 
L 175.000515 84.74514 
L 175.719032 79.797896 
L 177.156065 65.544042 
L 177.874582 56.454498 
L 178.593098 61.383654 
L 179.311615 67.859389 
L 180.030131 78.377937 
L 180.748648 77.482549 
L 182.185681 102.354438 
L 182.904198 107.609189 
L 183.622714 112.00473 
L 184.341231 109.834093 
L 185.059748 105.917901 
L 185.778264 109.843137 
L 186.496781 116.110853 
L 187.215297 106.415339 
L 187.933814 115.360174 
L 188.652331 116.011366 
L 189.370847 111.60678 
L 190.089364 105.637527 
L 190.807881 98.139783 
L 191.526397 101.866044 
L 192.96343 92.658923 
L 195.11898 114.2839 
L 195.837497 110.042112 
L 196.556013 103.810574 
L 197.993047 87.404171 
L 198.711563 86.75298 
L 199.43008 90.976679 
L 200.148596 97.389104 
L 202.304146 83.795486 
L 203.022663 86.436429 
L 203.74118 86.427385 
L 204.459696 87.729767 
L 205.178213 93.84373 
L 205.896729 91.736402 
L 206.615246 93.210627 
L 207.333763 98.230226 
L 208.052279 101.450005 
L 208.770796 94.503965 
L 209.489312 94.494921 
L 210.207829 89.755695 
L 210.926346 98.248315 
L 211.644862 95.227511 
L 212.363379 89.782828 
L 213.081895 96.837401 
L 213.800412 92.206707 
L 214.518929 95.824436 
L 215.237445 102.58959 
L 215.955962 101.024922 
L 216.674478 103.376446 
L 217.392995 101.079188 
L 218.111512 93.5724 
L 218.830028 94.865738 
L 219.548545 101.350518 
L 220.267062 99.659229 
L 220.985578 100.554617 
L 221.704095 98.790974 
L 222.422611 96.665558 
L 223.141128 90.56064 
L 223.859645 91.664048 
L 224.578161 96.674603 
L 225.296678 108.522666 
L 226.015194 105.194355 
L 226.733711 97.533813 
L 227.452228 100.382775 
L 228.170744 96.728869 
L 228.889261 96.819312 
L 229.607777 90.696305 
L 230.326294 88.290515 
L 231.044811 99.921515 
L 231.763327 101.278163 
L 232.481844 96.656514 
L 233.200361 105.149134 
L 233.918877 100.409908 
L 235.35591 98.456334 
L 236.074427 99.623052 
L 236.792944 99.216058 
L 237.51146 96.611292 
L 238.229977 89.393923 
L 238.948493 93.518134 
L 241.104043 122.894096 
L 241.82256 128.546798 
L 243.259593 114.519052 
L 243.97811 118.326712 
L 244.696626 129.614028 
L 245.415143 144.392452 
L 246.13366 155.399393 
L 246.852176 154.567315 
L 247.570693 149.267342 
L 248.289209 145.088865 
L 249.007726 147.765984 
L 249.726243 147.964959 
L 250.444759 147.711718 
L 251.163276 145.513948 
L 251.881792 138.595041 
L 252.600309 150.551636 
L 253.318826 149.819046 
L 254.037342 153.273977 
L 254.755859 151.935417 
L 255.474375 145.875721 
L 256.192892 153.717149 
L 256.911409 153.735238 
L 258.348442 138.00716 
L 259.066959 142.94536 
L 259.785475 151.555556 
L 260.503992 163.313176 
L 261.222508 165.366237 
L 261.941025 169.011099 
L 262.659542 165.583301 
L 263.378058 154.965266 
L 264.096575 157.949892 
L 264.815091 168.124756 
L 265.533608 181.003872 
L 266.252125 182.749426 
L 266.970641 194.633667 
L 267.689158 183.400618 
L 268.407674 176.508843 
L 269.126191 180.822985 
L 270.563224 198.079554 
L 271.281741 191.495287 
L 272.000258 195.293903 
L 272.718774 196.343044 
L 273.437291 194.118141 
L 274.155807 200.60292 
L 274.874324 202.809735 
L 275.592841 194.235717 
L 276.311357 202.466051 
L 277.029874 202.122367 
L 277.74839 196.677684 
L 278.466907 195.39339 
L 279.185424 187.50674 
L 279.90394 190.192904 
L 280.622457 204.528157 
L 281.340973 213.97043 
L 282.05949 220.699406 
L 283.496523 199.626133 
L 284.21504 201.136535 
L 284.933557 210.569764 
L 285.652073 222.291207 
L 286.37059 222.870044 
L 287.089106 223.910141 
L 287.807623 217.425361 
L 288.52614 205.161259 
L 289.244656 218.157952 
L 289.963173 228.079574 
L 290.681689 242.116364 
L 291.400206 230.684339 
L 292.118723 230.675295 
L 292.837239 228.947829 
L 293.555756 219.062384 
L 294.274272 213.102175 
L 294.992789 212.604737 
L 295.711306 206.970124 
L 296.429822 218.537813 
L 297.148339 211.944502 
L 297.866856 213.916164 
L 298.585372 222.734379 
L 299.303889 214.621621 
L 300.022405 213.472992 
L 300.740922 206.165179 
L 301.459439 201.489264 
L 302.177955 200.621009 
L 302.896472 187.262544 
L 303.614988 189.840176 
L 304.333505 187.877558 
L 305.052022 192.996644 
L 305.770538 202.248987 
L 306.489055 197.220343 
L 307.207571 196.171202 
L 307.926088 187.606228 
L 308.644605 192.128389 
L 309.363121 194.32616 
L 310.081638 198.748834 
L 310.800155 208.09162 
L 311.518671 194.678889 
L 312.237188 184.657779 
L 312.955704 181.772639 
L 313.674221 179.357805 
L 314.392738 171.597776 
L 315.111254 178.344841 
L 315.829771 175.830519 
L 316.548287 166.406334 
L 317.266804 169.246252 
L 317.985321 166.415379 
L 318.703837 161.567621 
L 319.422354 165.755143 
L 320.14087 159.568826 
L 320.859387 154.684892 
L 321.577904 159.469338 
L 322.29642 150.95863 
L 323.014937 150.198907 
L 323.733454 160.292372 
L 324.45197 159.650225 
L 325.170487 167.772027 
L 325.889003 173.180532 
L 326.60752 172.900158 
L 327.326037 167.419299 
L 328.044553 163.693037 
L 328.76307 168.712637 
L 330.200103 186.231491 
L 330.91862 197.030413 
L 331.637136 194.371382 
L 332.355653 184.09703 
L 333.074169 172.104258 
L 333.792686 162.327345 
L 334.511203 165.890808 
L 335.948236 183.192598 
L 336.666753 185.752142 
L 337.385269 183.771435 
L 338.103786 176.861572 
L 338.822302 183.482017 
L 339.540819 193.331284 
L 340.977852 181.736462 
L 341.696369 188.836256 
L 343.133402 172.728316 
L 344.570435 157.307745 
L 345.288952 163.937234 
L 346.007468 156.131983 
L 346.725985 155.734033 
L 347.444502 151.691221 
L 348.163018 142.013795 
L 348.881535 142.782562 
L 349.600052 144.68187 
L 350.318568 152.089171 
L 351.037085 162.399699 
L 351.755601 156.882662 
L 353.192635 136.686688 
L 353.911151 132.743364 
L 354.629668 131.766577 
L 355.348184 141.009875 
L 356.066701 153.192578 
L 356.785218 150.651123 
L 357.503734 144.021635 
L 358.222251 143.478975 
L 358.940767 135.773212 
L 359.659284 126.095786 
L 360.377801 135.764167 
L 361.096317 142.61072 
L 361.814834 145.134086 
L 362.533351 143.605596 
L 363.251867 135.66468 
L 363.970384 135.72799 
L 364.6889 142.375568 
L 366.125934 143.901797 
L 366.84445 153.416425 
L 367.562967 147.094443 
L 368.281483 139.316325 
L 369 143.947019 
L 369.718517 143.006409 
L 370.437033 147.157754 
L 371.15555 153.669666 
L 371.874066 145.629263 
L 372.592583 143.937975 
L 373.3111 128.879176 
L 374.748133 111.848716 
L 375.466649 110.537289 
L 376.903683 116.3347 
L 377.622199 108.737469 
L 378.340716 98.264142 
L 379.059233 100.127273 
L 379.777749 100.877952 
L 380.496266 99.928298 
L 381.214782 100.624711 
L 381.933299 107.055225 
L 382.651816 97.947591 
L 389.836982 94.664502 
L 390.555498 104.956942 
L 391.274015 106.847205 
L 391.992532 106.503521 
L 392.711048 114.426348 
L 393.429565 116.687429 
L 394.148081 106.892427 
L 394.866598 94.438394 
L 395.585115 99.457993 
L 396.303631 110.79053 
L 397.022148 114.480614 
L 397.740664 115.366958 
L 398.459181 118.125476 
L 399.177698 125.089605 
L 399.896214 127.02509 
L 401.333247 149.102283 
L 402.051764 145.385066 
L 402.770281 136.060369 
L 403.488797 133.229496 
L 404.207314 121.336211 
L 404.925831 115.376002 
L 412.110997 124.212306 
L 412.829513 132.623526 
L 413.54803 134.5771 
L 414.266546 136.928624 
L 414.985063 137.570771 
L 415.70358 136.422142 
L 416.422096 147.537615 
L 417.140613 143.087808 
L 417.85913 133.247585 
L 418.577646 131.818581 
L 419.296163 129.195728 
L 420.014679 122.991322 
L 420.733196 132.912945 
L 421.451713 132.50595 
L 422.170229 134.459524 
L 422.888746 134.993139 
L 423.607262 134.468568 
L 424.325779 127.56775 
L 425.044296 132.306975 
L 432.229462 135.065493 
L 432.947978 127.269287 
L 433.666495 130.697085 
L 434.385012 133.003388 
L 435.103528 132.587349 
L 435.822045 139.470079 
L 436.540561 147.73659 
L 437.259078 144.245481 
L 437.977595 138.013943 
L 438.696111 138.25814 
L 439.414628 140.45591 
L 440.133144 143.883709 
L 440.851661 150.739306 
L 441.570178 160.633795 
L 442.288694 165.635306 
L 443.007211 167.805943 
L 443.725728 164.604253 
L 444.444244 166.214142 
L 445.162761 175.357953 
L 445.881277 176.587981 
L 446.599794 172.074864 
L 447.318311 179.825849 
L 467.436776 178.903328 
L 468.155292 168.484268 
L 468.873809 168.420957 
L 489.710791 168.158672 
L 490.429307 173.639532 
L 491.147824 172.726055 
L 511.266289 163.50989 
L 511.984806 161.881912 
L 512.703322 162.135153 
L 533.540304 161.493006 
L 534.25882 152.629569 
L 534.977337 151.933156 
L 555.814319 148.252117 
L 556.532835 141.73116 
L 557.251352 133.7812 
L 577.369817 136.874358 
L 578.088334 135.562931 
L 578.80685 131.809537 
L 599.643832 133.672668 
L 600.362349 127.748636 
L 601.080865 136.58494 
L 621.19933 146.361853 
L 621.917847 140.700107 
L 622.636364 138.99073 
L 622.636364 138.99073 
" style="fill:none;stroke:#1f77b4;stroke-linecap:square;stroke-width:1.5;"/>
   </g>
   <g id="patch_3">
    <path d="M 90 252 
L 90 34.56 
" style="fill:none;stroke:#000000;stroke-linecap:square;stroke-linejoin:miter;stroke-width:0.8;"/>
   </g>
   <g id="patch_4">
    <path d="M 648 252 
L 648 34.56 
" style="fill:none;stroke:#000000;stroke-linecap:square;stroke-linejoin:miter;stroke-width:0.8;"/>
   </g>
   <g id="patch_5">
    <path d="M 90 252 
L 648 252 
" style="fill:none;stroke:#000000;stroke-linecap:square;stroke-linejoin:miter;stroke-width:0.8;"/>
   </g>
   <g id="patch_6">
    <path d="M 90 34.56 
L 648 34.56 
" style="fill:none;stroke:#000000;stroke-linecap:square;stroke-linejoin:miter;stroke-width:0.8;"/>
   </g>
   <g id="text_17">
    <!-- MA360 of Morning Travel Time -->
    <defs>
     <path d="M 9.8125 72.90625 
L 24.515625 72.90625 
L 43.109375 23.296875 
L 61.8125 72.90625 
L 76.515625 72.90625 
L 76.515625 0 
L 66.890625 0 
L 66.890625 64.015625 
L 48.09375 14.015625 
L 38.1875 14.015625 
L 19.390625 64.015625 
L 19.390625 0 
L 9.8125 0 
z
" id="DejaVuSans-77"/>
     <path d="M 34.1875 63.1875 
L 20.796875 26.90625 
L 47.609375 26.90625 
z
M 28.609375 72.90625 
L 39.796875 72.90625 
L 67.578125 0 
L 57.328125 0 
L 50.6875 18.703125 
L 17.828125 18.703125 
L 11.1875 0 
L 0.78125 0 
z
" id="DejaVuSans-65"/>
     <path d="M 40.578125 39.3125 
Q 47.65625 37.796875 51.625 33 
Q 55.609375 28.21875 55.609375 21.1875 
Q 55.609375 10.40625 48.1875 4.484375 
Q 40.765625 -1.421875 27.09375 -1.421875 
Q 22.515625 -1.421875 17.65625 -0.515625 
Q 12.796875 0.390625 7.625 2.203125 
L 7.625 11.71875 
Q 11.71875 9.328125 16.59375 8.109375 
Q 21.484375 6.890625 26.8125 6.890625 
Q 36.078125 6.890625 40.9375 10.546875 
Q 45.796875 14.203125 45.796875 21.1875 
Q 45.796875 27.640625 41.28125 31.265625 
Q 36.765625 34.90625 28.71875 34.90625 
L 20.21875 34.90625 
L 20.21875 43.015625 
L 29.109375 43.015625 
Q 36.375 43.015625 40.234375 45.921875 
Q 44.09375 48.828125 44.09375 54.296875 
Q 44.09375 59.90625 40.109375 62.90625 
Q 36.140625 65.921875 28.71875 65.921875 
Q 24.65625 65.921875 20.015625 65.03125 
Q 15.375 64.15625 9.8125 62.3125 
L 9.8125 71.09375 
Q 15.4375 72.65625 20.34375 73.4375 
Q 25.25 74.21875 29.59375 74.21875 
Q 40.828125 74.21875 47.359375 69.109375 
Q 53.90625 64.015625 53.90625 55.328125 
Q 53.90625 49.265625 50.4375 45.09375 
Q 46.96875 40.921875 40.578125 39.3125 
z
" id="DejaVuSans-51"/>
     <path id="DejaVuSans-32"/>
     <path d="M 30.609375 48.390625 
Q 23.390625 48.390625 19.1875 42.75 
Q 14.984375 37.109375 14.984375 27.296875 
Q 14.984375 17.484375 19.15625 11.84375 
Q 23.34375 6.203125 30.609375 6.203125 
Q 37.796875 6.203125 41.984375 11.859375 
Q 46.1875 17.53125 46.1875 27.296875 
Q 46.1875 37.015625 41.984375 42.703125 
Q 37.796875 48.390625 30.609375 48.390625 
z
M 30.609375 56 
Q 42.328125 56 49.015625 48.375 
Q 55.71875 40.765625 55.71875 27.296875 
Q 55.71875 13.875 49.015625 6.21875 
Q 42.328125 -1.421875 30.609375 -1.421875 
Q 18.84375 -1.421875 12.171875 6.21875 
Q 5.515625 13.875 5.515625 27.296875 
Q 5.515625 40.765625 12.171875 48.375 
Q 18.84375 56 30.609375 56 
z
" id="DejaVuSans-111"/>
     <path d="M 37.109375 75.984375 
L 37.109375 68.5 
L 28.515625 68.5 
Q 23.6875 68.5 21.796875 66.546875 
Q 19.921875 64.59375 19.921875 59.515625 
L 19.921875 54.6875 
L 34.71875 54.6875 
L 34.71875 47.703125 
L 19.921875 47.703125 
L 19.921875 0 
L 10.890625 0 
L 10.890625 47.703125 
L 2.296875 47.703125 
L 2.296875 54.6875 
L 10.890625 54.6875 
L 10.890625 58.5 
Q 10.890625 67.625 15.140625 71.796875 
Q 19.390625 75.984375 28.609375 75.984375 
z
" id="DejaVuSans-102"/>
     <path d="M 41.109375 46.296875 
Q 39.59375 47.171875 37.8125 47.578125 
Q 36.03125 48 33.890625 48 
Q 26.265625 48 22.1875 43.046875 
Q 18.109375 38.09375 18.109375 28.8125 
L 18.109375 0 
L 9.078125 0 
L 9.078125 54.6875 
L 18.109375 54.6875 
L 18.109375 46.1875 
Q 20.953125 51.171875 25.484375 53.578125 
Q 30.03125 56 36.53125 56 
Q 37.453125 56 38.578125 55.875 
Q 39.703125 55.765625 41.0625 55.515625 
z
" id="DejaVuSans-114"/>
     <path d="M 54.890625 33.015625 
L 54.890625 0 
L 45.90625 0 
L 45.90625 32.71875 
Q 45.90625 40.484375 42.875 44.328125 
Q 39.84375 48.1875 33.796875 48.1875 
Q 26.515625 48.1875 22.3125 43.546875 
Q 18.109375 38.921875 18.109375 30.90625 
L 18.109375 0 
L 9.078125 0 
L 9.078125 54.6875 
L 18.109375 54.6875 
L 18.109375 46.1875 
Q 21.34375 51.125 25.703125 53.5625 
Q 30.078125 56 35.796875 56 
Q 45.21875 56 50.046875 50.171875 
Q 54.890625 44.34375 54.890625 33.015625 
z
" id="DejaVuSans-110"/>
     <path d="M 9.421875 54.6875 
L 18.40625 54.6875 
L 18.40625 0 
L 9.421875 0 
z
M 9.421875 75.984375 
L 18.40625 75.984375 
L 18.40625 64.59375 
L 9.421875 64.59375 
z
" id="DejaVuSans-105"/>
     <path d="M 45.40625 27.984375 
Q 45.40625 37.75 41.375 43.109375 
Q 37.359375 48.484375 30.078125 48.484375 
Q 22.859375 48.484375 18.828125 43.109375 
Q 14.796875 37.75 14.796875 27.984375 
Q 14.796875 18.265625 18.828125 12.890625 
Q 22.859375 7.515625 30.078125 7.515625 
Q 37.359375 7.515625 41.375 12.890625 
Q 45.40625 18.265625 45.40625 27.984375 
z
M 54.390625 6.78125 
Q 54.390625 -7.171875 48.1875 -13.984375 
Q 42 -20.796875 29.203125 -20.796875 
Q 24.46875 -20.796875 20.265625 -20.09375 
Q 16.0625 -19.390625 12.109375 -17.921875 
L 12.109375 -9.1875 
Q 16.0625 -11.328125 19.921875 -12.34375 
Q 23.78125 -13.375 27.78125 -13.375 
Q 36.625 -13.375 41.015625 -8.765625 
Q 45.40625 -4.15625 45.40625 5.171875 
L 45.40625 9.625 
Q 42.625 4.78125 38.28125 2.390625 
Q 33.9375 0 27.875 0 
Q 17.828125 0 11.671875 7.65625 
Q 5.515625 15.328125 5.515625 27.984375 
Q 5.515625 40.671875 11.671875 48.328125 
Q 17.828125 56 27.875 56 
Q 33.9375 56 38.28125 53.609375 
Q 42.625 51.21875 45.40625 46.390625 
L 45.40625 54.6875 
L 54.390625 54.6875 
z
" id="DejaVuSans-103"/>
     <path d="M -0.296875 72.90625 
L 61.375 72.90625 
L 61.375 64.59375 
L 35.5 64.59375 
L 35.5 0 
L 25.59375 0 
L 25.59375 64.59375 
L -0.296875 64.59375 
z
" id="DejaVuSans-84"/>
     <path d="M 34.28125 27.484375 
Q 23.390625 27.484375 19.1875 25 
Q 14.984375 22.515625 14.984375 16.5 
Q 14.984375 11.71875 18.140625 8.90625 
Q 21.296875 6.109375 26.703125 6.109375 
Q 34.1875 6.109375 38.703125 11.40625 
Q 43.21875 16.703125 43.21875 25.484375 
L 43.21875 27.484375 
z
M 52.203125 31.203125 
L 52.203125 0 
L 43.21875 0 
L 43.21875 8.296875 
Q 40.140625 3.328125 35.546875 0.953125 
Q 30.953125 -1.421875 24.3125 -1.421875 
Q 15.921875 -1.421875 10.953125 3.296875 
Q 6 8.015625 6 15.921875 
Q 6 25.140625 12.171875 29.828125 
Q 18.359375 34.515625 30.609375 34.515625 
L 43.21875 34.515625 
L 43.21875 35.40625 
Q 43.21875 41.609375 39.140625 45 
Q 35.0625 48.390625 27.6875 48.390625 
Q 23 48.390625 18.546875 47.265625 
Q 14.109375 46.140625 10.015625 43.890625 
L 10.015625 52.203125 
Q 14.9375 54.109375 19.578125 55.046875 
Q 24.21875 56 28.609375 56 
Q 40.484375 56 46.34375 49.84375 
Q 52.203125 43.703125 52.203125 31.203125 
z
" id="DejaVuSans-97"/>
     <path d="M 2.984375 54.6875 
L 12.5 54.6875 
L 29.59375 8.796875 
L 46.6875 54.6875 
L 56.203125 54.6875 
L 35.6875 0 
L 23.484375 0 
z
" id="DejaVuSans-118"/>
     <path d="M 56.203125 29.59375 
L 56.203125 25.203125 
L 14.890625 25.203125 
Q 15.484375 15.921875 20.484375 11.0625 
Q 25.484375 6.203125 34.421875 6.203125 
Q 39.59375 6.203125 44.453125 7.46875 
Q 49.3125 8.734375 54.109375 11.28125 
L 54.109375 2.78125 
Q 49.265625 0.734375 44.1875 -0.34375 
Q 39.109375 -1.421875 33.890625 -1.421875 
Q 20.796875 -1.421875 13.15625 6.1875 
Q 5.515625 13.8125 5.515625 26.8125 
Q 5.515625 40.234375 12.765625 48.109375 
Q 20.015625 56 32.328125 56 
Q 43.359375 56 49.78125 48.890625 
Q 56.203125 41.796875 56.203125 29.59375 
z
M 47.21875 32.234375 
Q 47.125 39.59375 43.09375 43.984375 
Q 39.0625 48.390625 32.421875 48.390625 
Q 24.90625 48.390625 20.390625 44.140625 
Q 15.875 39.890625 15.1875 32.171875 
z
" id="DejaVuSans-101"/>
     <path d="M 9.421875 75.984375 
L 18.40625 75.984375 
L 18.40625 0 
L 9.421875 0 
z
" id="DejaVuSans-108"/>
     <path d="M 52 44.1875 
Q 55.375 50.25 60.0625 53.125 
Q 64.75 56 71.09375 56 
Q 79.640625 56 84.28125 50.015625 
Q 88.921875 44.046875 88.921875 33.015625 
L 88.921875 0 
L 79.890625 0 
L 79.890625 32.71875 
Q 79.890625 40.578125 77.09375 44.375 
Q 74.3125 48.1875 68.609375 48.1875 
Q 61.625 48.1875 57.5625 43.546875 
Q 53.515625 38.921875 53.515625 30.90625 
L 53.515625 0 
L 44.484375 0 
L 44.484375 32.71875 
Q 44.484375 40.625 41.703125 44.40625 
Q 38.921875 48.1875 33.109375 48.1875 
Q 26.21875 48.1875 22.15625 43.53125 
Q 18.109375 38.875 18.109375 30.90625 
L 18.109375 0 
L 9.078125 0 
L 9.078125 54.6875 
L 18.109375 54.6875 
L 18.109375 46.1875 
Q 21.1875 51.21875 25.484375 53.609375 
Q 29.78125 56 35.6875 56 
Q 41.65625 56 45.828125 52.96875 
Q 50 49.953125 52 44.1875 
z
" id="DejaVuSans-109"/>
    </defs>
    <g transform="translate(276.890625 28.56)scale(0.12 -0.12)">
     <use xlink:href="#DejaVuSans-77"/>
     <use x="86.279297" xlink:href="#DejaVuSans-65"/>
     <use x="154.6875" xlink:href="#DejaVuSans-51"/>
     <use x="218.310547" xlink:href="#DejaVuSans-54"/>
     <use x="281.933594" xlink:href="#DejaVuSans-48"/>
     <use x="345.556641" xlink:href="#DejaVuSans-32"/>
     <use x="377.34375" xlink:href="#DejaVuSans-111"/>
     <use x="438.525391" xlink:href="#DejaVuSans-102"/>
     <use x="473.730469" xlink:href="#DejaVuSans-32"/>
     <use x="505.517578" xlink:href="#DejaVuSans-77"/>
     <use x="591.796875" xlink:href="#DejaVuSans-111"/>
     <use x="652.978516" xlink:href="#DejaVuSans-114"/>
     <use x="694.076172" xlink:href="#DejaVuSans-110"/>
     <use x="757.455078" xlink:href="#DejaVuSans-105"/>
     <use x="785.238281" xlink:href="#DejaVuSans-110"/>
     <use x="848.617188" xlink:href="#DejaVuSans-103"/>
     <use x="912.09375" xlink:href="#DejaVuSans-32"/>
     <use x="943.880859" xlink:href="#DejaVuSans-84"/>
     <use x="1004.746094" xlink:href="#DejaVuSans-114"/>
     <use x="1045.859375" xlink:href="#DejaVuSans-97"/>
     <use x="1107.138672" xlink:href="#DejaVuSans-118"/>
     <use x="1166.318359" xlink:href="#DejaVuSans-101"/>
     <use x="1227.841797" xlink:href="#DejaVuSans-108"/>
     <use x="1255.625" xlink:href="#DejaVuSans-32"/>
     <use x="1287.412109" xlink:href="#DejaVuSans-84"/>
     <use x="1348.449219" xlink:href="#DejaVuSans-105"/>
     <use x="1376.232422" xlink:href="#DejaVuSans-109"/>
     <use x="1473.644531" xlink:href="#DejaVuSans-101"/>
    </g>
   </g>
  </g>
 </g>
 <defs>
  <clipPath id="pc12f3afa25">
   <rect height="217.44" width="558" x="90" y="34.56"/>
  </clipPath>
 </defs>
</svg>
