<?xml version="1.0" encoding="utf-8" standalone="no"?>
<!DOCTYPE svg PUBLIC "-//W3C//DTD SVG 1.1//EN"
  "http://www.w3.org/Graphics/SVG/1.1/DTD/svg11.dtd">
<!-- Created with matplotlib (https://matplotlib.org/) -->
<svg height="288pt" version="1.1" viewBox="0 0 720 288" width="720pt" xmlns="http://www.w3.org/2000/svg" xmlns:xlink="http://www.w3.org/1999/xlink">
 <defs>
  <style type="text/css">
*{stroke-linecap:butt;stroke-linejoin:round;}
  </style>
 </defs>
 <g id="figure_1">
  <g id="patch_1">
   <path d="M 0 288 
L 720 288 
L 720 0 
L 0 0 
z
" style="fill:#ffffff;"/>
  </g>
  <g id="axes_1">
   <g id="patch_2">
    <path d="M 90 252 
L 648 252 
L 648 34.56 
L 90 34.56 
z
" style="fill:#ffffff;"/>
   </g>
   <g id="matplotlib.axis_1">
    <g id="xtick_1">
     <g id="line2d_1">
      <defs>
       <path d="M 0 0 
L 0 3.5 
" id="mdba57219f6" style="stroke:#000000;stroke-width:0.8;"/>
      </defs>
      <g>
       <use style="stroke:#000000;stroke-width:0.8;" x="118.956219" xlink:href="#mdba57219f6" y="252"/>
      </g>
     </g>
     <g id="text_1">
      <!-- 2017-01 -->
      <defs>
       <path d="M 19.1875 8.296875 
L 53.609375 8.296875 
L 53.609375 0 
L 7.328125 0 
L 7.328125 8.296875 
Q 12.9375 14.109375 22.625 23.890625 
Q 32.328125 33.6875 34.8125 36.53125 
Q 39.546875 41.84375 41.421875 45.53125 
Q 43.3125 49.21875 43.3125 52.78125 
Q 43.3125 58.59375 39.234375 62.25 
Q 35.15625 65.921875 28.609375 65.921875 
Q 23.96875 65.921875 18.8125 64.3125 
Q 13.671875 62.703125 7.8125 59.421875 
L 7.8125 69.390625 
Q 13.765625 71.78125 18.9375 73 
Q 24.125 74.21875 28.421875 74.21875 
Q 39.75 74.21875 46.484375 68.546875 
Q 53.21875 62.890625 53.21875 53.421875 
Q 53.21875 48.921875 51.53125 44.890625 
Q 49.859375 40.875 45.40625 35.40625 
Q 44.1875 33.984375 37.640625 27.21875 
Q 31.109375 20.453125 19.1875 8.296875 
z
" id="DejaVuSans-50"/>
       <path d="M 31.78125 66.40625 
Q 24.171875 66.40625 20.328125 58.90625 
Q 16.5 51.421875 16.5 36.375 
Q 16.5 21.390625 20.328125 13.890625 
Q 24.171875 6.390625 31.78125 6.390625 
Q 39.453125 6.390625 43.28125 13.890625 
Q 47.125 21.390625 47.125 36.375 
Q 47.125 51.421875 43.28125 58.90625 
Q 39.453125 66.40625 31.78125 66.40625 
z
M 31.78125 74.21875 
Q 44.046875 74.21875 50.515625 64.515625 
Q 56.984375 54.828125 56.984375 36.375 
Q 56.984375 17.96875 50.515625 8.265625 
Q 44.046875 -1.421875 31.78125 -1.421875 
Q 19.53125 -1.421875 13.0625 8.265625 
Q 6.59375 17.96875 6.59375 36.375 
Q 6.59375 54.828125 13.0625 64.515625 
Q 19.53125 74.21875 31.78125 74.21875 
z
" id="DejaVuSans-48"/>
       <path d="M 12.40625 8.296875 
L 28.515625 8.296875 
L 28.515625 63.921875 
L 10.984375 60.40625 
L 10.984375 69.390625 
L 28.421875 72.90625 
L 38.28125 72.90625 
L 38.28125 8.296875 
L 54.390625 8.296875 
L 54.390625 0 
L 12.40625 0 
z
" id="DejaVuSans-49"/>
       <path d="M 8.203125 72.90625 
L 55.078125 72.90625 
L 55.078125 68.703125 
L 28.609375 0 
L 18.3125 0 
L 43.21875 64.59375 
L 8.203125 64.59375 
z
" id="DejaVuSans-55"/>
       <path d="M 4.890625 31.390625 
L 31.203125 31.390625 
L 31.203125 23.390625 
L 4.890625 23.390625 
z
" id="DejaVuSans-45"/>
      </defs>
      <g transform="translate(98.064813 266.598437)scale(0.1 -0.1)">
       <use xlink:href="#DejaVuSans-50"/>
       <use x="63.623047" xlink:href="#DejaVuSans-48"/>
       <use x="127.246094" xlink:href="#DejaVuSans-49"/>
       <use x="190.869141" xlink:href="#DejaVuSans-55"/>
       <use x="254.492188" xlink:href="#DejaVuSans-45"/>
       <use x="290.576172" xlink:href="#DejaVuSans-48"/>
       <use x="354.199219" xlink:href="#DejaVuSans-49"/>
      </g>
     </g>
    </g>
    <g id="xtick_2">
     <g id="line2d_2">
      <g>
       <use style="stroke:#000000;stroke-width:0.8;" x="183.622714" xlink:href="#mdba57219f6" y="252"/>
      </g>
     </g>
     <g id="text_2">
      <!-- 2017-04 -->
      <defs>
       <path d="M 37.796875 64.3125 
L 12.890625 25.390625 
L 37.796875 25.390625 
z
M 35.203125 72.90625 
L 47.609375 72.90625 
L 47.609375 25.390625 
L 58.015625 25.390625 
L 58.015625 17.1875 
L 47.609375 17.1875 
L 47.609375 0 
L 37.796875 0 
L 37.796875 17.1875 
L 4.890625 17.1875 
L 4.890625 26.703125 
z
" id="DejaVuSans-52"/>
      </defs>
      <g transform="translate(162.731308 266.598437)scale(0.1 -0.1)">
       <use xlink:href="#DejaVuSans-50"/>
       <use x="63.623047" xlink:href="#DejaVuSans-48"/>
       <use x="127.246094" xlink:href="#DejaVuSans-49"/>
       <use x="190.869141" xlink:href="#DejaVuSans-55"/>
       <use x="254.492188" xlink:href="#DejaVuSans-45"/>
       <use x="290.576172" xlink:href="#DejaVuSans-48"/>
       <use x="354.199219" xlink:href="#DejaVuSans-52"/>
      </g>
     </g>
    </g>
    <g id="xtick_3">
     <g id="line2d_3">
      <g>
       <use style="stroke:#000000;stroke-width:0.8;" x="249.007726" xlink:href="#mdba57219f6" y="252"/>
      </g>
     </g>
     <g id="text_3">
      <!-- 2017-07 -->
      <g transform="translate(228.11632 266.598437)scale(0.1 -0.1)">
       <use xlink:href="#DejaVuSans-50"/>
       <use x="63.623047" xlink:href="#DejaVuSans-48"/>
       <use x="127.246094" xlink:href="#DejaVuSans-49"/>
       <use x="190.869141" xlink:href="#DejaVuSans-55"/>
       <use x="254.492188" xlink:href="#DejaVuSans-45"/>
       <use x="290.576172" xlink:href="#DejaVuSans-48"/>
       <use x="354.199219" xlink:href="#DejaVuSans-55"/>
      </g>
     </g>
    </g>
    <g id="xtick_4">
     <g id="line2d_4">
      <g>
       <use style="stroke:#000000;stroke-width:0.8;" x="315.111254" xlink:href="#mdba57219f6" y="252"/>
      </g>
     </g>
     <g id="text_4">
      <!-- 2017-10 -->
      <g transform="translate(294.219848 266.598437)scale(0.1 -0.1)">
       <use xlink:href="#DejaVuSans-50"/>
       <use x="63.623047" xlink:href="#DejaVuSans-48"/>
       <use x="127.246094" xlink:href="#DejaVuSans-49"/>
       <use x="190.869141" xlink:href="#DejaVuSans-55"/>
       <use x="254.492188" xlink:href="#DejaVuSans-45"/>
       <use x="290.576172" xlink:href="#DejaVuSans-49"/>
       <use x="354.199219" xlink:href="#DejaVuSans-48"/>
      </g>
     </g>
    </g>
    <g id="xtick_5">
     <g id="line2d_5">
      <g>
       <use style="stroke:#000000;stroke-width:0.8;" x="381.214782" xlink:href="#mdba57219f6" y="252"/>
      </g>
     </g>
     <g id="text_5">
      <!-- 2018-01 -->
      <defs>
       <path d="M 31.78125 34.625 
Q 24.75 34.625 20.71875 30.859375 
Q 16.703125 27.09375 16.703125 20.515625 
Q 16.703125 13.921875 20.71875 10.15625 
Q 24.75 6.390625 31.78125 6.390625 
Q 38.8125 6.390625 42.859375 10.171875 
Q 46.921875 13.96875 46.921875 20.515625 
Q 46.921875 27.09375 42.890625 30.859375 
Q 38.875 34.625 31.78125 34.625 
z
M 21.921875 38.8125 
Q 15.578125 40.375 12.03125 44.71875 
Q 8.5 49.078125 8.5 55.328125 
Q 8.5 64.0625 14.71875 69.140625 
Q 20.953125 74.21875 31.78125 74.21875 
Q 42.671875 74.21875 48.875 69.140625 
Q 55.078125 64.0625 55.078125 55.328125 
Q 55.078125 49.078125 51.53125 44.71875 
Q 48 40.375 41.703125 38.8125 
Q 48.828125 37.15625 52.796875 32.3125 
Q 56.78125 27.484375 56.78125 20.515625 
Q 56.78125 9.90625 50.3125 4.234375 
Q 43.84375 -1.421875 31.78125 -1.421875 
Q 19.734375 -1.421875 13.25 4.234375 
Q 6.78125 9.90625 6.78125 20.515625 
Q 6.78125 27.484375 10.78125 32.3125 
Q 14.796875 37.15625 21.921875 38.8125 
z
M 18.3125 54.390625 
Q 18.3125 48.734375 21.84375 45.5625 
Q 25.390625 42.390625 31.78125 42.390625 
Q 38.140625 42.390625 41.71875 45.5625 
Q 45.3125 48.734375 45.3125 54.390625 
Q 45.3125 60.0625 41.71875 63.234375 
Q 38.140625 66.40625 31.78125 66.40625 
Q 25.390625 66.40625 21.84375 63.234375 
Q 18.3125 60.0625 18.3125 54.390625 
z
" id="DejaVuSans-56"/>
      </defs>
      <g transform="translate(360.323376 266.598437)scale(0.1 -0.1)">
       <use xlink:href="#DejaVuSans-50"/>
       <use x="63.623047" xlink:href="#DejaVuSans-48"/>
       <use x="127.246094" xlink:href="#DejaVuSans-49"/>
       <use x="190.869141" xlink:href="#DejaVuSans-56"/>
       <use x="254.492188" xlink:href="#DejaVuSans-45"/>
       <use x="290.576172" xlink:href="#DejaVuSans-48"/>
       <use x="354.199219" xlink:href="#DejaVuSans-49"/>
      </g>
     </g>
    </g>
    <g id="xtick_6">
     <g id="line2d_6">
      <g>
       <use style="stroke:#000000;stroke-width:0.8;" x="445.881277" xlink:href="#mdba57219f6" y="252"/>
      </g>
     </g>
     <g id="text_6">
      <!-- 2018-04 -->
      <g transform="translate(424.989871 266.598437)scale(0.1 -0.1)">
       <use xlink:href="#DejaVuSans-50"/>
       <use x="63.623047" xlink:href="#DejaVuSans-48"/>
       <use x="127.246094" xlink:href="#DejaVuSans-49"/>
       <use x="190.869141" xlink:href="#DejaVuSans-56"/>
       <use x="254.492188" xlink:href="#DejaVuSans-45"/>
       <use x="290.576172" xlink:href="#DejaVuSans-48"/>
       <use x="354.199219" xlink:href="#DejaVuSans-52"/>
      </g>
     </g>
    </g>
    <g id="xtick_7">
     <g id="line2d_7">
      <g>
       <use style="stroke:#000000;stroke-width:0.8;" x="511.266289" xlink:href="#mdba57219f6" y="252"/>
      </g>
     </g>
     <g id="text_7">
      <!-- 2018-07 -->
      <g transform="translate(490.374883 266.598437)scale(0.1 -0.1)">
       <use xlink:href="#DejaVuSans-50"/>
       <use x="63.623047" xlink:href="#DejaVuSans-48"/>
       <use x="127.246094" xlink:href="#DejaVuSans-49"/>
       <use x="190.869141" xlink:href="#DejaVuSans-56"/>
       <use x="254.492188" xlink:href="#DejaVuSans-45"/>
       <use x="290.576172" xlink:href="#DejaVuSans-48"/>
       <use x="354.199219" xlink:href="#DejaVuSans-55"/>
      </g>
     </g>
    </g>
    <g id="xtick_8">
     <g id="line2d_8">
      <g>
       <use style="stroke:#000000;stroke-width:0.8;" x="577.369817" xlink:href="#mdba57219f6" y="252"/>
      </g>
     </g>
     <g id="text_8">
      <!-- 2018-10 -->
      <g transform="translate(556.478411 266.598437)scale(0.1 -0.1)">
       <use xlink:href="#DejaVuSans-50"/>
       <use x="63.623047" xlink:href="#DejaVuSans-48"/>
       <use x="127.246094" xlink:href="#DejaVuSans-49"/>
       <use x="190.869141" xlink:href="#DejaVuSans-56"/>
       <use x="254.492188" xlink:href="#DejaVuSans-45"/>
       <use x="290.576172" xlink:href="#DejaVuSans-49"/>
       <use x="354.199219" xlink:href="#DejaVuSans-48"/>
      </g>
     </g>
    </g>
    <g id="xtick_9">
     <g id="line2d_9">
      <g>
       <use style="stroke:#000000;stroke-width:0.8;" x="643.473345" xlink:href="#mdba57219f6" y="252"/>
      </g>
     </g>
     <g id="text_9">
      <!-- 2019-01 -->
      <defs>
       <path d="M 10.984375 1.515625 
L 10.984375 10.5 
Q 14.703125 8.734375 18.5 7.8125 
Q 22.3125 6.890625 25.984375 6.890625 
Q 35.75 6.890625 40.890625 13.453125 
Q 46.046875 20.015625 46.78125 33.40625 
Q 43.953125 29.203125 39.59375 26.953125 
Q 35.25 24.703125 29.984375 24.703125 
Q 19.046875 24.703125 12.671875 31.3125 
Q 6.296875 37.9375 6.296875 49.421875 
Q 6.296875 60.640625 12.9375 67.421875 
Q 19.578125 74.21875 30.609375 74.21875 
Q 43.265625 74.21875 49.921875 64.515625 
Q 56.59375 54.828125 56.59375 36.375 
Q 56.59375 19.140625 48.40625 8.859375 
Q 40.234375 -1.421875 26.421875 -1.421875 
Q 22.703125 -1.421875 18.890625 -0.6875 
Q 15.09375 0.046875 10.984375 1.515625 
z
M 30.609375 32.421875 
Q 37.25 32.421875 41.125 36.953125 
Q 45.015625 41.5 45.015625 49.421875 
Q 45.015625 57.28125 41.125 61.84375 
Q 37.25 66.40625 30.609375 66.40625 
Q 23.96875 66.40625 20.09375 61.84375 
Q 16.21875 57.28125 16.21875 49.421875 
Q 16.21875 41.5 20.09375 36.953125 
Q 23.96875 32.421875 30.609375 32.421875 
z
" id="DejaVuSans-57"/>
      </defs>
      <g transform="translate(622.581939 266.598437)scale(0.1 -0.1)">
       <use xlink:href="#DejaVuSans-50"/>
       <use x="63.623047" xlink:href="#DejaVuSans-48"/>
       <use x="127.246094" xlink:href="#DejaVuSans-49"/>
       <use x="190.869141" xlink:href="#DejaVuSans-57"/>
       <use x="254.492188" xlink:href="#DejaVuSans-45"/>
       <use x="290.576172" xlink:href="#DejaVuSans-48"/>
       <use x="354.199219" xlink:href="#DejaVuSans-49"/>
      </g>
     </g>
    </g>
   </g>
   <g id="matplotlib.axis_2">
    <g id="ytick_1">
     <g id="line2d_10">
      <defs>
       <path d="M 0 0 
L -3.5 0 
" id="mcca904a68a" style="stroke:#000000;stroke-width:0.8;"/>
      </defs>
      <g>
       <use style="stroke:#000000;stroke-width:0.8;" x="90" xlink:href="#mcca904a68a" y="226.071479"/>
      </g>
     </g>
     <g id="text_10">
      <!-- 3710 -->
      <defs>
       <path d="M 40.578125 39.3125 
Q 47.65625 37.796875 51.625 33 
Q 55.609375 28.21875 55.609375 21.1875 
Q 55.609375 10.40625 48.1875 4.484375 
Q 40.765625 -1.421875 27.09375 -1.421875 
Q 22.515625 -1.421875 17.65625 -0.515625 
Q 12.796875 0.390625 7.625 2.203125 
L 7.625 11.71875 
Q 11.71875 9.328125 16.59375 8.109375 
Q 21.484375 6.890625 26.8125 6.890625 
Q 36.078125 6.890625 40.9375 10.546875 
Q 45.796875 14.203125 45.796875 21.1875 
Q 45.796875 27.640625 41.28125 31.265625 
Q 36.765625 34.90625 28.71875 34.90625 
L 20.21875 34.90625 
L 20.21875 43.015625 
L 29.109375 43.015625 
Q 36.375 43.015625 40.234375 45.921875 
Q 44.09375 48.828125 44.09375 54.296875 
Q 44.09375 59.90625 40.109375 62.90625 
Q 36.140625 65.921875 28.71875 65.921875 
Q 24.65625 65.921875 20.015625 65.03125 
Q 15.375 64.15625 9.8125 62.3125 
L 9.8125 71.09375 
Q 15.4375 72.65625 20.34375 73.4375 
Q 25.25 74.21875 29.59375 74.21875 
Q 40.828125 74.21875 47.359375 69.109375 
Q 53.90625 64.015625 53.90625 55.328125 
Q 53.90625 49.265625 50.4375 45.09375 
Q 46.96875 40.921875 40.578125 39.3125 
z
" id="DejaVuSans-51"/>
      </defs>
      <g transform="translate(57.55 229.870698)scale(0.1 -0.1)">
       <use xlink:href="#DejaVuSans-51"/>
       <use x="63.623047" xlink:href="#DejaVuSans-55"/>
       <use x="127.246094" xlink:href="#DejaVuSans-49"/>
       <use x="190.869141" xlink:href="#DejaVuSans-48"/>
      </g>
     </g>
    </g>
    <g id="ytick_2">
     <g id="line2d_11">
      <g>
       <use style="stroke:#000000;stroke-width:0.8;" x="90" xlink:href="#mcca904a68a" y="180.265305"/>
      </g>
     </g>
     <g id="text_11">
      <!-- 3720 -->
      <g transform="translate(57.55 184.064523)scale(0.1 -0.1)">
       <use xlink:href="#DejaVuSans-51"/>
       <use x="63.623047" xlink:href="#DejaVuSans-55"/>
       <use x="127.246094" xlink:href="#DejaVuSans-50"/>
       <use x="190.869141" xlink:href="#DejaVuSans-48"/>
      </g>
     </g>
    </g>
    <g id="ytick_3">
     <g id="line2d_12">
      <g>
       <use style="stroke:#000000;stroke-width:0.8;" x="90" xlink:href="#mcca904a68a" y="134.45913"/>
      </g>
     </g>
     <g id="text_12">
      <!-- 3730 -->
      <g transform="translate(57.55 138.258349)scale(0.1 -0.1)">
       <use xlink:href="#DejaVuSans-51"/>
       <use x="63.623047" xlink:href="#DejaVuSans-55"/>
       <use x="127.246094" xlink:href="#DejaVuSans-51"/>
       <use x="190.869141" xlink:href="#DejaVuSans-48"/>
      </g>
     </g>
    </g>
    <g id="ytick_4">
     <g id="line2d_13">
      <g>
       <use style="stroke:#000000;stroke-width:0.8;" x="90" xlink:href="#mcca904a68a" y="88.652956"/>
      </g>
     </g>
     <g id="text_13">
      <!-- 3740 -->
      <g transform="translate(57.55 92.452175)scale(0.1 -0.1)">
       <use xlink:href="#DejaVuSans-51"/>
       <use x="63.623047" xlink:href="#DejaVuSans-55"/>
       <use x="127.246094" xlink:href="#DejaVuSans-52"/>
       <use x="190.869141" xlink:href="#DejaVuSans-48"/>
      </g>
     </g>
    </g>
    <g id="ytick_5">
     <g id="line2d_14">
      <g>
       <use style="stroke:#000000;stroke-width:0.8;" x="90" xlink:href="#mcca904a68a" y="42.846782"/>
      </g>
     </g>
     <g id="text_14">
      <!-- 3750 -->
      <defs>
       <path d="M 10.796875 72.90625 
L 49.515625 72.90625 
L 49.515625 64.59375 
L 19.828125 64.59375 
L 19.828125 46.734375 
Q 21.96875 47.46875 24.109375 47.828125 
Q 26.265625 48.1875 28.421875 48.1875 
Q 40.625 48.1875 47.75 41.5 
Q 54.890625 34.8125 54.890625 23.390625 
Q 54.890625 11.625 47.5625 5.09375 
Q 40.234375 -1.421875 26.90625 -1.421875 
Q 22.3125 -1.421875 17.546875 -0.640625 
Q 12.796875 0.140625 7.71875 1.703125 
L 7.71875 11.625 
Q 12.109375 9.234375 16.796875 8.0625 
Q 21.484375 6.890625 26.703125 6.890625 
Q 35.15625 6.890625 40.078125 11.328125 
Q 45.015625 15.765625 45.015625 23.390625 
Q 45.015625 31 40.078125 35.4375 
Q 35.15625 39.890625 26.703125 39.890625 
Q 22.75 39.890625 18.8125 39.015625 
Q 14.890625 38.140625 10.796875 36.28125 
z
" id="DejaVuSans-53"/>
      </defs>
      <g transform="translate(57.55 46.646001)scale(0.1 -0.1)">
       <use xlink:href="#DejaVuSans-51"/>
       <use x="63.623047" xlink:href="#DejaVuSans-55"/>
       <use x="127.246094" xlink:href="#DejaVuSans-53"/>
       <use x="190.869141" xlink:href="#DejaVuSans-48"/>
      </g>
     </g>
    </g>
   </g>
   <g id="line2d_15">
    <path clip-path="url(#pfba11de300)" d="M 115.363636 160.937644 
L 116.082153 151.432863 
L 116.80067 151.814581 
L 117.519186 149.855095 
L 118.237703 140.134007 
L 118.956219 122.574973 
L 119.674736 140.057663 
L 120.393253 139.675945 
L 121.830286 153.824963 
L 122.548802 182.173895 
L 123.267319 168.953724 
L 124.704352 193.091033 
L 125.422869 189.184785 
L 126.141386 187.607016 
L 126.859902 197.786166 
L 127.578419 173.941508 
L 128.296935 168.508387 
L 129.015452 187.021715 
L 129.733969 214.250941 
L 131.171002 242.116364 
L 131.889518 241.111173 
L 132.608035 222.356089 
L 133.326552 220.880112 
L 134.045068 200.699948 
L 134.763585 205.267841 
L 135.482101 211.98608 
L 136.200618 219.913093 
L 137.637651 204.084515 
L 138.356168 202.494023 
L 139.074685 196.628288 
L 139.793201 208.665133 
L 141.230234 200.420021 
L 141.948751 195.559477 
L 142.667268 195.724888 
L 143.385784 195.521305 
L 144.104301 197.099074 
L 144.822817 179.909034 
L 145.541334 172.707286 
L 146.259851 206.743818 
L 146.978367 195.572201 
L 147.696884 173.750649 
L 148.4154 189.591951 
L 149.133917 185.494843 
L 149.852434 184.222449 
L 150.57095 181.435907 
L 151.289467 177.720517 
L 152.007984 175.328417 
L 152.7265 164.105904 
L 153.445017 163.240677 
L 154.163533 161.382982 
L 154.88205 179.336457 
L 155.600567 182.975503 
L 157.0376 187.988735 
L 157.756116 172.78363 
L 158.474633 185.443947 
L 159.19315 187.492501 
L 159.911666 199.491174 
L 160.630183 198.867701 
L 161.348699 182.873712 
L 162.067216 183.000951 
L 163.504249 156.306131 
L 164.222766 160.963092 
L 164.941283 172.134709 
L 165.659799 170.175222 
L 167.096832 184.120658 
L 167.815349 176.549915 
L 168.533866 179.069255 
L 169.252382 171.651199 
L 169.970899 176.219093 
L 170.689415 171.905678 
L 171.407932 179.158322 
L 172.126449 176.104577 
L 172.844965 156.751469 
L 173.563482 170.277014 
L 174.281998 171.740267 
L 175.000515 191.742296 
L 175.719032 184.222449 
L 176.437548 165.83636 
L 177.156065 156.535162 
L 177.874582 137.347464 
L 178.593098 145.249029 
L 179.311615 145.376269 
L 180.030131 157.196806 
L 180.748648 164.067732 
L 181.467165 177.936824 
L 182.185681 183.274516 
L 182.904198 197.970663 
L 183.622714 204.701626 
L 184.341231 196.469239 
L 185.059748 202.525833 
L 185.778264 200.820825 
L 186.496781 203.505576 
L 187.215297 186.977182 
L 187.933814 208.417016 
L 188.652331 218.736129 
L 189.370847 216.636679 
L 190.089364 211.483485 
L 190.807881 186.709979 
L 191.526397 181.518612 
L 192.244914 169.927106 
L 192.96343 154.403902 
L 193.681947 162.280019 
L 194.400464 151.948182 
L 195.11898 162.50905 
L 195.837497 144.899121 
L 196.556013 137.671925 
L 197.27453 119.909308 
L 197.993047 96.535435 
L 198.711563 81.432122 
L 199.43008 70.642223 
L 200.148596 81.991975 
L 200.867113 71.660138 
L 201.58563 63.185996 
L 202.304146 52.688748 
L 203.022663 54.202896 
L 203.74118 45.906889 
L 204.459696 48.795223 
L 205.178213 62.956965 
L 205.896729 59.597846 
L 206.615246 63.758573 
L 207.333763 80.986784 
L 208.052279 78.111174 
L 208.770796 57.294813 
L 209.489312 51.88714 
L 210.207829 55.029952 
L 210.926346 56.620444 
L 212.363379 57.880114 
L 213.800412 44.443636 
L 214.518929 47.662792 
L 215.237445 67.194036 
L 215.955962 68.555497 
L 216.674478 70.883978 
L 217.392995 68.377362 
L 218.111512 49.062426 
L 218.830028 47.471933 
L 219.548545 53.999313 
L 220.267062 69.102627 
L 220.985578 65.425409 
L 221.704095 68.975387 
L 222.422611 70.006026 
L 223.141128 60.628485 
L 223.859645 60.933859 
L 224.578161 58.885305 
L 225.296678 88.188533 
L 226.015194 84.994824 
L 226.733711 67.104969 
L 227.452228 69.344382 
L 228.889261 90.186191 
L 229.607777 81.928356 
L 230.326294 93.329003 
L 231.044811 90.73332 
L 231.763327 97.515179 
L 232.481844 83.467952 
L 233.200361 96.662675 
L 233.918877 96.662675 
L 234.637394 104.322485 
L 235.35591 107.961531 
L 236.074427 98.787572 
L 236.792944 96.611779 
L 237.51146 103.673564 
L 238.229977 88.086741 
L 238.948493 79.472636 
L 239.66701 79.205433 
L 240.385527 108.165114 
L 241.104043 116.639256 
L 241.82256 133.307614 
L 242.541076 142.27799 
L 243.259593 124.120931 
L 243.97811 127.365535 
L 244.696626 137.341102 
L 245.415143 160.651355 
L 246.852176 192.728401 
L 248.289209 160.524116 
L 249.007726 162.381811 
L 249.726243 160.384153 
L 250.444759 161.491135 
L 251.163276 148.423652 
L 251.881792 142.532469 
L 252.600309 166.491643 
L 253.318826 175.042128 
L 254.037342 174.914889 
L 254.755859 181.836711 
L 255.474375 167.35687 
L 256.192892 157.457647 
L 256.911409 142.379781 
L 257.629925 135.826954 
L 258.348442 122.924881 
L 259.066959 121.283493 
L 259.785475 125.724148 
L 260.503992 149.657874 
L 261.222508 154.925584 
L 261.941025 155.867155 
L 262.659542 150.879372 
L 263.378058 135.992365 
L 264.096575 140.064025 
L 264.815091 147.087638 
L 265.533608 167.687693 
L 266.252125 177.192474 
L 266.970641 182.422012 
L 267.689158 175.061214 
L 268.407674 174.221434 
L 269.126191 172.630942 
L 269.844708 176.333608 
L 270.563224 184.375136 
L 271.281741 183.936161 
L 272.000258 186.226469 
L 272.718774 189.305662 
L 273.437291 177.383333 
L 274.155807 194.382513 
L 275.592841 203.963638 
L 276.311357 211.356245 
L 277.029874 222.922304 
L 277.74839 198.924959 
L 278.466907 199.917426 
L 279.185424 191.048841 
L 279.90394 180.398906 
L 280.622457 201.940532 
L 281.340973 211.521656 
L 282.05949 225.823362 
L 282.778007 222.833237 
L 283.496523 201.915084 
L 284.21504 195.540391 
L 284.933557 191.557799 
L 285.652073 211.890651 
L 286.37059 215.695108 
L 287.089106 212.348712 
L 287.807623 198.861339 
L 288.52614 179.304647 
L 289.244656 203.989086 
L 289.963173 217.998141 
L 290.681689 235.455382 
L 291.400206 231.739993 
L 292.118723 221.700806 
L 292.837239 207.157346 
L 293.555756 186.175573 
L 294.274272 175.56381 
L 294.992789 177.408781 
L 295.711306 174.673134 
L 296.429822 195.973005 
L 297.866856 168.412957 
L 298.585372 193.186463 
L 299.303889 186.334623 
L 300.740922 176.091853 
L 301.459439 174.386846 
L 302.177955 175.761031 
L 302.896472 156.242511 
L 303.614988 152.997907 
L 304.333505 142.042597 
L 305.052022 144.485593 
L 305.770538 156.026204 
L 306.489055 147.310307 
L 307.207571 163.431536 
L 307.926088 149.676959 
L 308.644605 151.000249 
L 309.363121 140.859271 
L 310.081638 149.25707 
L 310.800155 171.905678 
L 312.237188 141.304609 
L 312.955704 134.357339 
L 313.674221 119.13951 
L 314.392738 112.879333 
L 315.111254 130.883704 
L 315.829771 123.478373 
L 316.548287 105.66486 
L 317.266804 106.224714 
L 317.985321 104.799633 
L 318.703837 89.314601 
L 319.422354 89.899902 
L 320.14087 96.796276 
L 320.859387 88.067655 
L 321.577904 93.780703 
L 322.29642 78.359291 
L 323.014937 58.179127 
L 323.733454 75.661816 
L 324.45197 69.248952 
L 325.170487 82.036509 
L 325.889003 103.603583 
L 326.60752 92.762788 
L 327.326037 79.631685 
L 328.044553 77.366824 
L 328.76307 93.169954 
L 330.200103 131.939791 
L 330.91862 160.046968 
L 331.637136 173.763373 
L 332.355653 154.982841 
L 333.074169 147.380289 
L 333.792686 133.498473 
L 334.511203 151.019335 
L 335.229719 149.64515 
L 335.948236 170.855953 
L 336.666753 171.123156 
L 337.385269 170.397891 
L 338.103786 167.522281 
L 339.540819 187.040801 
L 340.259336 180.538869 
L 340.977852 162.101884 
L 341.696369 175.372951 
L 342.414885 170.219756 
L 343.133402 150.892095 
L 343.851919 142.443401 
L 344.570435 139.160625 
L 345.288952 151.897287 
L 346.007468 147.202154 
L 346.725985 146.018827 
L 347.444502 145.128152 
L 348.163018 133.765676 
L 348.881535 136.552218 
L 349.600052 129.630396 
L 351.037085 150.090487 
L 351.755601 151.820943 
L 352.474118 154.42935 
L 353.192635 138.995214 
L 353.911151 136.335911 
L 354.629668 130.050286 
L 355.348184 143.194113 
L 356.066701 162.458154 
L 357.503734 152.838858 
L 358.222251 156.490628 
L 358.940767 153.996736 
L 359.659284 133.129479 
L 360.377801 146.896779 
L 361.096317 163.361554 
L 361.814834 143.995721 
L 362.533351 133.702056 
L 363.251867 136.450427 
L 363.970384 138.129986 
L 364.6889 146.34965 
L 365.407417 166.567986 
L 366.125934 170.385167 
L 366.84445 189.941859 
L 367.562967 188.109612 
L 368.281483 178.108597 
L 369 188.618569 
L 369.718517 190.539884 
L 370.437033 190.285405 
L 371.15555 197.296295 
L 371.874066 184.788664 
L 372.592583 186.39188 
L 373.3111 162.419983 
L 374.029616 157.075929 
L 375.466649 149.848733 
L 376.903683 171.988383 
L 377.622199 163.068903 
L 378.340716 137.124795 
L 379.059233 138.613496 
L 379.777749 122.695851 
L 380.496266 111.956847 
L 381.214782 104.882338 
L 381.933299 100.00907 
L 382.651816 92.934561 
L 389.836982 94.944943 
L 390.555498 108.6359 
L 391.274015 110.773521 
L 391.992532 113.407376 
L 393.429565 141.412762 
L 394.866598 97.795105 
L 395.585115 97.909621 
L 396.303631 107.427126 
L 397.740664 113.636407 
L 398.459181 108.99217 
L 399.177698 122.8549 
L 399.896214 126.277639 
L 400.614731 130.489262 
L 401.333247 144.21839 
L 402.051764 155.415455 
L 402.770281 147.653853 
L 403.488797 150.580359 
L 404.207314 142.551555 
L 404.925831 126.672081 
L 412.110997 127.21921 
L 412.829513 136.253206 
L 413.54803 134.637266 
L 414.985063 140.681136 
L 415.70358 129.000561 
L 416.422096 148.200983 
L 417.140613 154.206681 
L 417.85913 140.083111 
L 419.296163 156.942328 
L 420.014679 139.85408 
L 420.733196 147.030381 
L 421.451713 158.201997 
L 422.170229 159.779766 
L 422.888746 165.225611 
L 423.607262 158.774575 
L 424.325779 148.748112 
L 425.044296 145.83433 
L 432.229462 148.83718 
L 432.947978 136.787611 
L 433.666495 134.891744 
L 434.385012 125.577822 
L 435.103528 113.15926 
L 435.822045 120.475523 
L 436.540561 110.659006 
L 437.259078 108.775863 
L 438.696111 95.695656 
L 440.133144 99.143843 
L 441.570178 135.33072 
L 442.288694 140.700222 
L 443.007211 148.016486 
L 443.725728 151.095678 
L 444.444244 150.701236 
L 445.162761 164.6085 
L 445.881277 158.348323 
L 446.599794 140.751117 
L 447.318311 162.267295 
L 467.436776 169.252737 
L 468.155292 155.956222 
L 468.873809 150.815752 
L 489.710791 154.060356 
L 490.429307 144.059341 
L 491.147824 140.458467 
L 511.266289 147.163982 
L 511.984806 141.031044 
L 512.703322 133.791124 
L 533.540304 138.511705 
L 534.25882 131.882533 
L 534.977337 136.615838 
L 555.814319 137.78644 
L 556.532835 138.435361 
L 557.251352 121.296217 
L 577.369817 123.777385 
L 578.088334 116.384778 
L 578.80685 116.467483 
L 599.643832 108.985808 
L 600.362349 92.826408 
L 601.080865 115.589532 
L 621.19933 130.629225 
L 621.917847 127.231934 
L 622.636364 128.822426 
L 622.636364 128.822426 
" style="fill:none;stroke:#1f77b4;stroke-linecap:square;stroke-width:1.5;"/>
   </g>
   <g id="patch_3">
    <path d="M 90 252 
L 90 34.56 
" style="fill:none;stroke:#000000;stroke-linecap:square;stroke-linejoin:miter;stroke-width:0.8;"/>
   </g>
   <g id="patch_4">
    <path d="M 648 252 
L 648 34.56 
" style="fill:none;stroke:#000000;stroke-linecap:square;stroke-linejoin:miter;stroke-width:0.8;"/>
   </g>
   <g id="patch_5">
    <path d="M 90 252 
L 648 252 
" style="fill:none;stroke:#000000;stroke-linecap:square;stroke-linejoin:miter;stroke-width:0.8;"/>
   </g>
   <g id="patch_6">
    <path d="M 90 34.56 
L 648 34.56 
" style="fill:none;stroke:#000000;stroke-linecap:square;stroke-linejoin:miter;stroke-width:0.8;"/>
   </g>
   <g id="text_15">
    <!-- MA360 of Afternoon Travel Time -->
    <defs>
     <path d="M 9.8125 72.90625 
L 24.515625 72.90625 
L 43.109375 23.296875 
L 61.8125 72.90625 
L 76.515625 72.90625 
L 76.515625 0 
L 66.890625 0 
L 66.890625 64.015625 
L 48.09375 14.015625 
L 38.1875 14.015625 
L 19.390625 64.015625 
L 19.390625 0 
L 9.8125 0 
z
" id="DejaVuSans-77"/>
     <path d="M 34.1875 63.1875 
L 20.796875 26.90625 
L 47.609375 26.90625 
z
M 28.609375 72.90625 
L 39.796875 72.90625 
L 67.578125 0 
L 57.328125 0 
L 50.6875 18.703125 
L 17.828125 18.703125 
L 11.1875 0 
L 0.78125 0 
z
" id="DejaVuSans-65"/>
     <path d="M 33.015625 40.375 
Q 26.375 40.375 22.484375 35.828125 
Q 18.609375 31.296875 18.609375 23.390625 
Q 18.609375 15.53125 22.484375 10.953125 
Q 26.375 6.390625 33.015625 6.390625 
Q 39.65625 6.390625 43.53125 10.953125 
Q 47.40625 15.53125 47.40625 23.390625 
Q 47.40625 31.296875 43.53125 35.828125 
Q 39.65625 40.375 33.015625 40.375 
z
M 52.59375 71.296875 
L 52.59375 62.3125 
Q 48.875 64.0625 45.09375 64.984375 
Q 41.3125 65.921875 37.59375 65.921875 
Q 27.828125 65.921875 22.671875 59.328125 
Q 17.53125 52.734375 16.796875 39.40625 
Q 19.671875 43.65625 24.015625 45.921875 
Q 28.375 48.1875 33.59375 48.1875 
Q 44.578125 48.1875 50.953125 41.515625 
Q 57.328125 34.859375 57.328125 23.390625 
Q 57.328125 12.15625 50.6875 5.359375 
Q 44.046875 -1.421875 33.015625 -1.421875 
Q 20.359375 -1.421875 13.671875 8.265625 
Q 6.984375 17.96875 6.984375 36.375 
Q 6.984375 53.65625 15.1875 63.9375 
Q 23.390625 74.21875 37.203125 74.21875 
Q 40.921875 74.21875 44.703125 73.484375 
Q 48.484375 72.75 52.59375 71.296875 
z
" id="DejaVuSans-54"/>
     <path id="DejaVuSans-32"/>
     <path d="M 30.609375 48.390625 
Q 23.390625 48.390625 19.1875 42.75 
Q 14.984375 37.109375 14.984375 27.296875 
Q 14.984375 17.484375 19.15625 11.84375 
Q 23.34375 6.203125 30.609375 6.203125 
Q 37.796875 6.203125 41.984375 11.859375 
Q 46.1875 17.53125 46.1875 27.296875 
Q 46.1875 37.015625 41.984375 42.703125 
Q 37.796875 48.390625 30.609375 48.390625 
z
M 30.609375 56 
Q 42.328125 56 49.015625 48.375 
Q 55.71875 40.765625 55.71875 27.296875 
Q 55.71875 13.875 49.015625 6.21875 
Q 42.328125 -1.421875 30.609375 -1.421875 
Q 18.84375 -1.421875 12.171875 6.21875 
Q 5.515625 13.875 5.515625 27.296875 
Q 5.515625 40.765625 12.171875 48.375 
Q 18.84375 56 30.609375 56 
z
" id="DejaVuSans-111"/>
     <path d="M 37.109375 75.984375 
L 37.109375 68.5 
L 28.515625 68.5 
Q 23.6875 68.5 21.796875 66.546875 
Q 19.921875 64.59375 19.921875 59.515625 
L 19.921875 54.6875 
L 34.71875 54.6875 
L 34.71875 47.703125 
L 19.921875 47.703125 
L 19.921875 0 
L 10.890625 0 
L 10.890625 47.703125 
L 2.296875 47.703125 
L 2.296875 54.6875 
L 10.890625 54.6875 
L 10.890625 58.5 
Q 10.890625 67.625 15.140625 71.796875 
Q 19.390625 75.984375 28.609375 75.984375 
z
" id="DejaVuSans-102"/>
     <path d="M 18.3125 70.21875 
L 18.3125 54.6875 
L 36.8125 54.6875 
L 36.8125 47.703125 
L 18.3125 47.703125 
L 18.3125 18.015625 
Q 18.3125 11.328125 20.140625 9.421875 
Q 21.96875 7.515625 27.59375 7.515625 
L 36.8125 7.515625 
L 36.8125 0 
L 27.59375 0 
Q 17.1875 0 13.234375 3.875 
Q 9.28125 7.765625 9.28125 18.015625 
L 9.28125 47.703125 
L 2.6875 47.703125 
L 2.6875 54.6875 
L 9.28125 54.6875 
L 9.28125 70.21875 
z
" id="DejaVuSans-116"/>
     <path d="M 56.203125 29.59375 
L 56.203125 25.203125 
L 14.890625 25.203125 
Q 15.484375 15.921875 20.484375 11.0625 
Q 25.484375 6.203125 34.421875 6.203125 
Q 39.59375 6.203125 44.453125 7.46875 
Q 49.3125 8.734375 54.109375 11.28125 
L 54.109375 2.78125 
Q 49.265625 0.734375 44.1875 -0.34375 
Q 39.109375 -1.421875 33.890625 -1.421875 
Q 20.796875 -1.421875 13.15625 6.1875 
Q 5.515625 13.8125 5.515625 26.8125 
Q 5.515625 40.234375 12.765625 48.109375 
Q 20.015625 56 32.328125 56 
Q 43.359375 56 49.78125 48.890625 
Q 56.203125 41.796875 56.203125 29.59375 
z
M 47.21875 32.234375 
Q 47.125 39.59375 43.09375 43.984375 
Q 39.0625 48.390625 32.421875 48.390625 
Q 24.90625 48.390625 20.390625 44.140625 
Q 15.875 39.890625 15.1875 32.171875 
z
" id="DejaVuSans-101"/>
     <path d="M 41.109375 46.296875 
Q 39.59375 47.171875 37.8125 47.578125 
Q 36.03125 48 33.890625 48 
Q 26.265625 48 22.1875 43.046875 
Q 18.109375 38.09375 18.109375 28.8125 
L 18.109375 0 
L 9.078125 0 
L 9.078125 54.6875 
L 18.109375 54.6875 
L 18.109375 46.1875 
Q 20.953125 51.171875 25.484375 53.578125 
Q 30.03125 56 36.53125 56 
Q 37.453125 56 38.578125 55.875 
Q 39.703125 55.765625 41.0625 55.515625 
z
" id="DejaVuSans-114"/>
     <path d="M 54.890625 33.015625 
L 54.890625 0 
L 45.90625 0 
L 45.90625 32.71875 
Q 45.90625 40.484375 42.875 44.328125 
Q 39.84375 48.1875 33.796875 48.1875 
Q 26.515625 48.1875 22.3125 43.546875 
Q 18.109375 38.921875 18.109375 30.90625 
L 18.109375 0 
L 9.078125 0 
L 9.078125 54.6875 
L 18.109375 54.6875 
L 18.109375 46.1875 
Q 21.34375 51.125 25.703125 53.5625 
Q 30.078125 56 35.796875 56 
Q 45.21875 56 50.046875 50.171875 
Q 54.890625 44.34375 54.890625 33.015625 
z
" id="DejaVuSans-110"/>
     <path d="M -0.296875 72.90625 
L 61.375 72.90625 
L 61.375 64.59375 
L 35.5 64.59375 
L 35.5 0 
L 25.59375 0 
L 25.59375 64.59375 
L -0.296875 64.59375 
z
" id="DejaVuSans-84"/>
     <path d="M 34.28125 27.484375 
Q 23.390625 27.484375 19.1875 25 
Q 14.984375 22.515625 14.984375 16.5 
Q 14.984375 11.71875 18.140625 8.90625 
Q 21.296875 6.109375 26.703125 6.109375 
Q 34.1875 6.109375 38.703125 11.40625 
Q 43.21875 16.703125 43.21875 25.484375 
L 43.21875 27.484375 
z
M 52.203125 31.203125 
L 52.203125 0 
L 43.21875 0 
L 43.21875 8.296875 
Q 40.140625 3.328125 35.546875 0.953125 
Q 30.953125 -1.421875 24.3125 -1.421875 
Q 15.921875 -1.421875 10.953125 3.296875 
Q 6 8.015625 6 15.921875 
Q 6 25.140625 12.171875 29.828125 
Q 18.359375 34.515625 30.609375 34.515625 
L 43.21875 34.515625 
L 43.21875 35.40625 
Q 43.21875 41.609375 39.140625 45 
Q 35.0625 48.390625 27.6875 48.390625 
Q 23 48.390625 18.546875 47.265625 
Q 14.109375 46.140625 10.015625 43.890625 
L 10.015625 52.203125 
Q 14.9375 54.109375 19.578125 55.046875 
Q 24.21875 56 28.609375 56 
Q 40.484375 56 46.34375 49.84375 
Q 52.203125 43.703125 52.203125 31.203125 
z
" id="DejaVuSans-97"/>
     <path d="M 2.984375 54.6875 
L 12.5 54.6875 
L 29.59375 8.796875 
L 46.6875 54.6875 
L 56.203125 54.6875 
L 35.6875 0 
L 23.484375 0 
z
" id="DejaVuSans-118"/>
     <path d="M 9.421875 75.984375 
L 18.40625 75.984375 
L 18.40625 0 
L 9.421875 0 
z
" id="DejaVuSans-108"/>
     <path d="M 9.421875 54.6875 
L 18.40625 54.6875 
L 18.40625 0 
L 9.421875 0 
z
M 9.421875 75.984375 
L 18.40625 75.984375 
L 18.40625 64.59375 
L 9.421875 64.59375 
z
" id="DejaVuSans-105"/>
     <path d="M 52 44.1875 
Q 55.375 50.25 60.0625 53.125 
Q 64.75 56 71.09375 56 
Q 79.640625 56 84.28125 50.015625 
Q 88.921875 44.046875 88.921875 33.015625 
L 88.921875 0 
L 79.890625 0 
L 79.890625 32.71875 
Q 79.890625 40.578125 77.09375 44.375 
Q 74.3125 48.1875 68.609375 48.1875 
Q 61.625 48.1875 57.5625 43.546875 
Q 53.515625 38.921875 53.515625 30.90625 
L 53.515625 0 
L 44.484375 0 
L 44.484375 32.71875 
Q 44.484375 40.625 41.703125 44.40625 
Q 38.921875 48.1875 33.109375 48.1875 
Q 26.21875 48.1875 22.15625 43.53125 
Q 18.109375 38.875 18.109375 30.90625 
L 18.109375 0 
L 9.078125 0 
L 9.078125 54.6875 
L 18.109375 54.6875 
L 18.109375 46.1875 
Q 21.1875 51.21875 25.484375 53.609375 
Q 29.78125 56 35.6875 56 
Q 41.65625 56 45.828125 52.96875 
Q 50 49.953125 52 44.1875 
z
" id="DejaVuSans-109"/>
    </defs>
    <g transform="translate(271.615313 28.56)scale(0.12 -0.12)">
     <use xlink:href="#DejaVuSans-77"/>
     <use x="86.279297" xlink:href="#DejaVuSans-65"/>
     <use x="154.6875" xlink:href="#DejaVuSans-51"/>
     <use x="218.310547" xlink:href="#DejaVuSans-54"/>
     <use x="281.933594" xlink:href="#DejaVuSans-48"/>
     <use x="345.556641" xlink:href="#DejaVuSans-32"/>
     <use x="377.34375" xlink:href="#DejaVuSans-111"/>
     <use x="438.525391" xlink:href="#DejaVuSans-102"/>
     <use x="473.730469" xlink:href="#DejaVuSans-32"/>
     <use x="505.517578" xlink:href="#DejaVuSans-65"/>
     <use x="573.878906" xlink:href="#DejaVuSans-102"/>
     <use x="609.068359" xlink:href="#DejaVuSans-116"/>
     <use x="648.277344" xlink:href="#DejaVuSans-101"/>
     <use x="709.800781" xlink:href="#DejaVuSans-114"/>
     <use x="750.898438" xlink:href="#DejaVuSans-110"/>
     <use x="814.277344" xlink:href="#DejaVuSans-111"/>
     <use x="875.458984" xlink:href="#DejaVuSans-111"/>
     <use x="936.640625" xlink:href="#DejaVuSans-110"/>
     <use x="1000.019531" xlink:href="#DejaVuSans-32"/>
     <use x="1031.806641" xlink:href="#DejaVuSans-84"/>
     <use x="1092.671875" xlink:href="#DejaVuSans-114"/>
     <use x="1133.785156" xlink:href="#DejaVuSans-97"/>
     <use x="1195.064453" xlink:href="#DejaVuSans-118"/>
     <use x="1254.244141" xlink:href="#DejaVuSans-101"/>
     <use x="1315.767578" xlink:href="#DejaVuSans-108"/>
     <use x="1343.550781" xlink:href="#DejaVuSans-32"/>
     <use x="1375.337891" xlink:href="#DejaVuSans-84"/>
     <use x="1436.375" xlink:href="#DejaVuSans-105"/>
     <use x="1464.158203" xlink:href="#DejaVuSans-109"/>
     <use x="1561.570312" xlink:href="#DejaVuSans-101"/>
    </g>
   </g>
  </g>
 </g>
 <defs>
  <clipPath id="pfba11de300">
   <rect height="217.44" width="558" x="90" y="34.56"/>
  </clipPath>
 </defs>
</svg>
