<?xml version="1.0" encoding="utf-8" standalone="no"?>
<!DOCTYPE svg PUBLIC "-//W3C//DTD SVG 1.1//EN"
  "http://www.w3.org/Graphics/SVG/1.1/DTD/svg11.dtd">
<!-- Created with matplotlib (https://matplotlib.org/) -->
<svg height="288pt" version="1.1" viewBox="0 0 720 288" width="720pt" xmlns="http://www.w3.org/2000/svg" xmlns:xlink="http://www.w3.org/1999/xlink">
 <defs>
  <style type="text/css">
*{stroke-linecap:butt;stroke-linejoin:round;}
  </style>
 </defs>
 <g id="figure_1">
  <g id="patch_1">
   <path d="M 0 288 
L 720 288 
L 720 0 
L 0 0 
z
" style="fill:#ffffff;"/>
  </g>
  <g id="axes_1">
   <g id="patch_2">
    <path d="M 90 252 
L 648 252 
L 648 34.56 
L 90 34.56 
z
" style="fill:#ffffff;"/>
   </g>
   <g id="matplotlib.axis_1">
    <g id="xtick_1">
     <g id="line2d_1">
      <defs>
       <path d="M 0 0 
L 0 3.5 
" id="me89a31ef35" style="stroke:#000000;stroke-width:0.8;"/>
      </defs>
      <g>
       <use style="stroke:#000000;stroke-width:0.8;" x="118.956219" xlink:href="#me89a31ef35" y="252"/>
      </g>
     </g>
     <g id="text_1">
      <!-- 2017-01 -->
      <defs>
       <path d="M 19.1875 8.296875 
L 53.609375 8.296875 
L 53.609375 0 
L 7.328125 0 
L 7.328125 8.296875 
Q 12.9375 14.109375 22.625 23.890625 
Q 32.328125 33.6875 34.8125 36.53125 
Q 39.546875 41.84375 41.421875 45.53125 
Q 43.3125 49.21875 43.3125 52.78125 
Q 43.3125 58.59375 39.234375 62.25 
Q 35.15625 65.921875 28.609375 65.921875 
Q 23.96875 65.921875 18.8125 64.3125 
Q 13.671875 62.703125 7.8125 59.421875 
L 7.8125 69.390625 
Q 13.765625 71.78125 18.9375 73 
Q 24.125 74.21875 28.421875 74.21875 
Q 39.75 74.21875 46.484375 68.546875 
Q 53.21875 62.890625 53.21875 53.421875 
Q 53.21875 48.921875 51.53125 44.890625 
Q 49.859375 40.875 45.40625 35.40625 
Q 44.1875 33.984375 37.640625 27.21875 
Q 31.109375 20.453125 19.1875 8.296875 
z
" id="DejaVuSans-50"/>
       <path d="M 31.78125 66.40625 
Q 24.171875 66.40625 20.328125 58.90625 
Q 16.5 51.421875 16.5 36.375 
Q 16.5 21.390625 20.328125 13.890625 
Q 24.171875 6.390625 31.78125 6.390625 
Q 39.453125 6.390625 43.28125 13.890625 
Q 47.125 21.390625 47.125 36.375 
Q 47.125 51.421875 43.28125 58.90625 
Q 39.453125 66.40625 31.78125 66.40625 
z
M 31.78125 74.21875 
Q 44.046875 74.21875 50.515625 64.515625 
Q 56.984375 54.828125 56.984375 36.375 
Q 56.984375 17.96875 50.515625 8.265625 
Q 44.046875 -1.421875 31.78125 -1.421875 
Q 19.53125 -1.421875 13.0625 8.265625 
Q 6.59375 17.96875 6.59375 36.375 
Q 6.59375 54.828125 13.0625 64.515625 
Q 19.53125 74.21875 31.78125 74.21875 
z
" id="DejaVuSans-48"/>
       <path d="M 12.40625 8.296875 
L 28.515625 8.296875 
L 28.515625 63.921875 
L 10.984375 60.40625 
L 10.984375 69.390625 
L 28.421875 72.90625 
L 38.28125 72.90625 
L 38.28125 8.296875 
L 54.390625 8.296875 
L 54.390625 0 
L 12.40625 0 
z
" id="DejaVuSans-49"/>
       <path d="M 8.203125 72.90625 
L 55.078125 72.90625 
L 55.078125 68.703125 
L 28.609375 0 
L 18.3125 0 
L 43.21875 64.59375 
L 8.203125 64.59375 
z
" id="DejaVuSans-55"/>
       <path d="M 4.890625 31.390625 
L 31.203125 31.390625 
L 31.203125 23.390625 
L 4.890625 23.390625 
z
" id="DejaVuSans-45"/>
      </defs>
      <g transform="translate(98.064813 266.598437)scale(0.1 -0.1)">
       <use xlink:href="#DejaVuSans-50"/>
       <use x="63.623047" xlink:href="#DejaVuSans-48"/>
       <use x="127.246094" xlink:href="#DejaVuSans-49"/>
       <use x="190.869141" xlink:href="#DejaVuSans-55"/>
       <use x="254.492188" xlink:href="#DejaVuSans-45"/>
       <use x="290.576172" xlink:href="#DejaVuSans-48"/>
       <use x="354.199219" xlink:href="#DejaVuSans-49"/>
      </g>
     </g>
    </g>
    <g id="xtick_2">
     <g id="line2d_2">
      <g>
       <use style="stroke:#000000;stroke-width:0.8;" x="183.622714" xlink:href="#me89a31ef35" y="252"/>
      </g>
     </g>
     <g id="text_2">
      <!-- 2017-04 -->
      <defs>
       <path d="M 37.796875 64.3125 
L 12.890625 25.390625 
L 37.796875 25.390625 
z
M 35.203125 72.90625 
L 47.609375 72.90625 
L 47.609375 25.390625 
L 58.015625 25.390625 
L 58.015625 17.1875 
L 47.609375 17.1875 
L 47.609375 0 
L 37.796875 0 
L 37.796875 17.1875 
L 4.890625 17.1875 
L 4.890625 26.703125 
z
" id="DejaVuSans-52"/>
      </defs>
      <g transform="translate(162.731308 266.598437)scale(0.1 -0.1)">
       <use xlink:href="#DejaVuSans-50"/>
       <use x="63.623047" xlink:href="#DejaVuSans-48"/>
       <use x="127.246094" xlink:href="#DejaVuSans-49"/>
       <use x="190.869141" xlink:href="#DejaVuSans-55"/>
       <use x="254.492188" xlink:href="#DejaVuSans-45"/>
       <use x="290.576172" xlink:href="#DejaVuSans-48"/>
       <use x="354.199219" xlink:href="#DejaVuSans-52"/>
      </g>
     </g>
    </g>
    <g id="xtick_3">
     <g id="line2d_3">
      <g>
       <use style="stroke:#000000;stroke-width:0.8;" x="249.007726" xlink:href="#me89a31ef35" y="252"/>
      </g>
     </g>
     <g id="text_3">
      <!-- 2017-07 -->
      <g transform="translate(228.11632 266.598437)scale(0.1 -0.1)">
       <use xlink:href="#DejaVuSans-50"/>
       <use x="63.623047" xlink:href="#DejaVuSans-48"/>
       <use x="127.246094" xlink:href="#DejaVuSans-49"/>
       <use x="190.869141" xlink:href="#DejaVuSans-55"/>
       <use x="254.492188" xlink:href="#DejaVuSans-45"/>
       <use x="290.576172" xlink:href="#DejaVuSans-48"/>
       <use x="354.199219" xlink:href="#DejaVuSans-55"/>
      </g>
     </g>
    </g>
    <g id="xtick_4">
     <g id="line2d_4">
      <g>
       <use style="stroke:#000000;stroke-width:0.8;" x="315.111254" xlink:href="#me89a31ef35" y="252"/>
      </g>
     </g>
     <g id="text_4">
      <!-- 2017-10 -->
      <g transform="translate(294.219848 266.598437)scale(0.1 -0.1)">
       <use xlink:href="#DejaVuSans-50"/>
       <use x="63.623047" xlink:href="#DejaVuSans-48"/>
       <use x="127.246094" xlink:href="#DejaVuSans-49"/>
       <use x="190.869141" xlink:href="#DejaVuSans-55"/>
       <use x="254.492188" xlink:href="#DejaVuSans-45"/>
       <use x="290.576172" xlink:href="#DejaVuSans-49"/>
       <use x="354.199219" xlink:href="#DejaVuSans-48"/>
      </g>
     </g>
    </g>
    <g id="xtick_5">
     <g id="line2d_5">
      <g>
       <use style="stroke:#000000;stroke-width:0.8;" x="381.214782" xlink:href="#me89a31ef35" y="252"/>
      </g>
     </g>
     <g id="text_5">
      <!-- 2018-01 -->
      <defs>
       <path d="M 31.78125 34.625 
Q 24.75 34.625 20.71875 30.859375 
Q 16.703125 27.09375 16.703125 20.515625 
Q 16.703125 13.921875 20.71875 10.15625 
Q 24.75 6.390625 31.78125 6.390625 
Q 38.8125 6.390625 42.859375 10.171875 
Q 46.921875 13.96875 46.921875 20.515625 
Q 46.921875 27.09375 42.890625 30.859375 
Q 38.875 34.625 31.78125 34.625 
z
M 21.921875 38.8125 
Q 15.578125 40.375 12.03125 44.71875 
Q 8.5 49.078125 8.5 55.328125 
Q 8.5 64.0625 14.71875 69.140625 
Q 20.953125 74.21875 31.78125 74.21875 
Q 42.671875 74.21875 48.875 69.140625 
Q 55.078125 64.0625 55.078125 55.328125 
Q 55.078125 49.078125 51.53125 44.71875 
Q 48 40.375 41.703125 38.8125 
Q 48.828125 37.15625 52.796875 32.3125 
Q 56.78125 27.484375 56.78125 20.515625 
Q 56.78125 9.90625 50.3125 4.234375 
Q 43.84375 -1.421875 31.78125 -1.421875 
Q 19.734375 -1.421875 13.25 4.234375 
Q 6.78125 9.90625 6.78125 20.515625 
Q 6.78125 27.484375 10.78125 32.3125 
Q 14.796875 37.15625 21.921875 38.8125 
z
M 18.3125 54.390625 
Q 18.3125 48.734375 21.84375 45.5625 
Q 25.390625 42.390625 31.78125 42.390625 
Q 38.140625 42.390625 41.71875 45.5625 
Q 45.3125 48.734375 45.3125 54.390625 
Q 45.3125 60.0625 41.71875 63.234375 
Q 38.140625 66.40625 31.78125 66.40625 
Q 25.390625 66.40625 21.84375 63.234375 
Q 18.3125 60.0625 18.3125 54.390625 
z
" id="DejaVuSans-56"/>
      </defs>
      <g transform="translate(360.323376 266.598437)scale(0.1 -0.1)">
       <use xlink:href="#DejaVuSans-50"/>
       <use x="63.623047" xlink:href="#DejaVuSans-48"/>
       <use x="127.246094" xlink:href="#DejaVuSans-49"/>
       <use x="190.869141" xlink:href="#DejaVuSans-56"/>
       <use x="254.492188" xlink:href="#DejaVuSans-45"/>
       <use x="290.576172" xlink:href="#DejaVuSans-48"/>
       <use x="354.199219" xlink:href="#DejaVuSans-49"/>
      </g>
     </g>
    </g>
    <g id="xtick_6">
     <g id="line2d_6">
      <g>
       <use style="stroke:#000000;stroke-width:0.8;" x="445.881277" xlink:href="#me89a31ef35" y="252"/>
      </g>
     </g>
     <g id="text_6">
      <!-- 2018-04 -->
      <g transform="translate(424.989871 266.598437)scale(0.1 -0.1)">
       <use xlink:href="#DejaVuSans-50"/>
       <use x="63.623047" xlink:href="#DejaVuSans-48"/>
       <use x="127.246094" xlink:href="#DejaVuSans-49"/>
       <use x="190.869141" xlink:href="#DejaVuSans-56"/>
       <use x="254.492188" xlink:href="#DejaVuSans-45"/>
       <use x="290.576172" xlink:href="#DejaVuSans-48"/>
       <use x="354.199219" xlink:href="#DejaVuSans-52"/>
      </g>
     </g>
    </g>
    <g id="xtick_7">
     <g id="line2d_7">
      <g>
       <use style="stroke:#000000;stroke-width:0.8;" x="511.266289" xlink:href="#me89a31ef35" y="252"/>
      </g>
     </g>
     <g id="text_7">
      <!-- 2018-07 -->
      <g transform="translate(490.374883 266.598437)scale(0.1 -0.1)">
       <use xlink:href="#DejaVuSans-50"/>
       <use x="63.623047" xlink:href="#DejaVuSans-48"/>
       <use x="127.246094" xlink:href="#DejaVuSans-49"/>
       <use x="190.869141" xlink:href="#DejaVuSans-56"/>
       <use x="254.492188" xlink:href="#DejaVuSans-45"/>
       <use x="290.576172" xlink:href="#DejaVuSans-48"/>
       <use x="354.199219" xlink:href="#DejaVuSans-55"/>
      </g>
     </g>
    </g>
    <g id="xtick_8">
     <g id="line2d_8">
      <g>
       <use style="stroke:#000000;stroke-width:0.8;" x="577.369817" xlink:href="#me89a31ef35" y="252"/>
      </g>
     </g>
     <g id="text_8">
      <!-- 2018-10 -->
      <g transform="translate(556.478411 266.598437)scale(0.1 -0.1)">
       <use xlink:href="#DejaVuSans-50"/>
       <use x="63.623047" xlink:href="#DejaVuSans-48"/>
       <use x="127.246094" xlink:href="#DejaVuSans-49"/>
       <use x="190.869141" xlink:href="#DejaVuSans-56"/>
       <use x="254.492188" xlink:href="#DejaVuSans-45"/>
       <use x="290.576172" xlink:href="#DejaVuSans-49"/>
       <use x="354.199219" xlink:href="#DejaVuSans-48"/>
      </g>
     </g>
    </g>
    <g id="xtick_9">
     <g id="line2d_9">
      <g>
       <use style="stroke:#000000;stroke-width:0.8;" x="643.473345" xlink:href="#me89a31ef35" y="252"/>
      </g>
     </g>
     <g id="text_9">
      <!-- 2019-01 -->
      <defs>
       <path d="M 10.984375 1.515625 
L 10.984375 10.5 
Q 14.703125 8.734375 18.5 7.8125 
Q 22.3125 6.890625 25.984375 6.890625 
Q 35.75 6.890625 40.890625 13.453125 
Q 46.046875 20.015625 46.78125 33.40625 
Q 43.953125 29.203125 39.59375 26.953125 
Q 35.25 24.703125 29.984375 24.703125 
Q 19.046875 24.703125 12.671875 31.3125 
Q 6.296875 37.9375 6.296875 49.421875 
Q 6.296875 60.640625 12.9375 67.421875 
Q 19.578125 74.21875 30.609375 74.21875 
Q 43.265625 74.21875 49.921875 64.515625 
Q 56.59375 54.828125 56.59375 36.375 
Q 56.59375 19.140625 48.40625 8.859375 
Q 40.234375 -1.421875 26.421875 -1.421875 
Q 22.703125 -1.421875 18.890625 -0.6875 
Q 15.09375 0.046875 10.984375 1.515625 
z
M 30.609375 32.421875 
Q 37.25 32.421875 41.125 36.953125 
Q 45.015625 41.5 45.015625 49.421875 
Q 45.015625 57.28125 41.125 61.84375 
Q 37.25 66.40625 30.609375 66.40625 
Q 23.96875 66.40625 20.09375 61.84375 
Q 16.21875 57.28125 16.21875 49.421875 
Q 16.21875 41.5 20.09375 36.953125 
Q 23.96875 32.421875 30.609375 32.421875 
z
" id="DejaVuSans-57"/>
      </defs>
      <g transform="translate(622.581939 266.598437)scale(0.1 -0.1)">
       <use xlink:href="#DejaVuSans-50"/>
       <use x="63.623047" xlink:href="#DejaVuSans-48"/>
       <use x="127.246094" xlink:href="#DejaVuSans-49"/>
       <use x="190.869141" xlink:href="#DejaVuSans-57"/>
       <use x="254.492188" xlink:href="#DejaVuSans-45"/>
       <use x="290.576172" xlink:href="#DejaVuSans-48"/>
       <use x="354.199219" xlink:href="#DejaVuSans-49"/>
      </g>
     </g>
    </g>
   </g>
   <g id="matplotlib.axis_2">
    <g id="ytick_1">
     <g id="line2d_10">
      <defs>
       <path d="M 0 0 
L -3.5 0 
" id="mc866930b26" style="stroke:#000000;stroke-width:0.8;"/>
      </defs>
      <g>
       <use style="stroke:#000000;stroke-width:0.8;" x="90" xlink:href="#mc866930b26" y="236.755015"/>
      </g>
     </g>
     <g id="text_10">
      <!-- 2980 -->
      <g transform="translate(57.55 240.554234)scale(0.1 -0.1)">
       <use xlink:href="#DejaVuSans-50"/>
       <use x="63.623047" xlink:href="#DejaVuSans-57"/>
       <use x="127.246094" xlink:href="#DejaVuSans-56"/>
       <use x="190.869141" xlink:href="#DejaVuSans-48"/>
      </g>
     </g>
    </g>
    <g id="ytick_2">
     <g id="line2d_11">
      <g>
       <use style="stroke:#000000;stroke-width:0.8;" x="90" xlink:href="#mc866930b26" y="189.62228"/>
      </g>
     </g>
     <g id="text_11">
      <!-- 3000 -->
      <defs>
       <path d="M 40.578125 39.3125 
Q 47.65625 37.796875 51.625 33 
Q 55.609375 28.21875 55.609375 21.1875 
Q 55.609375 10.40625 48.1875 4.484375 
Q 40.765625 -1.421875 27.09375 -1.421875 
Q 22.515625 -1.421875 17.65625 -0.515625 
Q 12.796875 0.390625 7.625 2.203125 
L 7.625 11.71875 
Q 11.71875 9.328125 16.59375 8.109375 
Q 21.484375 6.890625 26.8125 6.890625 
Q 36.078125 6.890625 40.9375 10.546875 
Q 45.796875 14.203125 45.796875 21.1875 
Q 45.796875 27.640625 41.28125 31.265625 
Q 36.765625 34.90625 28.71875 34.90625 
L 20.21875 34.90625 
L 20.21875 43.015625 
L 29.109375 43.015625 
Q 36.375 43.015625 40.234375 45.921875 
Q 44.09375 48.828125 44.09375 54.296875 
Q 44.09375 59.90625 40.109375 62.90625 
Q 36.140625 65.921875 28.71875 65.921875 
Q 24.65625 65.921875 20.015625 65.03125 
Q 15.375 64.15625 9.8125 62.3125 
L 9.8125 71.09375 
Q 15.4375 72.65625 20.34375 73.4375 
Q 25.25 74.21875 29.59375 74.21875 
Q 40.828125 74.21875 47.359375 69.109375 
Q 53.90625 64.015625 53.90625 55.328125 
Q 53.90625 49.265625 50.4375 45.09375 
Q 46.96875 40.921875 40.578125 39.3125 
z
" id="DejaVuSans-51"/>
      </defs>
      <g transform="translate(57.55 193.421499)scale(0.1 -0.1)">
       <use xlink:href="#DejaVuSans-51"/>
       <use x="63.623047" xlink:href="#DejaVuSans-48"/>
       <use x="127.246094" xlink:href="#DejaVuSans-48"/>
       <use x="190.869141" xlink:href="#DejaVuSans-48"/>
      </g>
     </g>
    </g>
    <g id="ytick_3">
     <g id="line2d_12">
      <g>
       <use style="stroke:#000000;stroke-width:0.8;" x="90" xlink:href="#mc866930b26" y="142.489545"/>
      </g>
     </g>
     <g id="text_12">
      <!-- 3020 -->
      <g transform="translate(57.55 146.288764)scale(0.1 -0.1)">
       <use xlink:href="#DejaVuSans-51"/>
       <use x="63.623047" xlink:href="#DejaVuSans-48"/>
       <use x="127.246094" xlink:href="#DejaVuSans-50"/>
       <use x="190.869141" xlink:href="#DejaVuSans-48"/>
      </g>
     </g>
    </g>
    <g id="ytick_4">
     <g id="line2d_13">
      <g>
       <use style="stroke:#000000;stroke-width:0.8;" x="90" xlink:href="#mc866930b26" y="95.35681"/>
      </g>
     </g>
     <g id="text_13">
      <!-- 3040 -->
      <g transform="translate(57.55 99.156028)scale(0.1 -0.1)">
       <use xlink:href="#DejaVuSans-51"/>
       <use x="63.623047" xlink:href="#DejaVuSans-48"/>
       <use x="127.246094" xlink:href="#DejaVuSans-52"/>
       <use x="190.869141" xlink:href="#DejaVuSans-48"/>
      </g>
     </g>
    </g>
    <g id="ytick_5">
     <g id="line2d_14">
      <g>
       <use style="stroke:#000000;stroke-width:0.8;" x="90" xlink:href="#mc866930b26" y="48.224074"/>
      </g>
     </g>
     <g id="text_14">
      <!-- 3060 -->
      <defs>
       <path d="M 33.015625 40.375 
Q 26.375 40.375 22.484375 35.828125 
Q 18.609375 31.296875 18.609375 23.390625 
Q 18.609375 15.53125 22.484375 10.953125 
Q 26.375 6.390625 33.015625 6.390625 
Q 39.65625 6.390625 43.53125 10.953125 
Q 47.40625 15.53125 47.40625 23.390625 
Q 47.40625 31.296875 43.53125 35.828125 
Q 39.65625 40.375 33.015625 40.375 
z
M 52.59375 71.296875 
L 52.59375 62.3125 
Q 48.875 64.0625 45.09375 64.984375 
Q 41.3125 65.921875 37.59375 65.921875 
Q 27.828125 65.921875 22.671875 59.328125 
Q 17.53125 52.734375 16.796875 39.40625 
Q 19.671875 43.65625 24.015625 45.921875 
Q 28.375 48.1875 33.59375 48.1875 
Q 44.578125 48.1875 50.953125 41.515625 
Q 57.328125 34.859375 57.328125 23.390625 
Q 57.328125 12.15625 50.6875 5.359375 
Q 44.046875 -1.421875 33.015625 -1.421875 
Q 20.359375 -1.421875 13.671875 8.265625 
Q 6.984375 17.96875 6.984375 36.375 
Q 6.984375 53.65625 15.1875 63.9375 
Q 23.390625 74.21875 37.203125 74.21875 
Q 40.921875 74.21875 44.703125 73.484375 
Q 48.484375 72.75 52.59375 71.296875 
z
" id="DejaVuSans-54"/>
      </defs>
      <g transform="translate(57.55 52.023293)scale(0.1 -0.1)">
       <use xlink:href="#DejaVuSans-51"/>
       <use x="63.623047" xlink:href="#DejaVuSans-48"/>
       <use x="127.246094" xlink:href="#DejaVuSans-54"/>
       <use x="190.869141" xlink:href="#DejaVuSans-48"/>
      </g>
     </g>
    </g>
   </g>
   <g id="line2d_15">
    <path clip-path="url(#p73ef2ec315)" d="M 115.363636 51.893227 
L 116.082153 50.119203 
L 116.80067 52.246723 
L 117.519186 52.47584 
L 118.237703 48.921246 
L 118.956219 44.443636 
L 119.674736 50.976757 
L 120.393253 51.218967 
L 121.111769 50.420329 
L 121.830286 53.713074 
L 122.548802 59.853422 
L 123.267319 55.50019 
L 123.985836 59.277356 
L 124.704352 64.730351 
L 125.422869 68.343861 
L 126.141386 68.042735 
L 126.859902 71.243833 
L 127.578419 62.144597 
L 128.296935 61.794374 
L 129.733969 78.107538 
L 130.452485 80.444536 
L 131.171002 81.616308 
L 131.889518 83.265954 
L 132.608035 79.528066 
L 133.326552 82.244745 
L 134.045068 74.723146 
L 134.763585 74.710053 
L 135.482101 76.209136 
L 136.200618 76.045481 
L 136.919135 74.984994 
L 137.637651 72.765828 
L 138.356168 72.438517 
L 139.074685 74.160171 
L 139.793201 76.929219 
L 140.511718 75.737809 
L 141.230234 73.060407 
L 141.948751 73.040769 
L 142.667268 74.356558 
L 143.385784 74.886801 
L 144.104301 77.979887 
L 144.822817 69.954229 
L 146.259851 75.410498 
L 146.978367 75.888372 
L 147.696884 71.86245 
L 148.4154 78.264647 
L 149.133917 80.43799 
L 149.852434 81.511569 
L 150.57095 80.411805 
L 151.289467 82.768442 
L 152.007984 82.323299 
L 152.7265 77.845689 
L 153.445017 79.9012 
L 154.163533 78.009345 
L 154.88205 81.812694 
L 155.600567 81.066426 
L 156.319083 80.647469 
L 157.0376 79.501881 
L 157.756116 74.160171 
L 158.474633 78.317017 
L 159.19315 75.986565 
L 159.911666 84.110415 
L 160.630183 84.804314 
L 161.348699 81.380644 
L 162.067216 79.593528 
L 162.785733 79.888108 
L 163.504249 75.161742 
L 164.941283 78.421756 
L 165.659799 76.713194 
L 166.378316 78.519949 
L 167.096832 83.265954 
L 167.815349 80.745662 
L 168.533866 80.712931 
L 169.252382 83.599811 
L 169.970899 89.556865 
L 170.689415 91.546914 
L 172.126449 89.949638 
L 172.844965 84.882868 
L 173.563482 87.520992 
L 174.281998 88.450555 
L 175.000515 95.108054 
L 175.719032 92.22772 
L 176.437548 87.828664 
L 177.156065 85.504759 
L 177.874582 80.287427 
L 178.593098 83.99913 
L 179.311615 82.316753 
L 180.030131 86.59143 
L 180.748648 84.987608 
L 181.467165 89.507768 
L 182.185681 92.502661 
L 182.904198 98.256782 
L 183.622714 99.710041 
L 184.341231 97.163564 
L 185.059748 101.556074 
L 185.778264 99.271445 
L 186.496781 100.809805 
L 187.215297 95.625204 
L 187.933814 99.474378 
L 188.652331 101.673905 
L 189.370847 102.773669 
L 190.089364 100.894906 
L 192.244914 93.916643 
L 192.96343 89.537226 
L 193.681947 95.022953 
L 194.400464 88.254168 
L 195.11898 93.163828 
L 195.837497 90.810465 
L 196.556013 84.833772 
L 197.27453 82.437858 
L 197.993047 75.852367 
L 198.711563 75.197746 
L 199.43008 70.90343 
L 200.148596 75.178107 
L 200.867113 71.165279 
L 201.58563 68.108197 
L 202.304146 67.597592 
L 203.022663 69.358524 
L 203.74118 69.600734 
L 204.459696 70.870699 
L 205.178213 74.582402 
L 205.896729 73.541554 
L 207.333763 79.773549 
L 208.052279 80.951867 
L 208.770796 78.258101 
L 209.489312 78.402117 
L 210.207829 82.827358 
L 210.926346 83.429609 
L 211.644862 82.146551 
L 212.363379 82.11382 
L 213.081895 83.095752 
L 213.800412 80.156503 
L 214.518929 82.094182 
L 215.237445 87.612639 
L 215.955962 87.586455 
L 216.674478 88.732042 
L 217.392995 88.568387 
L 218.111512 84.332987 
L 218.830028 85.170902 
L 219.548545 88.372 
L 220.267062 93.608971 
L 220.985578 94.243953 
L 221.704095 93.785718 
L 222.422611 94.414155 
L 223.141128 90.296587 
L 223.859645 91.36362 
L 224.578161 91.06904 
L 225.296678 97.150472 
L 226.015194 96.764245 
L 226.733711 92.36519 
L 227.452228 94.034475 
L 228.170744 91.271973 
L 228.889261 92.908526 
L 229.607777 90.859561 
L 230.326294 92.280089 
L 231.044811 91.900409 
L 231.763327 94.073752 
L 232.481844 91.468359 
L 233.200361 95.834683 
L 233.918877 96.620229 
L 234.637394 98.374614 
L 235.35591 101.75246 
L 236.792944 98.119312 
L 237.51146 99.232168 
L 238.229977 96.207817 
L 238.948493 98.027665 
L 239.66701 97.75927 
L 241.104043 107.532766 
L 241.82256 108.25285 
L 242.541076 111.257562 
L 243.259593 107.369111 
L 244.696626 117.699035 
L 245.415143 127.865304 
L 246.13366 133.711073 
L 246.852176 137.782817 
L 248.289209 128.965068 
L 249.007726 129.888084 
L 249.726243 129.616416 
L 250.444759 130.487063 
L 251.163276 123.554623 
L 251.881792 123.35169 
L 252.600309 131.49518 
L 253.318826 131.986146 
L 254.037342 131.272608 
L 254.755859 133.825632 
L 255.474375 130.539433 
L 256.192892 129.210551 
L 256.911409 128.215527 
L 257.629925 126.552789 
L 258.348442 123.809925 
L 259.066959 127.757292 
L 259.785475 126.952108 
L 260.503992 133.125187 
L 261.222508 135.102143 
L 261.941025 136.234638 
L 262.659542 136.699419 
L 263.378058 133.27575 
L 264.815091 138.51272 
L 265.533608 142.672839 
L 266.252125 142.803763 
L 266.970641 145.30769 
L 267.689158 142.044402 
L 268.407674 141.40942 
L 269.126191 145.716828 
L 269.844708 148.217481 
L 270.563224 153.205696 
L 271.281741 153.398809 
L 272.000258 153.778489 
L 272.718774 156.933764 
L 273.437291 156.056572 
L 274.155807 156.410067 
L 274.874324 157.369087 
L 275.592841 154.298913 
L 276.311357 154.606585 
L 277.029874 157.9517 
L 277.74839 158.639053 
L 278.466907 160.596371 
L 279.185424 161.421193 
L 279.90394 161.578302 
L 280.622457 166.605794 
L 281.340973 169.230826 
L 282.05949 170.526976 
L 282.778007 171.456538 
L 283.496523 166.815273 
L 284.21504 165.473299 
L 284.933557 164.727031 
L 285.652073 169.112994 
L 286.37059 169.191548 
L 287.089106 169.623599 
L 287.807623 167.129491 
L 288.52614 162.638789 
L 289.244656 165.777698 
L 289.963173 168.186705 
L 290.681689 173.318936 
L 291.400206 175.354808 
L 292.118723 179.125427 
L 292.837239 178.372612 
L 294.274272 172.15371 
L 294.992789 173.953919 
L 295.711306 173.901549 
L 296.429822 179.158158 
L 297.148339 174.130666 
L 297.866856 174.025927 
L 298.585372 180.480493 
L 299.303889 178.238415 
L 300.022405 174.441611 
L 300.740922 169.237372 
L 301.459439 169.040986 
L 302.177955 169.780708 
L 302.896472 164.15751 
L 303.614988 164.183695 
L 304.333505 163.581444 
L 305.052022 163.849838 
L 305.770538 170.317497 
L 306.489055 171.443446 
L 307.207571 176.804794 
L 307.926088 173.459679 
L 308.644605 180.104086 
L 309.363121 180.640875 
L 310.081638 183.737234 
L 310.800155 191.16064 
L 311.518671 185.485073 
L 312.237188 182.716025 
L 312.955704 181.694816 
L 313.674221 180.90927 
L 314.392738 182.378895 
L 315.111254 187.45221 
L 315.829771 186.758312 
L 316.548287 181.809374 
L 317.266804 183.013878 
L 317.985321 185.985858 
L 318.703837 182.562189 
L 319.422354 182.470542 
L 320.14087 182.725844 
L 320.859387 181.475518 
L 321.577904 182.935323 
L 322.29642 179.361091 
L 323.014937 176.893168 
L 323.733454 181.73082 
L 324.45197 179.996073 
L 325.170487 180.716157 
L 325.889003 183.629222 
L 326.60752 185.416338 
L 327.326037 183.151348 
L 328.044553 182.45745 
L 328.76307 187.360563 
L 329.481586 188.319583 
L 330.200103 194.944351 
L 330.91862 196.662732 
L 331.637136 199.962024 
L 332.355653 196.446707 
L 333.074169 195.834636 
L 333.792686 196.197951 
L 334.511203 202.724526 
L 335.229719 205.833977 
L 335.948236 213.034811 
L 336.666753 215.286709 
L 337.385269 215.758036 
L 338.103786 214.815381 
L 338.822302 216.609044 
L 339.540819 217.270211 
L 340.259336 213.584693 
L 340.977852 208.43937 
L 341.696369 211.555367 
L 342.414885 210.285402 
L 343.133402 206.789724 
L 343.851919 204.796402 
L 344.570435 200.11586 
L 345.288952 201.948799 
L 346.007468 198.476033 
L 346.725985 199.372864 
L 347.444502 200.7803 
L 348.163018 196.793656 
L 348.881535 197.284622 
L 349.600052 196.846026 
L 350.318568 196.067027 
L 351.037085 200.773754 
L 351.755601 197.847597 
L 352.474118 198.528403 
L 353.192635 193.337256 
L 354.629668 190.96098 
L 355.348184 192.3095 
L 356.066701 198.593865 
L 356.785218 197.631572 
L 357.503734 197.834504 
L 358.940767 192.407694 
L 359.659284 186.915421 
L 360.377801 191.916728 
L 361.096317 195.327305 
L 361.814834 197.467916 
L 362.533351 195.00654 
L 363.251867 196.584178 
L 363.970384 196.5449 
L 364.6889 195.890279 
L 365.407417 200.034032 
L 366.125934 199.615074 
L 366.84445 205.781607 
L 367.562967 210.180662 
L 368.281483 209.512949 
L 369 211.751754 
L 369.718517 213.440677 
L 370.437033 213.309752 
L 371.15555 213.67634 
L 371.874066 212.141253 
L 372.592583 212.396556 
L 373.3111 206.082733 
L 374.748133 201.618216 
L 375.466649 199.572524 
L 376.185166 200.593733 
L 376.903683 202.073177 
L 377.622199 199.788549 
L 378.340716 193.618743 
L 379.059233 192.967395 
L 379.777749 194.633406 
L 380.496266 189.802301 
L 381.214782 188.66326 
L 381.933299 189.114948 
L 382.651816 187.537311 
L 389.836982 186.234615 
L 391.274015 187.576588 
L 391.992532 189.671376 
L 392.711048 196.067027 
L 393.429565 196.832934 
L 394.148081 190.168889 
L 394.866598 185.003926 
L 395.585115 184.251112 
L 396.303631 188.650167 
L 397.022148 188.218117 
L 397.740664 189.651738 
L 398.459181 186.503009 
L 399.177698 192.921571 
L 399.896214 196.482711 
L 400.614731 199.408869 
L 401.333247 204.573831 
L 402.051764 208.108786 
L 402.770281 207.977862 
L 403.488797 208.017139 
L 404.207314 203.958487 
L 404.925831 201.254901 
L 412.110997 204.122142 
L 412.829513 210.197028 
L 413.54803 210.445784 
L 414.266546 210.890927 
L 414.985063 212.632219 
L 415.70358 206.400224 
L 416.422096 213.195194 
L 417.140613 210.976027 
L 418.577646 209.368932 
L 419.296163 210.278856 
L 420.014679 206.207111 
L 420.733196 206.266027 
L 421.451713 210.678175 
L 422.170229 212.805694 
L 422.888746 212.386736 
L 424.325779 212.062699 
L 425.044296 210.295221 
L 432.229462 212.363825 
L 432.947978 209.673331 
L 434.385012 210.478515 
L 435.103528 212.082337 
L 435.822045 212.082337 
L 436.540561 209.728974 
L 437.259078 212.890795 
L 437.977595 210.638897 
L 438.696111 213.015173 
L 439.414628 213.741802 
L 440.133144 215.424179 
L 440.851661 216.484666 
L 441.570178 222.965417 
L 443.007211 225.839204 
L 443.725728 229.158135 
L 444.444244 230.892881 
L 445.162761 235.599608 
L 445.881277 235.259205 
L 446.599794 234.46384 
L 447.318311 238.817072 
L 467.436776 242.116364 
L 468.155292 237.252527 
L 468.873809 238.201728 
L 489.710791 241.212986 
L 490.429307 237.880964 
L 491.147824 237.69767 
L 511.266289 238.254098 
L 511.984806 235.845091 
L 512.703322 236.355696 
L 533.540304 236.126579 
L 534.25882 235.884369 
L 534.977337 234.70605 
L 555.814319 231.426397 
L 556.532835 232.807648 
L 557.251352 227.452846 
L 577.369817 229.717836 
L 578.088334 225.901394 
L 578.80685 224.261567 
L 599.643832 220.654604 
L 600.362349 218.003387 
L 601.080865 225.524986 
L 621.19933 230.244806 
L 621.917847 232.385418 
L 622.636364 234.048156 
L 622.636364 234.048156 
" style="fill:none;stroke:#1f77b4;stroke-linecap:square;stroke-width:1.5;"/>
   </g>
   <g id="patch_3">
    <path d="M 90 252 
L 90 34.56 
" style="fill:none;stroke:#000000;stroke-linecap:square;stroke-linejoin:miter;stroke-width:0.8;"/>
   </g>
   <g id="patch_4">
    <path d="M 648 252 
L 648 34.56 
" style="fill:none;stroke:#000000;stroke-linecap:square;stroke-linejoin:miter;stroke-width:0.8;"/>
   </g>
   <g id="patch_5">
    <path d="M 90 252 
L 648 252 
" style="fill:none;stroke:#000000;stroke-linecap:square;stroke-linejoin:miter;stroke-width:0.8;"/>
   </g>
   <g id="patch_6">
    <path d="M 90 34.56 
L 648 34.56 
" style="fill:none;stroke:#000000;stroke-linecap:square;stroke-linejoin:miter;stroke-width:0.8;"/>
   </g>
   <g id="text_15">
    <!-- MA360 of Midday Travel Time -->
    <defs>
     <path d="M 9.8125 72.90625 
L 24.515625 72.90625 
L 43.109375 23.296875 
L 61.8125 72.90625 
L 76.515625 72.90625 
L 76.515625 0 
L 66.890625 0 
L 66.890625 64.015625 
L 48.09375 14.015625 
L 38.1875 14.015625 
L 19.390625 64.015625 
L 19.390625 0 
L 9.8125 0 
z
" id="DejaVuSans-77"/>
     <path d="M 34.1875 63.1875 
L 20.796875 26.90625 
L 47.609375 26.90625 
z
M 28.609375 72.90625 
L 39.796875 72.90625 
L 67.578125 0 
L 57.328125 0 
L 50.6875 18.703125 
L 17.828125 18.703125 
L 11.1875 0 
L 0.78125 0 
z
" id="DejaVuSans-65"/>
     <path id="DejaVuSans-32"/>
     <path d="M 30.609375 48.390625 
Q 23.390625 48.390625 19.1875 42.75 
Q 14.984375 37.109375 14.984375 27.296875 
Q 14.984375 17.484375 19.15625 11.84375 
Q 23.34375 6.203125 30.609375 6.203125 
Q 37.796875 6.203125 41.984375 11.859375 
Q 46.1875 17.53125 46.1875 27.296875 
Q 46.1875 37.015625 41.984375 42.703125 
Q 37.796875 48.390625 30.609375 48.390625 
z
M 30.609375 56 
Q 42.328125 56 49.015625 48.375 
Q 55.71875 40.765625 55.71875 27.296875 
Q 55.71875 13.875 49.015625 6.21875 
Q 42.328125 -1.421875 30.609375 -1.421875 
Q 18.84375 -1.421875 12.171875 6.21875 
Q 5.515625 13.875 5.515625 27.296875 
Q 5.515625 40.765625 12.171875 48.375 
Q 18.84375 56 30.609375 56 
z
" id="DejaVuSans-111"/>
     <path d="M 37.109375 75.984375 
L 37.109375 68.5 
L 28.515625 68.5 
Q 23.6875 68.5 21.796875 66.546875 
Q 19.921875 64.59375 19.921875 59.515625 
L 19.921875 54.6875 
L 34.71875 54.6875 
L 34.71875 47.703125 
L 19.921875 47.703125 
L 19.921875 0 
L 10.890625 0 
L 10.890625 47.703125 
L 2.296875 47.703125 
L 2.296875 54.6875 
L 10.890625 54.6875 
L 10.890625 58.5 
Q 10.890625 67.625 15.140625 71.796875 
Q 19.390625 75.984375 28.609375 75.984375 
z
" id="DejaVuSans-102"/>
     <path d="M 9.421875 54.6875 
L 18.40625 54.6875 
L 18.40625 0 
L 9.421875 0 
z
M 9.421875 75.984375 
L 18.40625 75.984375 
L 18.40625 64.59375 
L 9.421875 64.59375 
z
" id="DejaVuSans-105"/>
     <path d="M 45.40625 46.390625 
L 45.40625 75.984375 
L 54.390625 75.984375 
L 54.390625 0 
L 45.40625 0 
L 45.40625 8.203125 
Q 42.578125 3.328125 38.25 0.953125 
Q 33.9375 -1.421875 27.875 -1.421875 
Q 17.96875 -1.421875 11.734375 6.484375 
Q 5.515625 14.40625 5.515625 27.296875 
Q 5.515625 40.1875 11.734375 48.09375 
Q 17.96875 56 27.875 56 
Q 33.9375 56 38.25 53.625 
Q 42.578125 51.265625 45.40625 46.390625 
z
M 14.796875 27.296875 
Q 14.796875 17.390625 18.875 11.75 
Q 22.953125 6.109375 30.078125 6.109375 
Q 37.203125 6.109375 41.296875 11.75 
Q 45.40625 17.390625 45.40625 27.296875 
Q 45.40625 37.203125 41.296875 42.84375 
Q 37.203125 48.484375 30.078125 48.484375 
Q 22.953125 48.484375 18.875 42.84375 
Q 14.796875 37.203125 14.796875 27.296875 
z
" id="DejaVuSans-100"/>
     <path d="M 34.28125 27.484375 
Q 23.390625 27.484375 19.1875 25 
Q 14.984375 22.515625 14.984375 16.5 
Q 14.984375 11.71875 18.140625 8.90625 
Q 21.296875 6.109375 26.703125 6.109375 
Q 34.1875 6.109375 38.703125 11.40625 
Q 43.21875 16.703125 43.21875 25.484375 
L 43.21875 27.484375 
z
M 52.203125 31.203125 
L 52.203125 0 
L 43.21875 0 
L 43.21875 8.296875 
Q 40.140625 3.328125 35.546875 0.953125 
Q 30.953125 -1.421875 24.3125 -1.421875 
Q 15.921875 -1.421875 10.953125 3.296875 
Q 6 8.015625 6 15.921875 
Q 6 25.140625 12.171875 29.828125 
Q 18.359375 34.515625 30.609375 34.515625 
L 43.21875 34.515625 
L 43.21875 35.40625 
Q 43.21875 41.609375 39.140625 45 
Q 35.0625 48.390625 27.6875 48.390625 
Q 23 48.390625 18.546875 47.265625 
Q 14.109375 46.140625 10.015625 43.890625 
L 10.015625 52.203125 
Q 14.9375 54.109375 19.578125 55.046875 
Q 24.21875 56 28.609375 56 
Q 40.484375 56 46.34375 49.84375 
Q 52.203125 43.703125 52.203125 31.203125 
z
" id="DejaVuSans-97"/>
     <path d="M 32.171875 -5.078125 
Q 28.375 -14.84375 24.75 -17.8125 
Q 21.140625 -20.796875 15.09375 -20.796875 
L 7.90625 -20.796875 
L 7.90625 -13.28125 
L 13.1875 -13.28125 
Q 16.890625 -13.28125 18.9375 -11.515625 
Q 21 -9.765625 23.484375 -3.21875 
L 25.09375 0.875 
L 2.984375 54.6875 
L 12.5 54.6875 
L 29.59375 11.921875 
L 46.6875 54.6875 
L 56.203125 54.6875 
z
" id="DejaVuSans-121"/>
     <path d="M -0.296875 72.90625 
L 61.375 72.90625 
L 61.375 64.59375 
L 35.5 64.59375 
L 35.5 0 
L 25.59375 0 
L 25.59375 64.59375 
L -0.296875 64.59375 
z
" id="DejaVuSans-84"/>
     <path d="M 41.109375 46.296875 
Q 39.59375 47.171875 37.8125 47.578125 
Q 36.03125 48 33.890625 48 
Q 26.265625 48 22.1875 43.046875 
Q 18.109375 38.09375 18.109375 28.8125 
L 18.109375 0 
L 9.078125 0 
L 9.078125 54.6875 
L 18.109375 54.6875 
L 18.109375 46.1875 
Q 20.953125 51.171875 25.484375 53.578125 
Q 30.03125 56 36.53125 56 
Q 37.453125 56 38.578125 55.875 
Q 39.703125 55.765625 41.0625 55.515625 
z
" id="DejaVuSans-114"/>
     <path d="M 2.984375 54.6875 
L 12.5 54.6875 
L 29.59375 8.796875 
L 46.6875 54.6875 
L 56.203125 54.6875 
L 35.6875 0 
L 23.484375 0 
z
" id="DejaVuSans-118"/>
     <path d="M 56.203125 29.59375 
L 56.203125 25.203125 
L 14.890625 25.203125 
Q 15.484375 15.921875 20.484375 11.0625 
Q 25.484375 6.203125 34.421875 6.203125 
Q 39.59375 6.203125 44.453125 7.46875 
Q 49.3125 8.734375 54.109375 11.28125 
L 54.109375 2.78125 
Q 49.265625 0.734375 44.1875 -0.34375 
Q 39.109375 -1.421875 33.890625 -1.421875 
Q 20.796875 -1.421875 13.15625 6.1875 
Q 5.515625 13.8125 5.515625 26.8125 
Q 5.515625 40.234375 12.765625 48.109375 
Q 20.015625 56 32.328125 56 
Q 43.359375 56 49.78125 48.890625 
Q 56.203125 41.796875 56.203125 29.59375 
z
M 47.21875 32.234375 
Q 47.125 39.59375 43.09375 43.984375 
Q 39.0625 48.390625 32.421875 48.390625 
Q 24.90625 48.390625 20.390625 44.140625 
Q 15.875 39.890625 15.1875 32.171875 
z
" id="DejaVuSans-101"/>
     <path d="M 9.421875 75.984375 
L 18.40625 75.984375 
L 18.40625 0 
L 9.421875 0 
z
" id="DejaVuSans-108"/>
     <path d="M 52 44.1875 
Q 55.375 50.25 60.0625 53.125 
Q 64.75 56 71.09375 56 
Q 79.640625 56 84.28125 50.015625 
Q 88.921875 44.046875 88.921875 33.015625 
L 88.921875 0 
L 79.890625 0 
L 79.890625 32.71875 
Q 79.890625 40.578125 77.09375 44.375 
Q 74.3125 48.1875 68.609375 48.1875 
Q 61.625 48.1875 57.5625 43.546875 
Q 53.515625 38.921875 53.515625 30.90625 
L 53.515625 0 
L 44.484375 0 
L 44.484375 32.71875 
Q 44.484375 40.625 41.703125 44.40625 
Q 38.921875 48.1875 33.109375 48.1875 
Q 26.21875 48.1875 22.15625 43.53125 
Q 18.109375 38.875 18.109375 30.90625 
L 18.109375 0 
L 9.078125 0 
L 9.078125 54.6875 
L 18.109375 54.6875 
L 18.109375 46.1875 
Q 21.1875 51.21875 25.484375 53.609375 
Q 29.78125 56 35.6875 56 
Q 41.65625 56 45.828125 52.96875 
Q 50 49.953125 52 44.1875 
z
" id="DejaVuSans-109"/>
    </defs>
    <g transform="translate(279.595312 28.56)scale(0.12 -0.12)">
     <use xlink:href="#DejaVuSans-77"/>
     <use x="86.279297" xlink:href="#DejaVuSans-65"/>
     <use x="154.6875" xlink:href="#DejaVuSans-51"/>
     <use x="218.310547" xlink:href="#DejaVuSans-54"/>
     <use x="281.933594" xlink:href="#DejaVuSans-48"/>
     <use x="345.556641" xlink:href="#DejaVuSans-32"/>
     <use x="377.34375" xlink:href="#DejaVuSans-111"/>
     <use x="438.525391" xlink:href="#DejaVuSans-102"/>
     <use x="473.730469" xlink:href="#DejaVuSans-32"/>
     <use x="505.517578" xlink:href="#DejaVuSans-77"/>
     <use x="591.796875" xlink:href="#DejaVuSans-105"/>
     <use x="619.580078" xlink:href="#DejaVuSans-100"/>
     <use x="683.056641" xlink:href="#DejaVuSans-100"/>
     <use x="746.533203" xlink:href="#DejaVuSans-97"/>
     <use x="807.8125" xlink:href="#DejaVuSans-121"/>
     <use x="866.992188" xlink:href="#DejaVuSans-32"/>
     <use x="898.779297" xlink:href="#DejaVuSans-84"/>
     <use x="959.644531" xlink:href="#DejaVuSans-114"/>
     <use x="1000.757812" xlink:href="#DejaVuSans-97"/>
     <use x="1062.037109" xlink:href="#DejaVuSans-118"/>
     <use x="1121.216797" xlink:href="#DejaVuSans-101"/>
     <use x="1182.740234" xlink:href="#DejaVuSans-108"/>
     <use x="1210.523438" xlink:href="#DejaVuSans-32"/>
     <use x="1242.310547" xlink:href="#DejaVuSans-84"/>
     <use x="1303.347656" xlink:href="#DejaVuSans-105"/>
     <use x="1331.130859" xlink:href="#DejaVuSans-109"/>
     <use x="1428.542969" xlink:href="#DejaVuSans-101"/>
    </g>
   </g>
  </g>
 </g>
 <defs>
  <clipPath id="p73ef2ec315">
   <rect height="217.44" width="558" x="90" y="34.56"/>
  </clipPath>
 </defs>
</svg>
