<?xml version="1.0" encoding="utf-8" standalone="no"?>
<!DOCTYPE svg PUBLIC "-//W3C//DTD SVG 1.1//EN"
  "http://www.w3.org/Graphics/SVG/1.1/DTD/svg11.dtd">
<!-- Created with matplotlib (https://matplotlib.org/) -->
<svg height="288pt" version="1.1" viewBox="0 0 720 288" width="720pt" xmlns="http://www.w3.org/2000/svg" xmlns:xlink="http://www.w3.org/1999/xlink">
 <defs>
  <style type="text/css">
*{stroke-linecap:butt;stroke-linejoin:round;}
  </style>
 </defs>
 <g id="figure_1">
  <g id="patch_1">
   <path d="M 0 288 
L 720 288 
L 720 0 
L 0 0 
z
" style="fill:#ffffff;"/>
  </g>
  <g id="axes_1">
   <g id="patch_2">
    <path d="M 90 252 
L 648 252 
L 648 34.56 
L 90 34.56 
z
" style="fill:#ffffff;"/>
   </g>
   <g id="matplotlib.axis_1">
    <g id="xtick_1">
     <g id="line2d_1">
      <defs>
       <path d="M 0 0 
L 0 3.5 
" id="m9cf737f8ce" style="stroke:#000000;stroke-width:0.8;"/>
      </defs>
      <g>
       <use style="stroke:#000000;stroke-width:0.8;" x="118.956219" xlink:href="#m9cf737f8ce" y="252"/>
      </g>
     </g>
     <g id="text_1">
      <!-- 2017-01 -->
      <defs>
       <path d="M 19.1875 8.296875 
L 53.609375 8.296875 
L 53.609375 0 
L 7.328125 0 
L 7.328125 8.296875 
Q 12.9375 14.109375 22.625 23.890625 
Q 32.328125 33.6875 34.8125 36.53125 
Q 39.546875 41.84375 41.421875 45.53125 
Q 43.3125 49.21875 43.3125 52.78125 
Q 43.3125 58.59375 39.234375 62.25 
Q 35.15625 65.921875 28.609375 65.921875 
Q 23.96875 65.921875 18.8125 64.3125 
Q 13.671875 62.703125 7.8125 59.421875 
L 7.8125 69.390625 
Q 13.765625 71.78125 18.9375 73 
Q 24.125 74.21875 28.421875 74.21875 
Q 39.75 74.21875 46.484375 68.546875 
Q 53.21875 62.890625 53.21875 53.421875 
Q 53.21875 48.921875 51.53125 44.890625 
Q 49.859375 40.875 45.40625 35.40625 
Q 44.1875 33.984375 37.640625 27.21875 
Q 31.109375 20.453125 19.1875 8.296875 
z
" id="DejaVuSans-50"/>
       <path d="M 31.78125 66.40625 
Q 24.171875 66.40625 20.328125 58.90625 
Q 16.5 51.421875 16.5 36.375 
Q 16.5 21.390625 20.328125 13.890625 
Q 24.171875 6.390625 31.78125 6.390625 
Q 39.453125 6.390625 43.28125 13.890625 
Q 47.125 21.390625 47.125 36.375 
Q 47.125 51.421875 43.28125 58.90625 
Q 39.453125 66.40625 31.78125 66.40625 
z
M 31.78125 74.21875 
Q 44.046875 74.21875 50.515625 64.515625 
Q 56.984375 54.828125 56.984375 36.375 
Q 56.984375 17.96875 50.515625 8.265625 
Q 44.046875 -1.421875 31.78125 -1.421875 
Q 19.53125 -1.421875 13.0625 8.265625 
Q 6.59375 17.96875 6.59375 36.375 
Q 6.59375 54.828125 13.0625 64.515625 
Q 19.53125 74.21875 31.78125 74.21875 
z
" id="DejaVuSans-48"/>
       <path d="M 12.40625 8.296875 
L 28.515625 8.296875 
L 28.515625 63.921875 
L 10.984375 60.40625 
L 10.984375 69.390625 
L 28.421875 72.90625 
L 38.28125 72.90625 
L 38.28125 8.296875 
L 54.390625 8.296875 
L 54.390625 0 
L 12.40625 0 
z
" id="DejaVuSans-49"/>
       <path d="M 8.203125 72.90625 
L 55.078125 72.90625 
L 55.078125 68.703125 
L 28.609375 0 
L 18.3125 0 
L 43.21875 64.59375 
L 8.203125 64.59375 
z
" id="DejaVuSans-55"/>
       <path d="M 4.890625 31.390625 
L 31.203125 31.390625 
L 31.203125 23.390625 
L 4.890625 23.390625 
z
" id="DejaVuSans-45"/>
      </defs>
      <g transform="translate(98.064813 266.598437)scale(0.1 -0.1)">
       <use xlink:href="#DejaVuSans-50"/>
       <use x="63.623047" xlink:href="#DejaVuSans-48"/>
       <use x="127.246094" xlink:href="#DejaVuSans-49"/>
       <use x="190.869141" xlink:href="#DejaVuSans-55"/>
       <use x="254.492188" xlink:href="#DejaVuSans-45"/>
       <use x="290.576172" xlink:href="#DejaVuSans-48"/>
       <use x="354.199219" xlink:href="#DejaVuSans-49"/>
      </g>
     </g>
    </g>
    <g id="xtick_2">
     <g id="line2d_2">
      <g>
       <use style="stroke:#000000;stroke-width:0.8;" x="183.622714" xlink:href="#m9cf737f8ce" y="252"/>
      </g>
     </g>
     <g id="text_2">
      <!-- 2017-04 -->
      <defs>
       <path d="M 37.796875 64.3125 
L 12.890625 25.390625 
L 37.796875 25.390625 
z
M 35.203125 72.90625 
L 47.609375 72.90625 
L 47.609375 25.390625 
L 58.015625 25.390625 
L 58.015625 17.1875 
L 47.609375 17.1875 
L 47.609375 0 
L 37.796875 0 
L 37.796875 17.1875 
L 4.890625 17.1875 
L 4.890625 26.703125 
z
" id="DejaVuSans-52"/>
      </defs>
      <g transform="translate(162.731308 266.598437)scale(0.1 -0.1)">
       <use xlink:href="#DejaVuSans-50"/>
       <use x="63.623047" xlink:href="#DejaVuSans-48"/>
       <use x="127.246094" xlink:href="#DejaVuSans-49"/>
       <use x="190.869141" xlink:href="#DejaVuSans-55"/>
       <use x="254.492188" xlink:href="#DejaVuSans-45"/>
       <use x="290.576172" xlink:href="#DejaVuSans-48"/>
       <use x="354.199219" xlink:href="#DejaVuSans-52"/>
      </g>
     </g>
    </g>
    <g id="xtick_3">
     <g id="line2d_3">
      <g>
       <use style="stroke:#000000;stroke-width:0.8;" x="249.007726" xlink:href="#m9cf737f8ce" y="252"/>
      </g>
     </g>
     <g id="text_3">
      <!-- 2017-07 -->
      <g transform="translate(228.11632 266.598437)scale(0.1 -0.1)">
       <use xlink:href="#DejaVuSans-50"/>
       <use x="63.623047" xlink:href="#DejaVuSans-48"/>
       <use x="127.246094" xlink:href="#DejaVuSans-49"/>
       <use x="190.869141" xlink:href="#DejaVuSans-55"/>
       <use x="254.492188" xlink:href="#DejaVuSans-45"/>
       <use x="290.576172" xlink:href="#DejaVuSans-48"/>
       <use x="354.199219" xlink:href="#DejaVuSans-55"/>
      </g>
     </g>
    </g>
    <g id="xtick_4">
     <g id="line2d_4">
      <g>
       <use style="stroke:#000000;stroke-width:0.8;" x="315.111254" xlink:href="#m9cf737f8ce" y="252"/>
      </g>
     </g>
     <g id="text_4">
      <!-- 2017-10 -->
      <g transform="translate(294.219848 266.598437)scale(0.1 -0.1)">
       <use xlink:href="#DejaVuSans-50"/>
       <use x="63.623047" xlink:href="#DejaVuSans-48"/>
       <use x="127.246094" xlink:href="#DejaVuSans-49"/>
       <use x="190.869141" xlink:href="#DejaVuSans-55"/>
       <use x="254.492188" xlink:href="#DejaVuSans-45"/>
       <use x="290.576172" xlink:href="#DejaVuSans-49"/>
       <use x="354.199219" xlink:href="#DejaVuSans-48"/>
      </g>
     </g>
    </g>
    <g id="xtick_5">
     <g id="line2d_5">
      <g>
       <use style="stroke:#000000;stroke-width:0.8;" x="381.214782" xlink:href="#m9cf737f8ce" y="252"/>
      </g>
     </g>
     <g id="text_5">
      <!-- 2018-01 -->
      <defs>
       <path d="M 31.78125 34.625 
Q 24.75 34.625 20.71875 30.859375 
Q 16.703125 27.09375 16.703125 20.515625 
Q 16.703125 13.921875 20.71875 10.15625 
Q 24.75 6.390625 31.78125 6.390625 
Q 38.8125 6.390625 42.859375 10.171875 
Q 46.921875 13.96875 46.921875 20.515625 
Q 46.921875 27.09375 42.890625 30.859375 
Q 38.875 34.625 31.78125 34.625 
z
M 21.921875 38.8125 
Q 15.578125 40.375 12.03125 44.71875 
Q 8.5 49.078125 8.5 55.328125 
Q 8.5 64.0625 14.71875 69.140625 
Q 20.953125 74.21875 31.78125 74.21875 
Q 42.671875 74.21875 48.875 69.140625 
Q 55.078125 64.0625 55.078125 55.328125 
Q 55.078125 49.078125 51.53125 44.71875 
Q 48 40.375 41.703125 38.8125 
Q 48.828125 37.15625 52.796875 32.3125 
Q 56.78125 27.484375 56.78125 20.515625 
Q 56.78125 9.90625 50.3125 4.234375 
Q 43.84375 -1.421875 31.78125 -1.421875 
Q 19.734375 -1.421875 13.25 4.234375 
Q 6.78125 9.90625 6.78125 20.515625 
Q 6.78125 27.484375 10.78125 32.3125 
Q 14.796875 37.15625 21.921875 38.8125 
z
M 18.3125 54.390625 
Q 18.3125 48.734375 21.84375 45.5625 
Q 25.390625 42.390625 31.78125 42.390625 
Q 38.140625 42.390625 41.71875 45.5625 
Q 45.3125 48.734375 45.3125 54.390625 
Q 45.3125 60.0625 41.71875 63.234375 
Q 38.140625 66.40625 31.78125 66.40625 
Q 25.390625 66.40625 21.84375 63.234375 
Q 18.3125 60.0625 18.3125 54.390625 
z
" id="DejaVuSans-56"/>
      </defs>
      <g transform="translate(360.323376 266.598437)scale(0.1 -0.1)">
       <use xlink:href="#DejaVuSans-50"/>
       <use x="63.623047" xlink:href="#DejaVuSans-48"/>
       <use x="127.246094" xlink:href="#DejaVuSans-49"/>
       <use x="190.869141" xlink:href="#DejaVuSans-56"/>
       <use x="254.492188" xlink:href="#DejaVuSans-45"/>
       <use x="290.576172" xlink:href="#DejaVuSans-48"/>
       <use x="354.199219" xlink:href="#DejaVuSans-49"/>
      </g>
     </g>
    </g>
    <g id="xtick_6">
     <g id="line2d_6">
      <g>
       <use style="stroke:#000000;stroke-width:0.8;" x="445.881277" xlink:href="#m9cf737f8ce" y="252"/>
      </g>
     </g>
     <g id="text_6">
      <!-- 2018-04 -->
      <g transform="translate(424.989871 266.598437)scale(0.1 -0.1)">
       <use xlink:href="#DejaVuSans-50"/>
       <use x="63.623047" xlink:href="#DejaVuSans-48"/>
       <use x="127.246094" xlink:href="#DejaVuSans-49"/>
       <use x="190.869141" xlink:href="#DejaVuSans-56"/>
       <use x="254.492188" xlink:href="#DejaVuSans-45"/>
       <use x="290.576172" xlink:href="#DejaVuSans-48"/>
       <use x="354.199219" xlink:href="#DejaVuSans-52"/>
      </g>
     </g>
    </g>
    <g id="xtick_7">
     <g id="line2d_7">
      <g>
       <use style="stroke:#000000;stroke-width:0.8;" x="511.266289" xlink:href="#m9cf737f8ce" y="252"/>
      </g>
     </g>
     <g id="text_7">
      <!-- 2018-07 -->
      <g transform="translate(490.374883 266.598437)scale(0.1 -0.1)">
       <use xlink:href="#DejaVuSans-50"/>
       <use x="63.623047" xlink:href="#DejaVuSans-48"/>
       <use x="127.246094" xlink:href="#DejaVuSans-49"/>
       <use x="190.869141" xlink:href="#DejaVuSans-56"/>
       <use x="254.492188" xlink:href="#DejaVuSans-45"/>
       <use x="290.576172" xlink:href="#DejaVuSans-48"/>
       <use x="354.199219" xlink:href="#DejaVuSans-55"/>
      </g>
     </g>
    </g>
    <g id="xtick_8">
     <g id="line2d_8">
      <g>
       <use style="stroke:#000000;stroke-width:0.8;" x="577.369817" xlink:href="#m9cf737f8ce" y="252"/>
      </g>
     </g>
     <g id="text_8">
      <!-- 2018-10 -->
      <g transform="translate(556.478411 266.598437)scale(0.1 -0.1)">
       <use xlink:href="#DejaVuSans-50"/>
       <use x="63.623047" xlink:href="#DejaVuSans-48"/>
       <use x="127.246094" xlink:href="#DejaVuSans-49"/>
       <use x="190.869141" xlink:href="#DejaVuSans-56"/>
       <use x="254.492188" xlink:href="#DejaVuSans-45"/>
       <use x="290.576172" xlink:href="#DejaVuSans-49"/>
       <use x="354.199219" xlink:href="#DejaVuSans-48"/>
      </g>
     </g>
    </g>
    <g id="xtick_9">
     <g id="line2d_9">
      <g>
       <use style="stroke:#000000;stroke-width:0.8;" x="643.473345" xlink:href="#m9cf737f8ce" y="252"/>
      </g>
     </g>
     <g id="text_9">
      <!-- 2019-01 -->
      <defs>
       <path d="M 10.984375 1.515625 
L 10.984375 10.5 
Q 14.703125 8.734375 18.5 7.8125 
Q 22.3125 6.890625 25.984375 6.890625 
Q 35.75 6.890625 40.890625 13.453125 
Q 46.046875 20.015625 46.78125 33.40625 
Q 43.953125 29.203125 39.59375 26.953125 
Q 35.25 24.703125 29.984375 24.703125 
Q 19.046875 24.703125 12.671875 31.3125 
Q 6.296875 37.9375 6.296875 49.421875 
Q 6.296875 60.640625 12.9375 67.421875 
Q 19.578125 74.21875 30.609375 74.21875 
Q 43.265625 74.21875 49.921875 64.515625 
Q 56.59375 54.828125 56.59375 36.375 
Q 56.59375 19.140625 48.40625 8.859375 
Q 40.234375 -1.421875 26.421875 -1.421875 
Q 22.703125 -1.421875 18.890625 -0.6875 
Q 15.09375 0.046875 10.984375 1.515625 
z
M 30.609375 32.421875 
Q 37.25 32.421875 41.125 36.953125 
Q 45.015625 41.5 45.015625 49.421875 
Q 45.015625 57.28125 41.125 61.84375 
Q 37.25 66.40625 30.609375 66.40625 
Q 23.96875 66.40625 20.09375 61.84375 
Q 16.21875 57.28125 16.21875 49.421875 
Q 16.21875 41.5 20.09375 36.953125 
Q 23.96875 32.421875 30.609375 32.421875 
z
" id="DejaVuSans-57"/>
      </defs>
      <g transform="translate(622.581939 266.598437)scale(0.1 -0.1)">
       <use xlink:href="#DejaVuSans-50"/>
       <use x="63.623047" xlink:href="#DejaVuSans-48"/>
       <use x="127.246094" xlink:href="#DejaVuSans-49"/>
       <use x="190.869141" xlink:href="#DejaVuSans-57"/>
       <use x="254.492188" xlink:href="#DejaVuSans-45"/>
       <use x="290.576172" xlink:href="#DejaVuSans-48"/>
       <use x="354.199219" xlink:href="#DejaVuSans-49"/>
      </g>
     </g>
    </g>
   </g>
   <g id="matplotlib.axis_2">
    <g id="ytick_1">
     <g id="line2d_10">
      <defs>
       <path d="M 0 0 
L -3.5 0 
" id="mf44ea858ce" style="stroke:#000000;stroke-width:0.8;"/>
      </defs>
      <g>
       <use style="stroke:#000000;stroke-width:0.8;" x="90" xlink:href="#mf44ea858ce" y="249.186459"/>
      </g>
     </g>
     <g id="text_10">
      <!-- 2620 -->
      <defs>
       <path d="M 33.015625 40.375 
Q 26.375 40.375 22.484375 35.828125 
Q 18.609375 31.296875 18.609375 23.390625 
Q 18.609375 15.53125 22.484375 10.953125 
Q 26.375 6.390625 33.015625 6.390625 
Q 39.65625 6.390625 43.53125 10.953125 
Q 47.40625 15.53125 47.40625 23.390625 
Q 47.40625 31.296875 43.53125 35.828125 
Q 39.65625 40.375 33.015625 40.375 
z
M 52.59375 71.296875 
L 52.59375 62.3125 
Q 48.875 64.0625 45.09375 64.984375 
Q 41.3125 65.921875 37.59375 65.921875 
Q 27.828125 65.921875 22.671875 59.328125 
Q 17.53125 52.734375 16.796875 39.40625 
Q 19.671875 43.65625 24.015625 45.921875 
Q 28.375 48.1875 33.59375 48.1875 
Q 44.578125 48.1875 50.953125 41.515625 
Q 57.328125 34.859375 57.328125 23.390625 
Q 57.328125 12.15625 50.6875 5.359375 
Q 44.046875 -1.421875 33.015625 -1.421875 
Q 20.359375 -1.421875 13.671875 8.265625 
Q 6.984375 17.96875 6.984375 36.375 
Q 6.984375 53.65625 15.1875 63.9375 
Q 23.390625 74.21875 37.203125 74.21875 
Q 40.921875 74.21875 44.703125 73.484375 
Q 48.484375 72.75 52.59375 71.296875 
z
" id="DejaVuSans-54"/>
      </defs>
      <g transform="translate(57.55 252.985678)scale(0.1 -0.1)">
       <use xlink:href="#DejaVuSans-50"/>
       <use x="63.623047" xlink:href="#DejaVuSans-54"/>
       <use x="127.246094" xlink:href="#DejaVuSans-50"/>
       <use x="190.869141" xlink:href="#DejaVuSans-48"/>
      </g>
     </g>
    </g>
    <g id="ytick_2">
     <g id="line2d_11">
      <g>
       <use style="stroke:#000000;stroke-width:0.8;" x="90" xlink:href="#mf44ea858ce" y="218.599296"/>
      </g>
     </g>
     <g id="text_11">
      <!-- 2640 -->
      <g transform="translate(57.55 222.398515)scale(0.1 -0.1)">
       <use xlink:href="#DejaVuSans-50"/>
       <use x="63.623047" xlink:href="#DejaVuSans-54"/>
       <use x="127.246094" xlink:href="#DejaVuSans-52"/>
       <use x="190.869141" xlink:href="#DejaVuSans-48"/>
      </g>
     </g>
    </g>
    <g id="ytick_3">
     <g id="line2d_12">
      <g>
       <use style="stroke:#000000;stroke-width:0.8;" x="90" xlink:href="#mf44ea858ce" y="188.012133"/>
      </g>
     </g>
     <g id="text_12">
      <!-- 2660 -->
      <g transform="translate(57.55 191.811352)scale(0.1 -0.1)">
       <use xlink:href="#DejaVuSans-50"/>
       <use x="63.623047" xlink:href="#DejaVuSans-54"/>
       <use x="127.246094" xlink:href="#DejaVuSans-54"/>
       <use x="190.869141" xlink:href="#DejaVuSans-48"/>
      </g>
     </g>
    </g>
    <g id="ytick_4">
     <g id="line2d_13">
      <g>
       <use style="stroke:#000000;stroke-width:0.8;" x="90" xlink:href="#mf44ea858ce" y="157.42497"/>
      </g>
     </g>
     <g id="text_13">
      <!-- 2680 -->
      <g transform="translate(57.55 161.224189)scale(0.1 -0.1)">
       <use xlink:href="#DejaVuSans-50"/>
       <use x="63.623047" xlink:href="#DejaVuSans-54"/>
       <use x="127.246094" xlink:href="#DejaVuSans-56"/>
       <use x="190.869141" xlink:href="#DejaVuSans-48"/>
      </g>
     </g>
    </g>
    <g id="ytick_5">
     <g id="line2d_14">
      <g>
       <use style="stroke:#000000;stroke-width:0.8;" x="90" xlink:href="#mf44ea858ce" y="126.837807"/>
      </g>
     </g>
     <g id="text_14">
      <!-- 2700 -->
      <g transform="translate(57.55 130.637026)scale(0.1 -0.1)">
       <use xlink:href="#DejaVuSans-50"/>
       <use x="63.623047" xlink:href="#DejaVuSans-55"/>
       <use x="127.246094" xlink:href="#DejaVuSans-48"/>
       <use x="190.869141" xlink:href="#DejaVuSans-48"/>
      </g>
     </g>
    </g>
    <g id="ytick_6">
     <g id="line2d_15">
      <g>
       <use style="stroke:#000000;stroke-width:0.8;" x="90" xlink:href="#mf44ea858ce" y="96.250644"/>
      </g>
     </g>
     <g id="text_15">
      <!-- 2720 -->
      <g transform="translate(57.55 100.049863)scale(0.1 -0.1)">
       <use xlink:href="#DejaVuSans-50"/>
       <use x="63.623047" xlink:href="#DejaVuSans-55"/>
       <use x="127.246094" xlink:href="#DejaVuSans-50"/>
       <use x="190.869141" xlink:href="#DejaVuSans-48"/>
      </g>
     </g>
    </g>
    <g id="ytick_7">
     <g id="line2d_16">
      <g>
       <use style="stroke:#000000;stroke-width:0.8;" x="90" xlink:href="#mf44ea858ce" y="65.663481"/>
      </g>
     </g>
     <g id="text_16">
      <!-- 2740 -->
      <g transform="translate(57.55 69.462699)scale(0.1 -0.1)">
       <use xlink:href="#DejaVuSans-50"/>
       <use x="63.623047" xlink:href="#DejaVuSans-55"/>
       <use x="127.246094" xlink:href="#DejaVuSans-52"/>
       <use x="190.869141" xlink:href="#DejaVuSans-48"/>
      </g>
     </g>
    </g>
    <g id="ytick_8">
     <g id="line2d_17">
      <g>
       <use style="stroke:#000000;stroke-width:0.8;" x="90" xlink:href="#mf44ea858ce" y="35.076318"/>
      </g>
     </g>
     <g id="text_17">
      <!-- 2760 -->
      <g transform="translate(57.55 38.875536)scale(0.1 -0.1)">
       <use xlink:href="#DejaVuSans-50"/>
       <use x="63.623047" xlink:href="#DejaVuSans-55"/>
       <use x="127.246094" xlink:href="#DejaVuSans-54"/>
       <use x="190.869141" xlink:href="#DejaVuSans-48"/>
      </g>
     </g>
    </g>
   </g>
   <g id="line2d_18">
    <path clip-path="url(#pbe5b2d4553)" d="M 115.363636 229.669088 
L 116.082153 227.09042 
L 116.80067 226.967222 
L 117.519186 227.128654 
L 118.237703 226.878009 
L 118.956219 223.73008 
L 119.674736 229.397202 
L 120.393253 230.637681 
L 121.111769 232.196777 
L 121.830286 234.469573 
L 122.548802 237.226666 
L 123.267319 234.015014 
L 123.985836 236.576689 
L 124.704352 240.642232 
L 125.422869 242.116364 
L 126.141386 240.132446 
L 126.859902 240.795168 
L 127.578419 236.508717 
L 128.296935 232.978449 
L 129.015452 234.006517 
L 129.733969 237.035496 
L 130.452485 237.035496 
L 131.171002 238.399174 
L 131.889518 237.515545 
L 132.608035 233.619929 
L 133.326552 233.144129 
L 134.045068 229.070089 
L 134.763585 229.953718 
L 135.482101 232.727804 
L 136.200618 233.042172 
L 136.919135 231.457587 
L 137.637651 231.33014 
L 138.356168 230.459256 
L 139.074685 229.257011 
L 139.793201 230.013193 
L 140.511718 232.137302 
L 141.230234 229.864506 
L 141.948751 233.173867 
L 142.667268 232.608854 
L 143.385784 232.392195 
L 144.104301 232.328471 
L 144.822817 229.375961 
L 145.541334 225.072517 
L 146.259851 228.080254 
L 146.978367 227.311327 
L 147.696884 228.887416 
L 148.4154 228.747224 
L 149.133917 228.097247 
L 149.852434 226.359726 
L 150.57095 226.861016 
L 151.289467 224.847361 
L 152.007984 225.030035 
L 152.7265 224.596716 
L 153.445017 225.718246 
L 154.163533 226.478677 
L 154.88205 226.911995 
L 155.600567 225.84994 
L 156.319083 227.697915 
L 157.0376 228.37763 
L 157.756116 226.202542 
L 158.474633 227.32832 
L 159.19315 227.901829 
L 160.630183 232.043841 
L 161.348699 230.11515 
L 162.067216 229.923981 
L 162.785733 229.923981 
L 163.504249 226.580634 
L 164.222766 226.189798 
L 164.941283 226.793045 
L 165.659799 223.819293 
L 166.378316 224.095427 
L 167.096832 224.639199 
L 167.815349 223.334996 
L 168.533866 220.106351 
L 169.252382 221.754659 
L 169.970899 225.80321 
L 170.689415 225.582303 
L 171.407932 225.055524 
L 172.126449 224.346072 
L 172.844965 223.318003 
L 173.563482 223.73008 
L 174.281998 222.196474 
L 175.000515 223.275521 
L 175.719032 221.797141 
L 176.437548 218.848879 
L 177.156065 217.710356 
L 177.874582 214.167343 
L 178.593098 211.359272 
L 179.311615 209.349865 
L 180.030131 210.802755 
L 180.748648 210.594593 
L 181.467165 212.370348 
L 182.904198 217.175081 
L 183.622714 217.395988 
L 184.341231 217.914271 
L 185.059748 216.65255 
L 185.778264 214.655888 
L 186.496781 214.626151 
L 187.215297 212.208915 
L 187.933814 212.778176 
L 188.652331 214.919278 
L 189.370847 213.751018 
L 190.089364 213.402664 
L 190.807881 208.330293 
L 191.526397 207.807762 
L 192.244914 208.789101 
L 192.96343 205.471243 
L 193.681947 204.099069 
L 194.400464 201.847514 
L 195.11898 203.64451 
L 195.837497 202.008946 
L 197.993047 192.798811 
L 199.43008 189.115607 
L 200.148596 189.119855 
L 200.867113 188.741764 
L 201.58563 185.878466 
L 202.304146 183.60567 
L 203.022663 179.174779 
L 203.74118 178.490816 
L 204.459696 178.507809 
L 205.178213 180.406762 
L 205.896729 179.981941 
L 206.615246 180.559698 
L 207.333763 181.570774 
L 208.052279 183.015168 
L 208.770796 177.43301 
L 209.489312 177.144131 
L 210.207829 178.049002 
L 210.926346 176.965706 
L 211.644862 178.664993 
L 212.363379 178.189193 
L 213.081895 178.104229 
L 213.800412 176.417686 
L 214.518929 175.26642 
L 215.237445 178.524802 
L 215.955962 179.276736 
L 216.674478 179.361701 
L 217.392995 178.817929 
L 218.111512 175.86117 
L 219.548545 171.324074 
L 220.267062 172.73873 
L 220.985578 174.450762 
L 221.704095 174.166131 
L 222.422611 172.806702 
L 223.141128 169.76073 
L 223.859645 169.051278 
L 224.578161 167.730082 
L 225.296678 169.323164 
L 226.015194 169.161732 
L 227.452228 164.093609 
L 228.170744 161.901529 
L 228.889261 164.029885 
L 229.607777 162.300861 
L 230.326294 163.057044 
L 231.044811 161.459714 
L 231.763327 160.983914 
L 232.481844 157.721283 
L 233.200361 157.670304 
L 233.918877 154.870729 
L 234.637394 153.863902 
L 235.35591 155.019417 
L 236.074427 154.360943 
L 236.792944 154.645574 
L 237.51146 154.063568 
L 238.229977 153.982852 
L 239.66701 150.758455 
L 240.385527 152.020176 
L 241.82256 156.425577 
L 242.541076 156.391591 
L 243.259593 155.049154 
L 243.97811 152.368529 
L 244.696626 152.619174 
L 245.415143 155.788344 
L 246.13366 157.343192 
L 246.852176 157.062809 
L 247.570693 154.454404 
L 248.289209 152.453494 
L 249.007726 151.297979 
L 249.726243 151.289482 
L 250.444759 152.657408 
L 251.163276 148.761793 
L 251.881792 144.143981 
L 252.600309 144.725987 
L 253.318826 147.980121 
L 254.037342 145.949473 
L 254.755859 145.945225 
L 255.474375 143.307082 
L 256.192892 143.706415 
L 256.911409 142.363978 
L 258.348442 141.879681 
L 259.066959 139.708843 
L 259.785475 138.939915 
L 260.503992 142.839779 
L 261.222508 145.877254 
L 261.941025 146.98179 
L 262.659542 147.130478 
L 263.378058 148.22227 
L 264.096575 151.111057 
L 264.815091 152.627671 
L 265.533608 155.771351 
L 266.252125 157.742524 
L 266.970641 162.033223 
L 267.689158 159.106202 
L 268.407674 156.926866 
L 269.126191 157.08405 
L 269.844708 155.316792 
L 270.563224 155.270062 
L 271.281741 153.209676 
L 272.000258 152.219842 
L 272.718774 150.758455 
L 273.437291 150.444087 
L 274.155807 149.118643 
L 274.874324 150.495066 
L 275.592841 152.253828 
L 276.311357 152.134877 
L 277.029874 153.298889 
L 277.74839 152.27082 
L 278.466907 152.750869 
L 279.185424 150.839171 
L 279.90394 147.376874 
L 280.622457 149.951294 
L 281.340973 149.964039 
L 282.05949 151.472156 
L 282.778007 149.394777 
L 283.496523 144.721739 
L 284.21504 141.964646 
L 284.933557 141.272186 
L 285.652073 144.109995 
L 286.37059 143.086175 
L 287.089106 140.248366 
L 287.807623 136.611892 
L 288.52614 133.625396 
L 289.244656 137.580486 
L 289.963173 137.597479 
L 290.681689 138.803972 
L 291.400206 137.610223 
L 292.118723 136.726594 
L 292.837239 134.581244 
L 293.555756 130.617658 
L 294.274272 129.504625 
L 294.992789 129.666057 
L 295.711306 129.525866 
L 296.429822 131.059473 
L 297.148339 128.926868 
L 297.866856 125.405096 
L 298.585372 130.163099 
L 300.022405 126.561673 
L 300.740922 123.42224 
L 301.459439 122.542859 
L 302.177955 121.892882 
L 302.896472 118.876648 
L 303.614988 117.151872 
L 304.333505 114.352297 
L 305.052022 113.099073 
L 305.770538 113.077832 
L 306.489055 111.850097 
L 307.207571 113.51115 
L 307.926088 110.133817 
L 308.644605 111.064177 
L 310.081638 109.182217 
L 310.800155 111.285084 
L 311.518671 109.279926 
L 312.237188 106.064025 
L 312.955704 101.212561 
L 313.674221 101.433469 
L 314.392738 96.972841 
L 315.111254 98.234561 
L 315.829771 98.863297 
L 316.548287 95.286298 
L 317.266804 94.73403 
L 317.985321 96.768926 
L 318.703837 94.776512 
L 319.422354 94.050067 
L 320.14087 94.976179 
L 320.859387 93.221665 
L 321.577904 95.226823 
L 322.29642 93.931117 
L 323.014937 90.70672 
L 323.733454 92.155362 
L 324.45197 89.568198 
L 325.170487 90.273402 
L 325.889003 91.904718 
L 327.326037 93.370353 
L 328.044553 93.336367 
L 330.200103 102.605977 
L 330.91862 107.499923 
L 331.637136 111.501743 
L 332.355653 111.641934 
L 333.074169 109.551811 
L 333.792686 108.047943 
L 334.511203 107.045363 
L 335.229719 106.276436 
L 335.948236 110.707327 
L 336.666753 111.161886 
L 337.385269 110.431192 
L 338.103786 109.279926 
L 338.822302 107.733575 
L 339.540819 108.612955 
L 340.977852 106.165982 
L 341.696369 107.716582 
L 342.414885 105.758154 
L 343.133402 100.354421 
L 344.570435 97.363677 
L 345.288952 98.888787 
L 346.007468 98.438476 
L 346.725985 100.490364 
L 347.444502 101.250795 
L 348.163018 99.088453 
L 348.881535 97.9032 
L 349.600052 95.562433 
L 350.318568 95.209831 
L 351.037085 96.458806 
L 351.755601 98.192079 
L 352.474118 96.488544 
L 353.192635 93.973599 
L 353.911151 92.295554 
L 354.629668 89.275071 
L 355.348184 89.224093 
L 356.066701 90.999847 
L 356.785218 89.309057 
L 357.503734 89.848581 
L 358.222251 90.774692 
L 358.940767 89.436504 
L 359.659284 84.759217 
L 360.377801 85.825519 
L 361.096317 88.416931 
L 361.814834 81.381884 
L 362.533351 78.586557 
L 363.251867 79.028372 
L 363.970384 78.871188 
L 364.6889 78.386891 
L 365.407417 79.86527 
L 366.125934 80.727659 
L 366.84445 86.165376 
L 367.562967 85.897739 
L 368.281483 84.109239 
L 369 83.047185 
L 369.718517 80.578971 
L 370.437033 80.927325 
L 371.15555 82.622363 
L 371.874066 83.888332 
L 372.592583 83.684418 
L 373.3111 82.473676 
L 374.029616 80.544985 
L 374.748133 79.274768 
L 375.466649 75.850705 
L 376.185166 76.636625 
L 376.903683 76.330754 
L 377.622199 77.120922 
L 379.777749 66.347444 
L 381.214782 62.740707 
L 381.933299 62.693977 
L 382.651816 61.725383 
L 389.836982 61.440753 
L 391.274015 65.251404 
L 391.992532 65.221666 
L 393.429565 71.840388 
L 394.148081 68.756183 
L 394.866598 64.329541 
L 395.585115 63.760279 
L 396.303631 65.858899 
L 397.022148 65.871643 
L 397.740664 68.008497 
L 398.459181 68.280382 
L 399.177698 72.392657 
L 399.896214 72.320437 
L 400.614731 71.619481 
L 401.333247 73.446214 
L 402.051764 73.947504 
L 402.770281 72.379912 
L 403.488797 74.023972 
L 404.925831 68.276134 
L 412.110997 67.813079 
L 412.829513 70.480959 
L 413.54803 68.492793 
L 414.266546 68.293127 
L 414.985063 66.606585 
L 415.70358 65.582765 
L 416.422096 67.367016 
L 417.140613 70.994993 
L 417.85913 69.767258 
L 418.577646 71.428311 
L 419.296163 70.973752 
L 420.733196 67.910788 
L 421.451713 70.319527 
L 422.170229 70.808072 
L 422.888746 72.634805 
L 423.607262 70.238811 
L 424.325779 65.710211 
L 425.044296 63.85374 
L 432.229462 63.968442 
L 432.947978 63.038083 
L 433.666495 62.494311 
L 434.385012 60.718556 
L 435.103528 58.61144 
L 435.822045 58.777121 
L 436.540561 59.248673 
L 437.259078 59.282659 
L 438.696111 55.293583 
L 439.414628 54.367471 
L 440.133144 52.10742 
L 440.851661 51.75057 
L 441.570178 56.423609 
L 442.288694 56.580793 
L 443.007211 57.562131 
L 443.725728 57.065089 
L 444.444244 56.240935 
L 445.162761 56.665757 
L 445.881277 55.790624 
L 446.599794 52.532242 
L 447.318311 54.630861 
L 467.436776 54.545897 
L 468.155292 49.371568 
L 468.873809 50.276438 
L 489.710791 51.716584 
L 490.429307 49.222881 
L 491.147824 51.01138 
L 511.266289 52.277349 
L 511.984806 50.382644 
L 512.703322 49.579731 
L 533.540304 50.756487 
L 534.25882 52.438781 
L 534.977337 53.517828 
L 555.814319 53.602792 
L 556.532835 54.851768 
L 557.251352 50.807466 
L 577.369817 49.167654 
L 578.088334 48.606889 
L 578.80685 45.726598 
L 599.643832 44.443636 
L 600.362349 45.675619 
L 601.080865 47.498104 
L 621.917847 49.20164 
L 622.636364 47.995146 
L 622.636364 47.995146 
" style="fill:none;stroke:#1f77b4;stroke-linecap:square;stroke-width:1.5;"/>
   </g>
   <g id="patch_3">
    <path d="M 90 252 
L 90 34.56 
" style="fill:none;stroke:#000000;stroke-linecap:square;stroke-linejoin:miter;stroke-width:0.8;"/>
   </g>
   <g id="patch_4">
    <path d="M 648 252 
L 648 34.56 
" style="fill:none;stroke:#000000;stroke-linecap:square;stroke-linejoin:miter;stroke-width:0.8;"/>
   </g>
   <g id="patch_5">
    <path d="M 90 252 
L 648 252 
" style="fill:none;stroke:#000000;stroke-linecap:square;stroke-linejoin:miter;stroke-width:0.8;"/>
   </g>
   <g id="patch_6">
    <path d="M 90 34.56 
L 648 34.56 
" style="fill:none;stroke:#000000;stroke-linecap:square;stroke-linejoin:miter;stroke-width:0.8;"/>
   </g>
   <g id="text_18">
    <!-- MA360 of Evening Travel Time -->
    <defs>
     <path d="M 9.8125 72.90625 
L 24.515625 72.90625 
L 43.109375 23.296875 
L 61.8125 72.90625 
L 76.515625 72.90625 
L 76.515625 0 
L 66.890625 0 
L 66.890625 64.015625 
L 48.09375 14.015625 
L 38.1875 14.015625 
L 19.390625 64.015625 
L 19.390625 0 
L 9.8125 0 
z
" id="DejaVuSans-77"/>
     <path d="M 34.1875 63.1875 
L 20.796875 26.90625 
L 47.609375 26.90625 
z
M 28.609375 72.90625 
L 39.796875 72.90625 
L 67.578125 0 
L 57.328125 0 
L 50.6875 18.703125 
L 17.828125 18.703125 
L 11.1875 0 
L 0.78125 0 
z
" id="DejaVuSans-65"/>
     <path d="M 40.578125 39.3125 
Q 47.65625 37.796875 51.625 33 
Q 55.609375 28.21875 55.609375 21.1875 
Q 55.609375 10.40625 48.1875 4.484375 
Q 40.765625 -1.421875 27.09375 -1.421875 
Q 22.515625 -1.421875 17.65625 -0.515625 
Q 12.796875 0.390625 7.625 2.203125 
L 7.625 11.71875 
Q 11.71875 9.328125 16.59375 8.109375 
Q 21.484375 6.890625 26.8125 6.890625 
Q 36.078125 6.890625 40.9375 10.546875 
Q 45.796875 14.203125 45.796875 21.1875 
Q 45.796875 27.640625 41.28125 31.265625 
Q 36.765625 34.90625 28.71875 34.90625 
L 20.21875 34.90625 
L 20.21875 43.015625 
L 29.109375 43.015625 
Q 36.375 43.015625 40.234375 45.921875 
Q 44.09375 48.828125 44.09375 54.296875 
Q 44.09375 59.90625 40.109375 62.90625 
Q 36.140625 65.921875 28.71875 65.921875 
Q 24.65625 65.921875 20.015625 65.03125 
Q 15.375 64.15625 9.8125 62.3125 
L 9.8125 71.09375 
Q 15.4375 72.65625 20.34375 73.4375 
Q 25.25 74.21875 29.59375 74.21875 
Q 40.828125 74.21875 47.359375 69.109375 
Q 53.90625 64.015625 53.90625 55.328125 
Q 53.90625 49.265625 50.4375 45.09375 
Q 46.96875 40.921875 40.578125 39.3125 
z
" id="DejaVuSans-51"/>
     <path id="DejaVuSans-32"/>
     <path d="M 30.609375 48.390625 
Q 23.390625 48.390625 19.1875 42.75 
Q 14.984375 37.109375 14.984375 27.296875 
Q 14.984375 17.484375 19.15625 11.84375 
Q 23.34375 6.203125 30.609375 6.203125 
Q 37.796875 6.203125 41.984375 11.859375 
Q 46.1875 17.53125 46.1875 27.296875 
Q 46.1875 37.015625 41.984375 42.703125 
Q 37.796875 48.390625 30.609375 48.390625 
z
M 30.609375 56 
Q 42.328125 56 49.015625 48.375 
Q 55.71875 40.765625 55.71875 27.296875 
Q 55.71875 13.875 49.015625 6.21875 
Q 42.328125 -1.421875 30.609375 -1.421875 
Q 18.84375 -1.421875 12.171875 6.21875 
Q 5.515625 13.875 5.515625 27.296875 
Q 5.515625 40.765625 12.171875 48.375 
Q 18.84375 56 30.609375 56 
z
" id="DejaVuSans-111"/>
     <path d="M 37.109375 75.984375 
L 37.109375 68.5 
L 28.515625 68.5 
Q 23.6875 68.5 21.796875 66.546875 
Q 19.921875 64.59375 19.921875 59.515625 
L 19.921875 54.6875 
L 34.71875 54.6875 
L 34.71875 47.703125 
L 19.921875 47.703125 
L 19.921875 0 
L 10.890625 0 
L 10.890625 47.703125 
L 2.296875 47.703125 
L 2.296875 54.6875 
L 10.890625 54.6875 
L 10.890625 58.5 
Q 10.890625 67.625 15.140625 71.796875 
Q 19.390625 75.984375 28.609375 75.984375 
z
" id="DejaVuSans-102"/>
     <path d="M 9.8125 72.90625 
L 55.90625 72.90625 
L 55.90625 64.59375 
L 19.671875 64.59375 
L 19.671875 43.015625 
L 54.390625 43.015625 
L 54.390625 34.71875 
L 19.671875 34.71875 
L 19.671875 8.296875 
L 56.78125 8.296875 
L 56.78125 0 
L 9.8125 0 
z
" id="DejaVuSans-69"/>
     <path d="M 2.984375 54.6875 
L 12.5 54.6875 
L 29.59375 8.796875 
L 46.6875 54.6875 
L 56.203125 54.6875 
L 35.6875 0 
L 23.484375 0 
z
" id="DejaVuSans-118"/>
     <path d="M 56.203125 29.59375 
L 56.203125 25.203125 
L 14.890625 25.203125 
Q 15.484375 15.921875 20.484375 11.0625 
Q 25.484375 6.203125 34.421875 6.203125 
Q 39.59375 6.203125 44.453125 7.46875 
Q 49.3125 8.734375 54.109375 11.28125 
L 54.109375 2.78125 
Q 49.265625 0.734375 44.1875 -0.34375 
Q 39.109375 -1.421875 33.890625 -1.421875 
Q 20.796875 -1.421875 13.15625 6.1875 
Q 5.515625 13.8125 5.515625 26.8125 
Q 5.515625 40.234375 12.765625 48.109375 
Q 20.015625 56 32.328125 56 
Q 43.359375 56 49.78125 48.890625 
Q 56.203125 41.796875 56.203125 29.59375 
z
M 47.21875 32.234375 
Q 47.125 39.59375 43.09375 43.984375 
Q 39.0625 48.390625 32.421875 48.390625 
Q 24.90625 48.390625 20.390625 44.140625 
Q 15.875 39.890625 15.1875 32.171875 
z
" id="DejaVuSans-101"/>
     <path d="M 54.890625 33.015625 
L 54.890625 0 
L 45.90625 0 
L 45.90625 32.71875 
Q 45.90625 40.484375 42.875 44.328125 
Q 39.84375 48.1875 33.796875 48.1875 
Q 26.515625 48.1875 22.3125 43.546875 
Q 18.109375 38.921875 18.109375 30.90625 
L 18.109375 0 
L 9.078125 0 
L 9.078125 54.6875 
L 18.109375 54.6875 
L 18.109375 46.1875 
Q 21.34375 51.125 25.703125 53.5625 
Q 30.078125 56 35.796875 56 
Q 45.21875 56 50.046875 50.171875 
Q 54.890625 44.34375 54.890625 33.015625 
z
" id="DejaVuSans-110"/>
     <path d="M 9.421875 54.6875 
L 18.40625 54.6875 
L 18.40625 0 
L 9.421875 0 
z
M 9.421875 75.984375 
L 18.40625 75.984375 
L 18.40625 64.59375 
L 9.421875 64.59375 
z
" id="DejaVuSans-105"/>
     <path d="M 45.40625 27.984375 
Q 45.40625 37.75 41.375 43.109375 
Q 37.359375 48.484375 30.078125 48.484375 
Q 22.859375 48.484375 18.828125 43.109375 
Q 14.796875 37.75 14.796875 27.984375 
Q 14.796875 18.265625 18.828125 12.890625 
Q 22.859375 7.515625 30.078125 7.515625 
Q 37.359375 7.515625 41.375 12.890625 
Q 45.40625 18.265625 45.40625 27.984375 
z
M 54.390625 6.78125 
Q 54.390625 -7.171875 48.1875 -13.984375 
Q 42 -20.796875 29.203125 -20.796875 
Q 24.46875 -20.796875 20.265625 -20.09375 
Q 16.0625 -19.390625 12.109375 -17.921875 
L 12.109375 -9.1875 
Q 16.0625 -11.328125 19.921875 -12.34375 
Q 23.78125 -13.375 27.78125 -13.375 
Q 36.625 -13.375 41.015625 -8.765625 
Q 45.40625 -4.15625 45.40625 5.171875 
L 45.40625 9.625 
Q 42.625 4.78125 38.28125 2.390625 
Q 33.9375 0 27.875 0 
Q 17.828125 0 11.671875 7.65625 
Q 5.515625 15.328125 5.515625 27.984375 
Q 5.515625 40.671875 11.671875 48.328125 
Q 17.828125 56 27.875 56 
Q 33.9375 56 38.28125 53.609375 
Q 42.625 51.21875 45.40625 46.390625 
L 45.40625 54.6875 
L 54.390625 54.6875 
z
" id="DejaVuSans-103"/>
     <path d="M -0.296875 72.90625 
L 61.375 72.90625 
L 61.375 64.59375 
L 35.5 64.59375 
L 35.5 0 
L 25.59375 0 
L 25.59375 64.59375 
L -0.296875 64.59375 
z
" id="DejaVuSans-84"/>
     <path d="M 41.109375 46.296875 
Q 39.59375 47.171875 37.8125 47.578125 
Q 36.03125 48 33.890625 48 
Q 26.265625 48 22.1875 43.046875 
Q 18.109375 38.09375 18.109375 28.8125 
L 18.109375 0 
L 9.078125 0 
L 9.078125 54.6875 
L 18.109375 54.6875 
L 18.109375 46.1875 
Q 20.953125 51.171875 25.484375 53.578125 
Q 30.03125 56 36.53125 56 
Q 37.453125 56 38.578125 55.875 
Q 39.703125 55.765625 41.0625 55.515625 
z
" id="DejaVuSans-114"/>
     <path d="M 34.28125 27.484375 
Q 23.390625 27.484375 19.1875 25 
Q 14.984375 22.515625 14.984375 16.5 
Q 14.984375 11.71875 18.140625 8.90625 
Q 21.296875 6.109375 26.703125 6.109375 
Q 34.1875 6.109375 38.703125 11.40625 
Q 43.21875 16.703125 43.21875 25.484375 
L 43.21875 27.484375 
z
M 52.203125 31.203125 
L 52.203125 0 
L 43.21875 0 
L 43.21875 8.296875 
Q 40.140625 3.328125 35.546875 0.953125 
Q 30.953125 -1.421875 24.3125 -1.421875 
Q 15.921875 -1.421875 10.953125 3.296875 
Q 6 8.015625 6 15.921875 
Q 6 25.140625 12.171875 29.828125 
Q 18.359375 34.515625 30.609375 34.515625 
L 43.21875 34.515625 
L 43.21875 35.40625 
Q 43.21875 41.609375 39.140625 45 
Q 35.0625 48.390625 27.6875 48.390625 
Q 23 48.390625 18.546875 47.265625 
Q 14.109375 46.140625 10.015625 43.890625 
L 10.015625 52.203125 
Q 14.9375 54.109375 19.578125 55.046875 
Q 24.21875 56 28.609375 56 
Q 40.484375 56 46.34375 49.84375 
Q 52.203125 43.703125 52.203125 31.203125 
z
" id="DejaVuSans-97"/>
     <path d="M 9.421875 75.984375 
L 18.40625 75.984375 
L 18.40625 0 
L 9.421875 0 
z
" id="DejaVuSans-108"/>
     <path d="M 52 44.1875 
Q 55.375 50.25 60.0625 53.125 
Q 64.75 56 71.09375 56 
Q 79.640625 56 84.28125 50.015625 
Q 88.921875 44.046875 88.921875 33.015625 
L 88.921875 0 
L 79.890625 0 
L 79.890625 32.71875 
Q 79.890625 40.578125 77.09375 44.375 
Q 74.3125 48.1875 68.609375 48.1875 
Q 61.625 48.1875 57.5625 43.546875 
Q 53.515625 38.921875 53.515625 30.90625 
L 53.515625 0 
L 44.484375 0 
L 44.484375 32.71875 
Q 44.484375 40.625 41.703125 44.40625 
Q 38.921875 48.1875 33.109375 48.1875 
Q 26.21875 48.1875 22.15625 43.53125 
Q 18.109375 38.875 18.109375 30.90625 
L 18.109375 0 
L 9.078125 0 
L 9.078125 54.6875 
L 18.109375 54.6875 
L 18.109375 46.1875 
Q 21.1875 51.21875 25.484375 53.609375 
Q 29.78125 56 35.6875 56 
Q 41.65625 56 45.828125 52.96875 
Q 50 49.953125 52 44.1875 
z
" id="DejaVuSans-109"/>
    </defs>
    <g transform="translate(277.17 28.56)scale(0.12 -0.12)">
     <use xlink:href="#DejaVuSans-77"/>
     <use x="86.279297" xlink:href="#DejaVuSans-65"/>
     <use x="154.6875" xlink:href="#DejaVuSans-51"/>
     <use x="218.310547" xlink:href="#DejaVuSans-54"/>
     <use x="281.933594" xlink:href="#DejaVuSans-48"/>
     <use x="345.556641" xlink:href="#DejaVuSans-32"/>
     <use x="377.34375" xlink:href="#DejaVuSans-111"/>
     <use x="438.525391" xlink:href="#DejaVuSans-102"/>
     <use x="473.730469" xlink:href="#DejaVuSans-32"/>
     <use x="505.517578" xlink:href="#DejaVuSans-69"/>
     <use x="568.701172" xlink:href="#DejaVuSans-118"/>
     <use x="627.880859" xlink:href="#DejaVuSans-101"/>
     <use x="689.404297" xlink:href="#DejaVuSans-110"/>
     <use x="752.783203" xlink:href="#DejaVuSans-105"/>
     <use x="780.566406" xlink:href="#DejaVuSans-110"/>
     <use x="843.945312" xlink:href="#DejaVuSans-103"/>
     <use x="907.421875" xlink:href="#DejaVuSans-32"/>
     <use x="939.208984" xlink:href="#DejaVuSans-84"/>
     <use x="1000.074219" xlink:href="#DejaVuSans-114"/>
     <use x="1041.1875" xlink:href="#DejaVuSans-97"/>
     <use x="1102.466797" xlink:href="#DejaVuSans-118"/>
     <use x="1161.646484" xlink:href="#DejaVuSans-101"/>
     <use x="1223.169922" xlink:href="#DejaVuSans-108"/>
     <use x="1250.953125" xlink:href="#DejaVuSans-32"/>
     <use x="1282.740234" xlink:href="#DejaVuSans-84"/>
     <use x="1343.777344" xlink:href="#DejaVuSans-105"/>
     <use x="1371.560547" xlink:href="#DejaVuSans-109"/>
     <use x="1468.972656" xlink:href="#DejaVuSans-101"/>
    </g>
   </g>
  </g>
 </g>
 <defs>
  <clipPath id="pbe5b2d4553">
   <rect height="217.44" width="558" x="90" y="34.56"/>
  </clipPath>
 </defs>
</svg>
